<svg xmlns="http://www.w3.org/2000/svg" width="100" height="100" viewBox="0 0 100 100">
  <path d="M46.49,43.53c-2.94-4.09-5.72-7.92-6.08-8.28a3.64,3.64,0,0,0-5.14,5.15c.36.36,4.19,3.13,8.28,6.07A7.42,7.42,0,0,1,46.49,43.53Z" fill="#0b318f"/>
  <circle cx="50.01" cy="49.99" r="6.05" fill="#0b318f"/>
  <path d="M24.92,25s0,0,0,0a4.17,4.17,0,0,1-.16-5.79l.06-.06a5.56,5.56,0,0,0-3.79-2l-4.3-.32.36,4.74a5.48,5.48,0,0,0,1.78,3.57l.06-.07A4.41,4.41,0,0,1,24.92,25Z" fill="#eb6100"/>
  <path d="M75.09,25s0,0,0,0a4.16,4.16,0,0,1,5.79-.15l.06.06a5.61,5.61,0,0,0,2-3.79l.33-4.3-4.75.35A5.49,5.49,0,0,0,75,18.91l.07.06A4.41,4.41,0,0,1,75.09,25Z" fill="#eb6100"/>
  <path d="M75,75.13a0,0,0,1,0,0,0,4.17,4.17,0,0,1,.14,5.8l-.06,0A5.58,5.58,0,0,0,78.85,83l4.3.34-.34-4.75A5.56,5.56,0,0,0,81,75.05l-.06.08A4.42,4.42,0,0,1,75,75.13Z" fill="#eb6100"/>
  <path d="M25,75.09s0,0,0,0a4.18,4.18,0,0,1-5.8.16l-.05-.06a5.56,5.56,0,0,0-2,3.79l-.33,4.31,4.75-.37a5.48,5.48,0,0,0,3.57-1.78L25,81.07A4.41,4.41,0,0,1,25,75.09Z" fill="#eb6100"/>
  <circle cx="10.35" cy="10.37" r="2.09" fill="#00a29a"/>
  <circle cx="8.18" cy="31.24" r="2.09" fill="#00a29a"/>
  <circle cx="31.27" cy="8.08" r="2.09" fill="#00a29a"/>
  <path d="M6,37A6.14,6.14,0,0,1,.62,33.62,6.29,6.29,0,0,1,1.8,26.53a4.69,4.69,0,0,1,2.71-1.3c.68-.14,1-.22,1.28-.61.46-.7.08-1.61-.57-3C4.49,20,3.59,18,4.33,15.79a7.7,7.7,0,0,1,1.1-2,2.8,2.8,0,0,0,.77-2.14,3.78,3.78,0,0,0-.29-.9A7,7,0,0,1,5.39,9a8.31,8.31,0,0,1,.06-3l.09-.43L6,5.47a8.31,8.31,0,0,1,3-.06,7.3,7.3,0,0,1,1.75.52,3.43,3.43,0,0,0,.89.29,2.82,2.82,0,0,0,2.14-.76,7.87,7.87,0,0,1,2-1.11c2.23-.74,4.21.17,5.8.89,1.42.66,2.33,1,3,.57.4-.26.48-.6.61-1.28a4.76,4.76,0,0,1,1.31-2.7A6.31,6.31,0,0,1,33.6.64a6.09,6.09,0,0,1,3.29,6.48,5.9,5.9,0,0,1-1.81,3.14.66.66,0,0,1-.93,0,.65.65,0,0,1,0-.93A4.52,4.52,0,0,0,35.6,6.87a4.81,4.81,0,0,0-2.59-5,5,5,0,0,0-5.57.93,3.49,3.49,0,0,0-1,2,2.89,2.89,0,0,1-1.17,2.12c-1.34.89-2.85.2-4.31-.47S17.92,5,16.18,5.6a6.92,6.92,0,0,0-1.7.94,4,4,0,0,1-3.09,1,4.91,4.91,0,0,1-1.19-.37,5.8,5.8,0,0,0-1.46-.44,6.84,6.84,0,0,0-2.07,0,6.83,6.83,0,0,0,0,2.07,5.71,5.71,0,0,0,.43,1.46,4.84,4.84,0,0,1,.38,1.2,4,4,0,0,1-1,3.08,6.59,6.59,0,0,0-.93,1.7c-.58,1.74.14,3.31.84,4.83s1.36,3,.46,4.31a2.9,2.9,0,0,1-2.12,1.18,3.39,3.39,0,0,0-2,.94A5,5,0,0,0,1.79,33a4.83,4.83,0,0,0,5.06,2.58,4.52,4.52,0,0,0,2.42-1.41.66.66,0,0,1,.93,0,.67.67,0,0,1,0,.93A5.84,5.84,0,0,1,7.1,36.91,5.44,5.44,0,0,1,6,37Z" fill="#fcc800"/>
  <circle cx="89.67" cy="10.36" r="2.09" fill="#00a29a"/>
  <circle cx="68.79" cy="8.18" r="2.09" fill="#00a29a"/>
  <circle cx="91.94" cy="31.29" r="2.09" fill="#00a29a"/>
  <path d="M94,37a5.44,5.44,0,0,1-1.06-.1,5.83,5.83,0,0,1-3.13-1.81.66.66,0,0,1,0-.93.65.65,0,0,1,.93,0,4.52,4.52,0,0,0,2.42,1.41A4.81,4.81,0,0,0,98.2,33a5,5,0,0,0-.93-5.57,3.43,3.43,0,0,0-2-.95,2.9,2.9,0,0,1-2.11-1.18c-.9-1.34-.2-2.85.47-4.31s1.42-3.09.84-4.83a6.9,6.9,0,0,0-.93-1.7,3.92,3.92,0,0,1-1-3.09,4.51,4.51,0,0,1,.37-1.19,6.1,6.1,0,0,0,.44-1.46,6.83,6.83,0,0,0,0-2.07,6.83,6.83,0,0,0-2.07,0,5.71,5.71,0,0,0-1.46.43,4.47,4.47,0,0,1-1.2.37,3.91,3.91,0,0,1-3.08-1,6.92,6.92,0,0,0-1.7-.94C82.1,5,80.53,5.73,79,6.42s-3,1.36-4.32.47a2.9,2.9,0,0,1-1.16-2.12,3.49,3.49,0,0,0-1-2A5,5,0,0,0,67,1.79a4.83,4.83,0,0,0-2.59,5.05,4.46,4.46,0,0,0,1.41,2.42.66.66,0,0,1,0,.93.65.65,0,0,1-.93,0,5.76,5.76,0,0,1-1.8-3.14A6.09,6.09,0,0,1,66.42.61a6.3,6.3,0,0,1,7.09,1.2,4.76,4.76,0,0,1,1.31,2.7c.13.68.21,1,.6,1.28.7.47,1.61.09,3-.56,1.59-.73,3.57-1.63,5.8-.88a7.51,7.51,0,0,1,2,1.1,2.79,2.79,0,0,0,2.14.76,3.75,3.75,0,0,0,.9-.28,7,7,0,0,1,1.75-.52,8.31,8.31,0,0,1,3,.06l.43.09.09.43a8.79,8.79,0,0,1,.06,3,7,7,0,0,1-.53,1.75,4.29,4.29,0,0,0-.29.9,2.81,2.81,0,0,0,.77,2.14,8,8,0,0,1,1.1,2c.74,2.23-.17,4.2-.9,5.79-.65,1.43-1,2.34-.57,3,.26.39.6.47,1.28.61a4.69,4.69,0,0,1,2.71,1.3,6.34,6.34,0,0,1,1.18,7.1A6.17,6.17,0,0,1,94,37Z" fill="#fcc800"/>
  <circle cx="89.6" cy="89.69" r="2.09" fill="#00a29a"/>
  <circle cx="91.8" cy="68.81" r="2.09" fill="#00a29a"/>
  <circle cx="68.68" cy="91.94" r="2.09" fill="#00a29a"/>
  <path d="M69,100a5.74,5.74,0,0,1-2.64-.62,6.07,6.07,0,0,1-3.28-6.48,5.81,5.81,0,0,1,1.82-3.14.66.66,0,0,1,.93,0,.67.67,0,0,1,0,.93,4.46,4.46,0,0,0-1.42,2.42,4.82,4.82,0,0,0,2.58,5.06,5,5,0,0,0,5.57-.93,3.47,3.47,0,0,0,1-2,2.9,2.9,0,0,1,1.18-2.12c1.34-.89,2.85-.19,4.31.48S82,95,83.76,94.44a6.59,6.59,0,0,0,1.7-.93,4,4,0,0,1,3.09-1,4.9,4.9,0,0,1,1.19.38,6.1,6.1,0,0,0,1.46.44,6.83,6.83,0,0,0,2.07,0,7.18,7.18,0,0,0,0-2.07,6.1,6.1,0,0,0-.44-1.46,4.86,4.86,0,0,1-.37-1.2,4,4,0,0,1,1-3.08,6.92,6.92,0,0,0,.94-1.7c.58-1.74-.14-3.31-.83-4.83s-1.36-3-.46-4.31a2.89,2.89,0,0,1,2.12-1.17,3.49,3.49,0,0,0,2-1A5,5,0,0,0,98.19,67a4.81,4.81,0,0,0-5-2.59,4.51,4.51,0,0,0-2.43,1.41.66.66,0,1,1-1-.9,5.82,5.82,0,0,1,3.14-1.8,6.08,6.08,0,0,1,6.47,3.3,6.31,6.31,0,0,1-1.2,7.09,4.67,4.67,0,0,1-2.71,1.3c-.68.13-1,.22-1.28.61-.46.69-.09,1.61.57,3,.72,1.59,1.62,3.57.87,5.8a7.87,7.87,0,0,1-1.1,2,2.79,2.79,0,0,0-.77,2.14,3.43,3.43,0,0,0,.29.89,7.79,7.79,0,0,1,.52,1.75,8.55,8.55,0,0,1-.07,3l-.09.44-.43.08a8.31,8.31,0,0,1-3,.06,7.39,7.39,0,0,1-1.75-.53,3.78,3.78,0,0,0-.9-.29,2.8,2.8,0,0,0-2.14.76,7.43,7.43,0,0,1-2,1.1c-2.23.74-4.2-.17-5.79-.9-1.43-.66-2.34-1-3-.57-.39.26-.47.6-.61,1.28a4.69,4.69,0,0,1-1.31,2.7A6.44,6.44,0,0,1,69,100Z" fill="#fcc800"/>
  <circle cx="10.38" cy="89.65" r="2.09" fill="#00a29a"/>
  <circle cx="31.26" cy="91.82" r="2.09" fill="#00a29a"/>
  <circle cx="8.09" cy="68.73" r="2.09" fill="#00a29a"/>
  <path d="M31,100a6.42,6.42,0,0,1-4.46-1.8,4.78,4.78,0,0,1-1.31-2.71c-.13-.68-.22-1-.61-1.28-.7-.46-1.61-.08-3,.57-1.59.73-3.57,1.63-5.8.89a7.87,7.87,0,0,1-2-1.1,2.79,2.79,0,0,0-2.14-.77,3.85,3.85,0,0,0-.89.29A7.3,7.3,0,0,1,9,94.61a8.31,8.31,0,0,1-3-.06l-.44-.09L5.49,94a8.31,8.31,0,0,1-.06-3A7.3,7.3,0,0,1,6,89.3a3.85,3.85,0,0,0,.29-.89,2.79,2.79,0,0,0-.77-2.14,8,8,0,0,1-1.1-2c-.74-2.23.16-4.21.89-5.8.65-1.42,1-2.33.57-3-.26-.4-.6-.48-1.28-.61a4.78,4.78,0,0,1-2.71-1.31A6.29,6.29,0,0,1,.66,66.4a6.09,6.09,0,0,1,6.48-3.29,5.77,5.77,0,0,1,3.13,1.81.66.66,0,0,1,0,.93.65.65,0,0,1-.93,0A4.52,4.52,0,0,0,6.89,64.4,4.83,4.83,0,0,0,1.83,67a5,5,0,0,0,.94,5.57,3.47,3.47,0,0,0,2,1,2.85,2.85,0,0,1,2.12,1.17c.9,1.34.2,2.85-.46,4.31S5,82.08,5.62,83.82a6.59,6.59,0,0,0,.93,1.7,4,4,0,0,1,1,3.09,4.9,4.9,0,0,1-.38,1.19,5.84,5.84,0,0,0-.43,1.46,6.84,6.84,0,0,0,0,2.07,6.84,6.84,0,0,0,2.07,0,5.62,5.62,0,0,0,1.45-.43,5.13,5.13,0,0,1,1.2-.38,4,4,0,0,1,3.09,1,6.59,6.59,0,0,0,1.7.93c1.74.58,3.31-.14,4.83-.84s3-1.36,4.31-.46a2.85,2.85,0,0,1,1.17,2.12,3.47,3.47,0,0,0,.95,2,5,5,0,0,0,5.57.94,4.83,4.83,0,0,0,2.59-5.06,4.52,4.52,0,0,0-1.41-2.42.65.65,0,0,1,0-.93.67.67,0,0,1,.93,0,5.9,5.9,0,0,1,1.81,3.14,6.09,6.09,0,0,1-3.29,6.48A5.86,5.86,0,0,1,31,100Z" fill="#fcc800"/>
  <path d="M56.47,46.48c4.09-2.94,7.93-5.72,8.28-6.07a3.64,3.64,0,1,0-5.14-5.15c-.36.36-3.14,4.18-6.08,8.27A7.45,7.45,0,0,1,56.47,46.48Z" fill="#0b318f"/>
  <path d="M53.52,56.46c2.93,4.09,5.71,7.92,6.06,8.28a3.64,3.64,0,0,0,5.16-5.14c-.36-.35-4.19-3.14-8.28-6.08A7.36,7.36,0,0,1,53.52,56.46Z" fill="#0b318f"/>
  <path d="M43.54,53.5c-4.09,2.93-7.93,5.7-8.29,6.06a3.64,3.64,0,1,0,5.14,5.15c.36-.35,3.14-4.18,6.09-8.26A7.45,7.45,0,0,1,43.54,53.5Z" fill="#0b318f"/>
  <path d="M40.16,30.56a9.23,9.23,0,0,1,9.2,8.77c0,.15,0,.29,0,.43v2.88h1.31V40.42h0v-.66c0-.14,0-.28,0-.43a9.22,9.22,0,0,1,9.19-8.77.66.66,0,1,0,0-1.31A10.53,10.53,0,0,0,50,36.08a10.51,10.51,0,0,0-9.85-6.83.66.66,0,1,0,0,1.31Z" fill="#fcc800"/>
  <path d="M67.68,52.4A10.54,10.54,0,0,0,63.94,50a10.57,10.57,0,0,0,6.81-9.85.65.65,0,0,0-.66-.66h0a.65.65,0,0,0-.65.66,9.22,9.22,0,0,1-8.78,9.19h-3.3v1.31h3.31a9.18,9.18,0,0,1,8.77,9.19.66.66,0,0,0,.66.65h0a.65.65,0,0,0,.66-.65A10.49,10.49,0,0,0,67.68,52.4Z" fill="#fcc800"/>
  <path d="M59.86,69.42h0a9.21,9.21,0,0,1-9.19-8.77c0-.14,0-.29,0-.43V57.35H49.35v2.21h0v.66c0,.14,0,.29,0,.43a9.22,9.22,0,0,1-9.19,8.78.66.66,0,1,0,0,1.31h0A10.53,10.53,0,0,0,50,63.91a10.54,10.54,0,0,0,9.85,6.82h0a.66.66,0,1,0,0-1.31Z" fill="#fcc800"/>
  <path d="M39.78,50.66h2.87V49.33h-3.3a9.2,9.2,0,0,1-8.78-9.19.65.65,0,0,0-.65-.65h0a.65.65,0,0,0-.66.66A10.52,10.52,0,0,0,36.08,50a10.53,10.53,0,0,0-6.81,9.86.65.65,0,0,0,.65.65h0a.65.65,0,0,0,.66-.65,9.2,9.2,0,0,1,8.77-9.2A3.12,3.12,0,0,0,39.78,50.66Z" fill="#fcc800"/>
  <path d="M93.53,51.11c-1.49-1.74-4.3-1-5.64.49a16.12,16.12,0,0,0-3.28,4.66c-.5,1-.89,2.07-1.34,3.09a6,6,0,0,0-2.75-4.78,6,6,0,0,0,1.14,7.74c-3.94,6.09-7.45,8.51-14.89,4.26h0a.16.16,0,0,0-.16,0h0l0,0a.15.15,0,0,0,0,.2c4.19,7.47,1.76,11-4.37,14.85a6,6,0,0,0-7.73-1.19,6,6,0,0,0,4.77,2.79c-1,.43-2.07.82-3.1,1.31a16.27,16.27,0,0,0-4.69,3.24,5.13,5.13,0,0,0-1.47,2.69c0,.07,0,.13,0,.19a4.93,4.93,0,0,0-1.45-2.83,16.27,16.27,0,0,0-4.67-3.27c-1-.5-2.08-.89-3.09-1.33a6,6,0,0,0,4.77-2.76h0a6,6,0,0,0-7.73,1.15c-6.1-3.94-8.52-7.43-4.28-14.88a0,0,0,0,1,0,0h0a.18.18,0,0,0,0-.16l0,0h0a.15.15,0,0,0-.2,0c-7.48,4.2-10.95,1.77-14.86-4.35a6,6,0,0,0,1.17-7.73,6,6,0,0,0-2.77,4.77c-.44-1-.83-2.07-1.32-3.1a16.12,16.12,0,0,0-3.25-4.68A5.06,5.06,0,0,0,9.49,50H9.36a4.92,4.92,0,0,0,2.77-1.46,16.44,16.44,0,0,0,3.26-4.67c.49-1,.89-2.08,1.33-3.09a5.94,5.94,0,0,0,2.76,4.77,6,6,0,0,0-1.16-7.73c3.92-6.11,7.42-8.54,14.87-4.31h0a.18.18,0,0,0,.16,0l0,0h0a.17.17,0,0,0,0-.2c-4.22-7.47-1.8-10.95,4.32-14.87a6,6,0,0,0,7.73,1.16,6,6,0,0,0-4.77-2.76c1-.44,2.06-.84,3.09-1.33a16,16,0,0,0,4.68-3.26A5.13,5.13,0,0,0,50,9.53l.21,0a4.93,4.93,0,0,0,1.4,2.55,16.27,16.27,0,0,0,4.67,3.27c1,.5,2.08.89,3.09,1.34a5.92,5.92,0,0,0-4.77,2.75,6,6,0,0,0,7.73-1.14c6.1,3.93,8.52,7.43,4.28,14.88,0,0,0,0,0,0h0a.2.2,0,0,0,0,.17h0v0a.18.18,0,0,0,.2,0c7.47-4.21,11-1.78,14.86,4.35a6,6,0,0,0-1.18,7.72,5.93,5.93,0,0,0,2.78-4.76c.44,1,.83,2.06,1.32,3.1a16.39,16.39,0,0,0,3.25,4.68A5,5,0,0,0,90.53,50a2.83,2.83,0,0,0,3.52-2.4,2.07,2.07,0,0,0-.92-2,2.1,2.1,0,0,0-2.12.23A.13.13,0,0,0,91,46a.15.15,0,0,0,.19.06,2.14,2.14,0,0,1,1.2-.23c1.3.16,1.21,2,.46,2.68-1.18,1-3,.23-3.86-1a18.29,18.29,0,0,1-3.11-7,21.48,21.48,0,0,0-3.68-7.75c-3.7-4.4-8.73-4.83-12.84-2.07a10.12,10.12,0,0,0,1.76-4.63c.33-3.14-1.41-6.24-3.76-8.21a21.37,21.37,0,0,0-7.73-3.71,18.1,18.1,0,0,1-7-3.15c-1.19-.88-2-2.68-1-3.86.69-.74,2.53-.83,2.68.47a2.16,2.16,0,0,1-.23,1.21c-.08.14.15.28.23.13A1.91,1.91,0,0,0,54,6.24a2.67,2.67,0,0,0-3,.23,2.9,2.9,0,0,0-1,2.42H50A2.74,2.74,0,0,0,47.55,6a2.08,2.08,0,0,0-2,.92A2.14,2.14,0,0,0,45.73,9a.15.15,0,0,0,.18,0A.13.13,0,0,0,46,8.86a2.14,2.14,0,0,1-.23-1.2c.16-1.31,2-1.21,2.68-.47,1,1.18.23,3-1,3.86a18.32,18.32,0,0,1-7,3.13,21.62,21.62,0,0,0-7.74,3.69c-4.39,3.7-4.81,8.74-2,12.84A10.11,10.11,0,0,0,26.05,29c-3.14-.33-6.24,1.43-8.2,3.78a21.4,21.4,0,0,0-3.7,7.74,18.15,18.15,0,0,1-3.14,7c-.87,1.2-2.67,2-3.86,1-.74-.68-.83-2.52.47-2.68A2.16,2.16,0,0,1,8.83,46c.14.08.28-.15.13-.24A1.91,1.91,0,0,0,6.25,46a2.67,2.67,0,0,0,.23,3,2.82,2.82,0,0,0,1.83,1A2.61,2.61,0,0,0,6,52.38a2.07,2.07,0,0,0,.91,2A2.15,2.15,0,0,0,9,54.2a.15.15,0,0,0,0-.18A.13.13,0,0,0,8.87,54a2,2,0,0,1-1.2.22c-1.31-.16-1.21-2-.47-2.68,1.19-1,3-.22,3.86,1a18.26,18.26,0,0,1,3.12,7,21.48,21.48,0,0,0,3.68,7.75c3.69,4.4,8.73,4.82,12.84,2.06a9.94,9.94,0,0,0-1.76,4.63c-.33,3.15,1.41,6.24,3.76,8.21a21.37,21.37,0,0,0,7.73,3.71,18.25,18.25,0,0,1,7,3.15c1.19.88,2,2.68,1,3.86-.69.75-2.53.83-2.68-.47a2.14,2.14,0,0,1,.23-1.2c.08-.15-.14-.29-.23-.14A1.9,1.9,0,0,0,46,93.74a2.65,2.65,0,0,0,3-.22,2.82,2.82,0,0,0,1-1.88A2.63,2.63,0,0,0,52.34,94a2.08,2.08,0,0,0,2-.92A2.15,2.15,0,0,0,54.16,91,.14.14,0,0,0,54,91a.13.13,0,0,0,0,.18,2.18,2.18,0,0,1,.22,1.21c-.16,1.3-2,1.2-2.68.46-1-1.19-.22-3,1-3.86a18.35,18.35,0,0,1,7-3.11,21.57,21.57,0,0,0,7.76-3.66c4.4-3.69,4.84-8.73,2.08-12.84a10.05,10.05,0,0,0,4.63,1.76c3.14.34,6.24-1.4,8.22-3.75a21.59,21.59,0,0,0,3.72-7.72,18.4,18.4,0,0,1,3.15-7c.88-1.19,2.68-1.95,3.87-.95.74.69.82,2.53-.48,2.68a2.14,2.14,0,0,1-1.2-.23c-.15-.09-.28.14-.14.23a1.91,1.91,0,0,0,2.71-.3A2.65,2.65,0,0,0,93.53,51.11Z" fill="#0b318f"/>
</svg>
