<svg xmlns="http://www.w3.org/2000/svg" width="100" height="100" viewBox="0 0 100 100">
  <path d="M50,100a50,50,0,1,1,50-50A50.06,50.06,0,0,1,50,100ZM50,1.31A48.69,48.69,0,1,0,98.69,50,48.74,48.74,0,0,0,50,1.31Z" fill="#66b5e6"/>
  <circle cx="50" cy="50" r="5.96" fill="#fcc800"/>
  <path d="M45.92,43.74l.2.14a7.12,7.12,0,0,1,2-.87,1.15,1.15,0,0,1,0-.26,1.94,1.94,0,0,1,3.88,0,1.15,1.15,0,0,1,0,.26,7.41,7.41,0,0,1,2,.88l.18-.15c1-.74,2.3-1.87,2.3-3.14a2.31,2.31,0,0,0-1.93-2.27,2.3,2.3,0,0,0-1.5-4,2.13,2.13,0,0,0-.72.12A10.9,10.9,0,0,0,50,31.19a10.68,10.68,0,0,0-2.22,3.22,2.24,2.24,0,0,0-.73-.12,2.3,2.3,0,0,0-1.5,4,2.31,2.31,0,0,0-1.93,2.27C43.62,41.87,44.87,43,45.92,43.74Z" fill="#66b5e6"/>
  <path d="M68.81,50a10.9,10.9,0,0,0-3.22-2.23,2.13,2.13,0,0,0,.12-.72,2.3,2.3,0,0,0-4-1.5,2.31,2.31,0,0,0-2.27-1.93c-1.27,0-2.43,1.25-3.15,2.3l-.13.2a7.12,7.12,0,0,1,.87,2,1.15,1.15,0,0,1,.26,0,1.94,1.94,0,0,1,0,3.88,1.15,1.15,0,0,1-.26,0,7.41,7.41,0,0,1-.88,2l.15.18c.74,1,1.87,2.3,3.14,2.3a2.31,2.31,0,0,0,2.27-1.93,2.3,2.3,0,0,0,4-1.5,2.13,2.13,0,0,0-.12-.72A10.9,10.9,0,0,0,68.81,50Z" fill="#66b5e6"/>
  <path d="M54.08,56.25l-.2-.13a7.12,7.12,0,0,1-2,.87,1.15,1.15,0,0,1,0,.26,1.94,1.94,0,0,1-3.88,0,1.15,1.15,0,0,1,0-.26,7.41,7.41,0,0,1-2-.88l-.18.15c-1,.74-2.3,1.87-2.3,3.14a2.31,2.31,0,0,0,1.93,2.27,2.3,2.3,0,0,0,1.5,4,2.13,2.13,0,0,0,.72-.12A10.9,10.9,0,0,0,50,68.81a10.9,10.9,0,0,0,2.23-3.22,2.13,2.13,0,0,0,.72.12,2.3,2.3,0,0,0,1.5-4,2.31,2.31,0,0,0,1.93-2.27C56.38,58.13,55.13,57,54.08,56.25Z" fill="#66b5e6"/>
  <path d="M43,51.91a1.15,1.15,0,0,1-.26,0,1.94,1.94,0,0,1,0-3.88,1.15,1.15,0,0,1,.26,0,7.41,7.41,0,0,1,.88-2l-.15-.18c-.74-1-1.87-2.3-3.14-2.3a2.3,2.3,0,0,0-2.27,1.93,2.3,2.3,0,0,0-4,1.5,2.24,2.24,0,0,0,.12.73A10.68,10.68,0,0,0,31.19,50a10.9,10.9,0,0,0,3.22,2.23,2.13,2.13,0,0,0-.12.72,2.3,2.3,0,0,0,4,1.5,2.31,2.31,0,0,0,2.27,1.93c1.27,0,2.43-1.25,3.15-2.3l.13-.2A7.12,7.12,0,0,1,43,51.91Z" fill="#66b5e6"/>
  <path d="M90.28,27a.65.65,0,0,1-.57-.32,46.34,46.34,0,0,0-16.4-16.4A.65.65,0,0,1,74,9.16,47.67,47.67,0,0,1,90.84,26a.65.65,0,0,1-.23.89A.59.59,0,0,1,90.28,27Z" fill="#66b5e6"/>
  <path d="M9.72,27a.59.59,0,0,1-.33-.09A.65.65,0,0,1,9.16,26,47.67,47.67,0,0,1,26,9.16a.65.65,0,0,1,.66,1.13,46.34,46.34,0,0,0-16.4,16.4A.65.65,0,0,1,9.72,27Z" fill="#66b5e6"/>
  <path d="M73.64,90.93a.66.66,0,0,1-.56-.32.65.65,0,0,1,.23-.9,46.43,46.43,0,0,0,16.4-16.4.65.65,0,0,1,1.13.66A47.67,47.67,0,0,1,74,90.84.66.66,0,0,1,73.64,90.93Z" fill="#66b5e6"/>
  <path d="M26.36,90.93a.66.66,0,0,1-.33-.09A47.67,47.67,0,0,1,9.16,74a.65.65,0,0,1,1.13-.66,46.43,46.43,0,0,0,16.4,16.4.65.65,0,0,1,.23.9A.66.66,0,0,1,26.36,90.93Z" fill="#66b5e6"/>
  <path d="M92.28,44.63a72.91,72.91,0,0,0-5.59-5.23A22.41,22.41,0,0,0,84,37.65a10.57,10.57,0,0,0-1.42-.73l-1.46-.64a24.1,24.1,0,0,0-3.06-.87A21.86,21.86,0,0,0,71,35c-.54,0-1.77.3-2.32.39-.74.16-1.52.44-2.26.64s-1.49.55-2.16.88l-1.71.91c-.21.15-.75.49-1,.65l-.25.16.17-.24a12.83,12.83,0,0,0,.82-1.3l.73-1.37c.34-.67.59-1.48.89-2.17s.48-1.51.63-2.25c.09-.55.38-1.78.4-2.32s.09-1.18.12-1.57a24.92,24.92,0,0,0-.22-4,23.51,23.51,0,0,0-1.16-4.62c-.23-.5-.72-1.72-1-2.18-.38-.64-.78-1.48-1.21-2.08a24.36,24.36,0,0,0-2-2.53C56.77,9,52.91,5.29,50,2.31c-.75.74-4.56,4.6-5.37,5.41a72.91,72.91,0,0,0-5.23,5.59A22.41,22.41,0,0,0,37.65,16a10.57,10.57,0,0,0-.73,1.42l-.64,1.46a24.1,24.1,0,0,0-.87,3.06A21.86,21.86,0,0,0,35,29c0,.54.3,1.77.39,2.32.16.74.44,1.52.64,2.26s.55,1.49.88,2.16c.13.23.81,1.51.91,1.71s.49.75.65,1,.11.16.16.25l-.24-.17a12.83,12.83,0,0,0-1.3-.82L35.75,37c-.67-.34-1.48-.59-2.17-.89s-1.51-.48-2.25-.63c-.55-.09-1.78-.38-2.32-.4s-1.18-.09-1.57-.12a24.92,24.92,0,0,0-4,.22,23.51,23.51,0,0,0-4.62,1.16c-.5.23-1.72.72-2.18,1-.64.38-1.48.78-2.08,1.21a24.36,24.36,0,0,0-2.53,2C9,43.23,5.29,47.09,2.31,50c.74.75,4.6,4.56,5.41,5.37a72.91,72.91,0,0,0,5.59,5.23A22.41,22.41,0,0,0,16,62.35a10.57,10.57,0,0,0,1.42.73l1.46.64a24.1,24.1,0,0,0,3.06.87A21.86,21.86,0,0,0,29,65c.54,0,1.77-.3,2.32-.39.74-.16,1.52-.44,2.26-.64s1.49-.55,2.16-.88l1.71-.91c.21-.15.75-.49,1-.65l.25-.16-.17.24a12.83,12.83,0,0,0-.82,1.3L37,64.25c-.34.67-.59,1.47-.89,2.16s-.48,1.52-.63,2.26c-.09.55-.38,1.78-.4,2.32s-.09,1.18-.12,1.57a24.92,24.92,0,0,0,.22,4,23.51,23.51,0,0,0,1.16,4.62c.23.5.72,1.72,1,2.18.38.64.78,1.48,1.21,2.08a24.36,24.36,0,0,0,2,2.53c2.8,3.08,6.66,6.79,9.57,9.77.75-.74,4.56-4.6,5.37-5.41a72.91,72.91,0,0,0,5.23-5.59A22.41,22.41,0,0,0,62.35,84a10.57,10.57,0,0,0,.73-1.42l.64-1.46a24.1,24.1,0,0,0,.87-3.06A21.86,21.86,0,0,0,65,71c0-.54-.3-1.77-.39-2.32-.16-.74-.44-1.52-.64-2.26s-.55-1.49-.88-2.16c-.13-.23-.81-1.51-.91-1.71s-.49-.75-.65-1-.11-.16-.16-.25l.24.17a12.83,12.83,0,0,0,1.3.82l1.37.73c.67.34,1.48.59,2.17.89s1.51.48,2.25.63c.55.09,1.78.38,2.32.4s1.18.09,1.57.12a24.92,24.92,0,0,0,4-.22,23.51,23.51,0,0,0,4.62-1.16c.5-.23,1.72-.72,2.18-1,.64-.38,1.48-.78,2.08-1.21a24.36,24.36,0,0,0,2.53-2c3.08-2.8,6.79-6.66,9.77-9.57C97,49.25,93.09,45.44,92.28,44.63ZM85.83,57.28a20.57,20.57,0,0,1-21,4.3,23.3,23.3,0,0,1-7.35-4.42c-.78-.69-1.59-1.36-2.39-2h0c.67.79,1.33,1.59,2,2.37a23.39,23.39,0,0,1,4.42,7.37c.24.65.42,1.4.63,2.06s.31,1.42.4,2.11c0,.5.19,1.63.16,2.12s0,1.07,0,1.42A21.19,21.19,0,0,1,55.22,87.9C54.12,89,51.69,91.38,50,93.05c-2.31-2.3-5.32-5.19-7.28-7.22a20.57,20.57,0,0,1-4.3-21,23.3,23.3,0,0,1,4.42-7.35c.69-.79,1.36-1.59,2-2.39h0c-.79.67-1.59,1.33-2.37,2a23.39,23.39,0,0,1-7.37,4.42c-.65.24-1.4.42-2.06.63s-1.42.31-2.11.4c-.5,0-1.63.19-2.12.16l-1.42,0A21.19,21.19,0,0,1,12.1,55.22C11,54.12,8.62,51.69,7,50c2.3-2.31,5.19-5.32,7.22-7.28a20.57,20.57,0,0,1,21-4.3,23.3,23.3,0,0,1,7.35,4.42c.78.69,1.59,1.36,2.39,2h0c-.67-.79-1.33-1.59-2-2.37a23.39,23.39,0,0,1-4.42-7.37c-.24-.65-.42-1.4-.63-2.06s-.31-1.42-.4-2.11c0-.5-.19-1.63-.16-2.12s0-1.07,0-1.42A21.19,21.19,0,0,1,44.78,12.1C45.88,11,48.31,8.62,50,7c2.31,2.3,5.32,5.19,7.28,7.22a20.57,20.57,0,0,1,4.3,21,23.3,23.3,0,0,1-4.42,7.35c-.69.78-1.36,1.59-2,2.39h0c.79-.67,1.59-1.33,2.37-2a23.39,23.39,0,0,1,7.37-4.42c.65-.24,1.4-.42,2.06-.63s1.42-.31,2.11-.4c.5,0,1.63-.19,2.12-.16l1.42,0A21.19,21.19,0,0,1,87.9,44.78c1.06,1.1,3.48,3.53,5.15,5.22C90.75,52.31,87.86,55.32,85.83,57.28Z" fill="#fcc800"/>
  <g>
    <path d="M18.92,18.92V37.8a21.25,21.25,0,0,1,11-1.58,14.36,14.36,0,0,1-5.56-3.52,5.68,5.68,0,0,1,3.71-1.59,14.14,14.14,0,0,1-4.51-7.55,14.14,14.14,0,0,1,7.55,4.51,5.68,5.68,0,0,1,1.59-3.71,14.36,14.36,0,0,1,3.52,5.56,21.24,21.24,0,0,1,1.58-11Z" fill="#fcc800"/>
    <path d="M81.08,18.92H62.2a21.24,21.24,0,0,1,1.58,11,14.36,14.36,0,0,1,3.52-5.56,5.68,5.68,0,0,1,1.59,3.71,14.14,14.14,0,0,1,7.55-4.51,14.08,14.08,0,0,1-4.51,7.54,5.74,5.74,0,0,1,3.71,1.6,14.36,14.36,0,0,1-5.56,3.52,21.13,21.13,0,0,1,11,1.58Z" fill="#fcc800"/>
    <path d="M18.92,81.34V62.46a21.11,21.11,0,0,0,11,1.57,14.48,14.48,0,0,0-5.55,3.53,5.73,5.73,0,0,0,3.71,1.59,14.08,14.08,0,0,0-4.51,7.55,14,14,0,0,0,7.54-4.52,5.76,5.76,0,0,0,1.6,3.72,14.36,14.36,0,0,0,3.52-5.56,21.15,21.15,0,0,0,1.58,11Z" fill="#fcc800"/>
    <path d="M81.08,81.34H62.2a21.14,21.14,0,0,0,1.57-11A14.51,14.51,0,0,0,67.3,75.9a5.78,5.78,0,0,0,1.59-3.71,14.12,14.12,0,0,0,7.54,4.51,14,14,0,0,0-4.51-7.55,5.7,5.7,0,0,0,3.72-1.59A14.44,14.44,0,0,0,70.08,64a21.25,21.25,0,0,0,11-1.58Z" fill="#fcc800"/>
  </g>
</svg>
