<svg xmlns="http://www.w3.org/2000/svg" width="100" height="100" viewBox="0 0 100 100">
  <circle cx="50" cy="50" r="6.06" fill="#fcc800"/>
  <path d="M50,42.94a7.39,7.39,0,0,1,3.44.85,13.19,13.19,0,0,0,1.9-13.25,11.58,11.58,0,0,0-2.09,1.33A12.79,12.79,0,0,0,50,24.08a12.75,12.75,0,0,0-3.26,7.79,11.24,11.24,0,0,0-2.09-1.33h0a13.21,13.21,0,0,0,1.91,13.25A7.39,7.39,0,0,1,50,42.94Z" fill="#fcc800"/>
  <path d="M57.06,50a7.39,7.39,0,0,1-.85,3.44,13.19,13.19,0,0,0,13.25,1.9,11.16,11.16,0,0,0-1.33-2.08A12.86,12.86,0,0,0,75.92,50a12.8,12.8,0,0,0-7.79-3.26,11.16,11.16,0,0,0,1.33-2.08h0a13.19,13.19,0,0,0-13.25,1.9A7.39,7.39,0,0,1,57.06,50Z" fill="#fcc800"/>
  <path d="M50,57.06a7.39,7.39,0,0,1-3.44-.85,13.19,13.19,0,0,0-1.9,13.25,11.5,11.5,0,0,0,2.08-1.33A12.75,12.75,0,0,0,50,75.92a12.79,12.79,0,0,0,3.25-7.79,11.58,11.58,0,0,0,2.09,1.33h0a13.19,13.19,0,0,0-1.9-13.25A7.39,7.39,0,0,1,50,57.06Z" fill="#fcc800"/>
  <path d="M42.93,50a7.4,7.4,0,0,1,.86-3.44,13.2,13.2,0,0,0-13.26-1.9,10.71,10.71,0,0,0,1.34,2.08A12.91,12.91,0,0,0,24.07,50a12.86,12.86,0,0,0,7.8,3.26,10.71,10.71,0,0,0-1.34,2.08h0a13.2,13.2,0,0,0,13.26-1.9A7.4,7.4,0,0,1,42.93,50Z" fill="#fcc800"/>
  <path d="M45,45a8.11,8.11,0,0,1,1.28-1c-7.37-8.7-15.38-18.13-16.12-18.87a3.56,3.56,0,0,0-5,5c.74.74,10.17,8.75,18.87,16.12A7.57,7.57,0,0,1,45,45Z" fill="#00a29a"/>
  <path d="M55,45a7.64,7.64,0,0,1,1,1.28c8.7-7.37,18.13-15.38,18.87-16.12a3.56,3.56,0,0,0-5-5c-.74.74-8.75,10.17-16.12,18.87A7.61,7.61,0,0,1,55,45Z" fill="#00a29a"/>
  <path d="M55,55a7.61,7.61,0,0,1-1.27,1c7.37,8.7,15.38,18.13,16.12,18.87a3.56,3.56,0,0,0,5-5C74.14,69.1,64.71,61.09,56,53.72A7.64,7.64,0,0,1,55,55Z" fill="#00a29a"/>
  <path d="M45,55a7.57,7.57,0,0,1-1-1.28c-8.7,7.37-18.13,15.38-18.87,16.12a3.56,3.56,0,0,0,5,5c.74-.74,8.75-10.17,16.12-18.87A8.11,8.11,0,0,1,45,55Z" fill="#00a29a"/>
  <path d="M44.41,13.85a16.47,16.47,0,0,1-8,5.5,37.61,37.61,0,0,1-11.6,1.48c-1,0-2.54-.31-3.52-.26a1,1,0,0,0-.63.24c-.46.49-.23,2-.2,2.52a41.7,41.7,0,0,1-1,12.74,15.57,15.57,0,0,1-5.61,8.34,19,19,0,0,0,3.61-10.08,67.36,67.36,0,0,0-.07-9.53c0-.39-.09-1-.13-1.35v0a10.31,10.31,0,0,1-.09-2.21A4.1,4.1,0,0,1,21,17.32a8.57,8.57,0,0,1,2.29.15,29,29,0,0,0,3.53.31A46.81,46.81,0,0,0,37.72,17a23,23,0,0,0,6.69-3.11Z" fill="#0b318f"/>
  <path d="M86.4,44.37A16.41,16.41,0,0,1,80.7,36a37.23,37.23,0,0,1-1.44-11.79c0-.57.08-1.16.16-1.74a2.58,2.58,0,0,0-.18-1.76,2.64,2.64,0,0,0-1.77-.26,43.93,43.93,0,0,1-10.12-.19,17.1,17.1,0,0,1-9.46-3.77,16.14,16.14,0,0,1-2.34-2.41,22.72,22.72,0,0,0,5.8,2.83,23.31,23.31,0,0,0,6.22.77,68.75,68.75,0,0,0,8-.28,13.26,13.26,0,0,1,3.68-.15,4,4,0,0,1,3.45,3.58,8.49,8.49,0,0,1-.12,2.5A26.21,26.21,0,0,0,82.34,26a50.13,50.13,0,0,0,.13,6.36,26.85,26.85,0,0,0,1,6.22,24.25,24.25,0,0,0,2.91,5.77Z" fill="#0b318f"/>
  <path d="M56.29,86.65A16.49,16.49,0,0,1,64.16,81a37.43,37.43,0,0,1,11.56-1.7c1,0,2.54.26,3.53.19a1,1,0,0,0,.63-.26c.44-.49.18-2,.14-2.52a38.85,38.85,0,0,1,1.2-14.2,15.94,15.94,0,0,1,5-7,19,19,0,0,0-3.42,10.15,65.93,65.93,0,0,0,.26,9.53c0,.39.1,1,.15,1.34v0a10.1,10.1,0,0,1,.13,2.21,4.1,4.1,0,0,1-3.77,4,8.64,8.64,0,0,1-2.28-.11,29.36,29.36,0,0,0-3.54-.24,46.7,46.7,0,0,0-10.87,1,23.29,23.29,0,0,0-6.63,3.24Z" fill="#0b318f"/>
  <path d="M13.54,55.91a16.54,16.54,0,0,1,5.51,8,37.51,37.51,0,0,1,1.48,11.59c0,1-.31,2.54-.25,3.52a.93.93,0,0,0,.24.63c.48.46,2,.23,2.52.2a41.63,41.63,0,0,1,12.73,1,15.6,15.6,0,0,1,8.35,5.61A18.92,18.92,0,0,0,34,82.86a65.91,65.91,0,0,0-9.53.07c-.39,0-1,.09-1.35.13h0a10.4,10.4,0,0,1-2.22.09A4.1,4.1,0,0,1,17,79.31,9,9,0,0,1,17.17,77a29,29,0,0,0,.31-3.53,47.37,47.37,0,0,0-.82-10.89,23.07,23.07,0,0,0-3.12-6.69Z" fill="#0b318f"/>
  <path d="M5.57,9A1.65,1.65,0,1,0,3.18,11.3a12.14,12.14,0,0,1,4,7.87c.42,4.12-1.59,8.24-4.57,11.09C9.78,25.17,11.25,15.91,5.57,9Z" fill="#0b318f"/>
  <path d="M29.63,13.4a8.84,8.84,0,0,0,2.66,2.22,1.65,1.65,0,0,0,1.44-3c-2-1-3.2-2.86-2.59-5C33.31.33,42.73.87,47.42,5.42a5.18,5.18,0,0,1,1.81,3.43,1.85,1.85,0,0,0,0,.23,2.91,2.91,0,0,1,0,.51c-.24,3.34-3,3.51-4.83,1.17a.17.17,0,0,0-.29.18,4.47,4.47,0,0,0,2,2.05A2.85,2.85,0,0,0,50,11.61a3,3,0,0,0,2.3,1.65,3.92,3.92,0,0,0,3.62-2.32.17.17,0,0,0-.29-.18c-1.88,2.35-4.59,2.17-4.83-1.17a4.87,4.87,0,0,1,1.79-4.17C57.27.87,66.69.33,68.86,7.65c.63,2.18-.63,4.11-2.69,5.06a1.64,1.64,0,1,0,1.64,2.85,8.93,8.93,0,0,0,2.56-2.16C74.2,8.76,70.11,1.92,65,.48A14.54,14.54,0,0,0,51.29,4.12,6.77,6.77,0,0,0,50,5.85C47.3,1.17,40-1,35,.48S25.8,8.76,29.63,13.4Z" fill="#0b318f"/>
  <path d="M9,5.57c6.87,5.68,16.12,4.21,21.22-2.95-3,3.16-7.4,5.16-11.75,4.5A12.32,12.32,0,0,1,11.3,3.18,1.65,1.65,0,1,0,9,5.57Z" fill="#0b318f"/>
  <path d="M97.38,30.26c-3.16-3-5.16-7.4-4.5-11.75a12.32,12.32,0,0,1,3.94-7.21A1.65,1.65,0,1,0,94.43,9C88.75,15.91,90.22,25.16,97.38,30.26Z" fill="#0b318f"/>
  <path d="M95.88,51.29A6.77,6.77,0,0,0,94.15,50c4.68-2.69,6.89-10,5.37-15s-8.28-9.2-12.92-5.37a9,9,0,0,0-2.22,2.66,1.65,1.65,0,0,0,3,1.44c1-2,2.86-3.2,5-2.59,7.32,2.17,6.78,11.59,2.23,16.28a5.18,5.18,0,0,1-3.43,1.81h-.23a2.91,2.91,0,0,1-.51,0c-3.34-.24-3.51-3-1.17-4.83a.17.17,0,0,0-.18-.29,4.47,4.47,0,0,0-2,2A2.85,2.85,0,0,0,88.39,50a3,3,0,0,0-1.65,2.3,3.92,3.92,0,0,0,2.32,3.62.17.17,0,0,0,.18-.29c-2.35-1.88-2.17-4.59,1.17-4.83a4.87,4.87,0,0,1,4.17,1.79c4.55,4.69,5.09,14.11-2.23,16.28-2.18.63-4.1-.63-5.06-2.69a1.64,1.64,0,1,0-2.85,1.64,8.93,8.93,0,0,0,2.16,2.56c4.64,3.83,11.48-.26,12.92-5.37A14.54,14.54,0,0,0,95.88,51.29Z" fill="#0b318f"/>
  <path d="M94.43,91a1.65,1.65,0,1,0,2.39-2.26,12.14,12.14,0,0,1-4-7.87c-.42-4.12,1.59-8.24,4.57-11.09C90.22,74.83,88.75,84.09,94.43,91Z" fill="#0b318f"/>
  <path d="M70.37,86.6a8.84,8.84,0,0,0-2.66-2.22,1.65,1.65,0,0,0-1.44,3c2,1,3.2,2.86,2.59,5-2.17,7.32-11.59,6.78-16.28,2.23a5.18,5.18,0,0,1-1.81-3.43,1.85,1.85,0,0,0,0-.23,2.91,2.91,0,0,1,0-.51c.24-3.34,3-3.51,4.83-1.17a.17.17,0,0,0,.29-.18,4.47,4.47,0,0,0-2-2A2.85,2.85,0,0,0,50,88.39a3,3,0,0,0-2.3-1.65,3.92,3.92,0,0,0-3.62,2.32.17.17,0,0,0,.29.18c1.88-2.35,4.59-2.17,4.83,1.17a4.87,4.87,0,0,1-1.79,4.17c-4.69,4.55-14.11,5.09-16.28-2.23-.63-2.18.63-4.11,2.69-5.06a1.64,1.64,0,1,0-1.64-2.85,8.93,8.93,0,0,0-2.56,2.16c-3.83,4.64.26,11.48,5.37,12.92a14.54,14.54,0,0,0,13.71-3.64A6.77,6.77,0,0,0,50,94.15c2.69,4.68,10,6.89,15,5.37S74.2,91.24,70.37,86.6Z" fill="#0b318f"/>
  <path d="M91,94.43c-6.87-5.68-16.12-4.21-21.22,2.95,3-3.16,7.4-5.16,11.75-4.5a12.32,12.32,0,0,1,7.21,3.94A1.65,1.65,0,1,0,91,94.43Z" fill="#0b318f"/>
  <path d="M9,94.43a1.65,1.65,0,1,0,2.26,2.39,12.14,12.14,0,0,1,7.87-4c4.12-.42,8.24,1.59,11.09,4.57C25.17,90.22,15.91,88.75,9,94.43Z" fill="#0b318f"/>
  <path d="M13.4,70.37a9,9,0,0,0,2.22-2.66,1.65,1.65,0,0,0-3-1.44c-1,2-2.86,3.2-5,2.59C.33,66.69.87,57.27,5.42,52.58a5.18,5.18,0,0,1,3.43-1.81h.23a2.91,2.91,0,0,1,.51,0c3.34.24,3.51,3,1.17,4.83a.17.17,0,0,0,.18.29,4.47,4.47,0,0,0,2.05-2A2.85,2.85,0,0,0,11.61,50a3,3,0,0,0,1.65-2.3,3.92,3.92,0,0,0-2.32-3.62.17.17,0,0,0-.18.29c2.35,1.88,2.17,4.59-1.17,4.83a4.87,4.87,0,0,1-4.17-1.79C.87,42.73.33,33.31,7.65,31.14c2.18-.63,4.1.63,5.06,2.69a1.64,1.64,0,1,0,2.85-1.64,8.93,8.93,0,0,0-2.16-2.56C8.76,25.8,1.92,29.89.48,35A14.54,14.54,0,0,0,4.12,48.71,6.77,6.77,0,0,0,5.85,50C1.17,52.7-1,60,.48,65S8.76,74.2,13.4,70.37Z" fill="#0b318f"/>
  <path d="M2.62,69.74c3.16,3,5.16,7.4,4.5,11.75A12.32,12.32,0,0,1,3.18,88.7,1.65,1.65,0,1,0,5.57,91C11.25,84.09,9.78,74.84,2.62,69.74Z" fill="#0b318f"/>
  <path d="M91,5.57A1.65,1.65,0,1,0,88.7,3.18a12.14,12.14,0,0,1-7.87,4c-4.12.42-8.24-1.59-11.09-4.57C74.83,9.78,84.09,11.25,91,5.57Z" fill="#0b318f"/>
</svg>
