<svg xmlns="http://www.w3.org/2000/svg" width="200" height="200" viewBox="0 0 200 200">
  <circle cx="100" cy="100.11" r="12.1" fill="#fcc800"/>
  <path d="M100,86a14.63,14.63,0,0,1,6.87,1.71,26.4,26.4,0,0,0,3.8-26.49,22.59,22.59,0,0,0-4.17,2.67A25.58,25.58,0,0,0,100,48.32a25.53,25.53,0,0,0-6.51,15.57,21.94,21.94,0,0,0-4.17-2.67h0a26.38,26.38,0,0,0,3.81,26.49A14.6,14.6,0,0,1,100,86Z" fill="#fcc800"/>
  <path d="M114.11,100.11A14.6,14.6,0,0,1,112.4,107a26.38,26.38,0,0,0,26.48,3.8,22.59,22.59,0,0,0-2.67-4.17,25.58,25.58,0,0,0,15.58-6.5,25.6,25.6,0,0,0-15.58-6.51,21.94,21.94,0,0,0,2.67-4.17h0a26.41,26.41,0,0,0-26.48,3.81A14.6,14.6,0,0,1,114.11,100.11Z" fill="#fcc800"/>
  <path d="M100,114.22a14.64,14.64,0,0,1-6.88-1.71A26.38,26.38,0,0,0,89.32,139a21.42,21.42,0,0,0,4.17-2.66A25.53,25.53,0,0,0,100,151.9a25.58,25.58,0,0,0,6.5-15.57,22,22,0,0,0,4.17,2.66h0a26.38,26.38,0,0,0-3.8-26.48A14.63,14.63,0,0,1,100,114.22Z" fill="#fcc800"/>
  <path d="M85.88,100.11a14.72,14.72,0,0,1,1.71-6.87,26.4,26.4,0,0,0-26.48-3.81,21.94,21.94,0,0,0,2.67,4.17,25.57,25.57,0,0,0-15.57,6.51,25.5,25.5,0,0,0,15.57,6.5,22.59,22.59,0,0,0-2.67,4.17h0A26.38,26.38,0,0,0,87.59,107,14.72,14.72,0,0,1,85.88,100.11Z" fill="#fcc800"/>
  <path d="M90,90.13a14,14,0,0,1,2.55-2C77.85,70.72,61.83,51.88,60.36,50.4A7.12,7.12,0,0,0,50.29,60.47C51.76,62,70.61,78,88,92.68A14.76,14.76,0,0,1,90,90.13Z" fill="#00a29a"/>
  <path d="M110,90.13a15.19,15.19,0,0,1,2,2.55C129.39,78,148.23,62,149.7,60.47A7.12,7.12,0,0,0,139.63,50.4c-1.47,1.48-17.48,20.32-32.21,37.7A14.45,14.45,0,0,1,110,90.13Z" fill="#00a29a"/>
  <path d="M110,110.09a14.45,14.45,0,0,1-2.56,2c14.73,17.38,30.74,36.22,32.21,37.69a7.12,7.12,0,0,0,10.07-10.06c-1.47-1.48-20.31-17.49-37.7-32.21A15.19,15.19,0,0,1,110,110.09Z" fill="#00a29a"/>
  <path d="M90,110.09a14.76,14.76,0,0,1-2-2.55c-17.38,14.72-36.22,30.73-37.7,32.21a7.12,7.12,0,0,0,10.07,10.06c1.47-1.47,17.49-20.31,32.21-37.69A14,14,0,0,1,90,110.09Z" fill="#00a29a"/>
  <path d="M88.84,27.89a33.06,33.06,0,0,1-15.94,11,75,75,0,0,1-23.17,2.95c-2.07,0-5.06-.62-7-.51a1.91,1.91,0,0,0-1.26.48c-.91,1-.46,4.07-.4,5a83.39,83.39,0,0,1-2,25.44A31.19,31.19,0,0,1,27.78,89c4.09-6,7-12.83,7.21-20.15a133,133,0,0,0-.14-19c0-.78-.18-1.93-.25-2.69l0-.29,0,.35a19.39,19.39,0,0,1-.18-4.42,8.17,8.17,0,0,1,7.67-7.89,16.61,16.61,0,0,1,4.57.31,62.42,62.42,0,0,0,7.05.6c7.24.14,14.65-.06,21.75-1.62a46.73,46.73,0,0,0,13.38-6.22Z" fill="#0b318f"/>
  <path d="M172.73,88.86a32.74,32.74,0,0,1-11.4-16.69,74.49,74.49,0,0,1-2.87-23.54c0-1.14.16-2.32.32-3.48s.27-2.74-.37-3.51-2.26-.62-3.53-.53a86.48,86.48,0,0,1-20.21-.38c-6.82-.83-13.73-2.89-18.91-7.53a33.15,33.15,0,0,1-4.68-4.8,46,46,0,0,0,11.59,5.65c4.06,1.27,8.24,1.36,12.43,1.52a137.4,137.4,0,0,0,16-.55c2.5-.22,4.68-.76,7.35-.3a8,8,0,0,1,6.89,7.16,16.61,16.61,0,0,1-.24,5c-.28,1.74-.36,3.54-.47,5.32a103.93,103.93,0,0,0,.27,12.71c.38,4.19.68,8.4,2,12.43a48,48,0,0,0,5.81,11.53Z" fill="#0b318f"/>
  <path d="M112.56,173.33A33.06,33.06,0,0,1,128.28,162a75.44,75.44,0,0,1,23.11-3.4c2.07-.07,5.08.53,7,.38a1.94,1.94,0,0,0,1.26-.51c.89-1,.37-4.07.29-5-.74-9.47-.36-19.23,2.39-28.37a32.07,32.07,0,0,1,10.06-14c-4,6.1-6.76,13-6.81,20.29a131.48,131.48,0,0,0,.5,19c.06.78.22,1.92.3,2.69l0,.28,0-.35a20.21,20.21,0,0,1,.27,4.43,8.18,8.18,0,0,1-7.53,8,17,17,0,0,1-4.57-.22,60.5,60.5,0,0,0-7.06-.47c-7.24,0-14.65.34-21.72,2a46.49,46.49,0,0,0-13.25,6.47Z" fill="#0b318f"/>
  <path d="M27.17,111.92a32.92,32.92,0,0,1,11,15.93,75,75,0,0,1,3,23.17c0,2.07-.63,5.06-.51,7a1.83,1.83,0,0,0,.48,1.26c1,.91,4.06.45,5,.39a83.75,83.75,0,0,1,25.44,2A31.19,31.19,0,0,1,88.25,173c-6-4.09-12.83-7-20.15-7.2a131.53,131.53,0,0,0-19,.15c-.78,0-1.93.18-2.69.25l-.29,0,.35,0a20,20,0,0,1-4.43.18,8.18,8.18,0,0,1-7.89-7.67,17.43,17.43,0,0,1,.31-4.57,62.23,62.23,0,0,0,.61-7c.12-7.24-.07-14.66-1.64-21.76a46.29,46.29,0,0,0-6.22-13.37Z" fill="#0b318f"/>
  <path d="M11.24,18.28A3.3,3.3,0,1,0,6.46,22.8a24.14,24.14,0,0,1,8,15.72C15.31,46.76,11.3,55,5.35,60.67,19.65,50.5,22.58,32,11.24,18.28Z" fill="#0b318f"/>
  <path d="M59.3,27a17.51,17.51,0,0,0,5.32,4.44A3.29,3.29,0,0,0,67.5,25.5c-4-1.93-6.41-5.73-5.19-10C66.66.88,85.48,2,94.85,11.05a10.36,10.36,0,0,1,3.61,6.84c0,.16,0,.31,0,.46a9.27,9.27,0,0,1,0,1c-.49,6.66-5.92,7-9.66,2.33-.23-.32-.77,0-.57.36a8.91,8.91,0,0,0,4.1,4.08c3.49,1.52,6.14-.07,7.69-2.74a6.07,6.07,0,0,0,4.59,3.3c3.15.3,5.94-2.07,7.22-4.64a.34.34,0,0,0-.57-.36c-3.76,4.69-9.17,4.32-9.66-2.33-.4-3.34,1.21-6.1,3.58-8.34C114.52,2,133.34.88,137.69,15.49c1.26,4.37-1.26,8.21-5.39,10.12a3.29,3.29,0,1,0,3.28,5.7A17.62,17.62,0,0,0,140.7,27c7.64-9.25-.52-22.92-10.74-25.8-9.61-2.7-20.29.45-27.39,7.27A13.93,13.93,0,0,0,100,11.9C94.61,2.56,80-1.86,70,1.18,59.81,4.06,51.66,17.73,59.3,27Z" fill="#0b318f"/>
  <path d="M18.17,11.35c13.72,11.34,32.21,8.41,42.39-5.89-6,6.3-14.79,10.3-23.46,9A24.52,24.52,0,0,1,22.69,6.57a3.3,3.3,0,1,0-4.52,4.78Z" fill="#0b318f"/>
  <path d="M194.65,60.67c-6.3-6-10.3-14.79-9-23.46a24.52,24.52,0,0,1,7.87-14.41,3.3,3.3,0,1,0-4.78-4.52C177.42,32,180.35,50.49,194.65,60.67Z" fill="#0b318f"/>
  <path d="M191.66,102.68a13.93,13.93,0,0,0-3.45-2.59c9.34-5.37,13.76-20,10.72-29.94-2.88-10.23-16.55-18.38-25.8-10.74a17.51,17.51,0,0,0-4.44,5.32,3.29,3.29,0,0,0,5.92,2.88c1.93-4,5.73-6.41,10-5.19,14.61,4.35,13.53,23.17,4.44,32.54a10.36,10.36,0,0,1-6.85,3.61l-.45,0a9.27,9.27,0,0,1-1,0c-6.66-.49-7-5.92-2.33-9.66.32-.23,0-.77-.36-.57a8.91,8.91,0,0,0-4.08,4.1c-1.52,3.49.07,6.14,2.74,7.69a6.07,6.07,0,0,0-3.3,4.59c-.3,3.15,2.07,5.94,4.64,7.22a.34.34,0,0,0,.36-.57c-4.69-3.76-4.32-9.17,2.33-9.66,3.34-.4,6.1,1.21,8.34,3.58,9.09,9.37,10.17,28.19-4.44,32.53-4.37,1.27-8.21-1.25-10.12-5.38a3.29,3.29,0,0,0-5.7,3.28,17.62,17.62,0,0,0,4.33,5.12c9.25,7.64,22.92-.52,25.8-10.74C201.63,120.46,198.47,109.78,191.66,102.68Z" fill="#0b318f"/>
  <path d="M188.76,181.94a3.3,3.3,0,1,0,4.78-4.52,24.16,24.16,0,0,1-8-15.72c-.85-8.24,3.16-16.45,9.11-22.15C180.35,149.72,177.42,168.21,188.76,181.94Z" fill="#0b318f"/>
  <path d="M140.7,173.24a17.51,17.51,0,0,0-5.32-4.44,3.29,3.29,0,0,0-2.88,5.92c4.05,1.93,6.41,5.72,5.19,10-4.35,14.61-23.17,13.53-32.54,4.44a10.36,10.36,0,0,1-3.61-6.85c0-.15,0-.3,0-.45a9.27,9.27,0,0,1,0-1c.49-6.66,5.92-7,9.66-2.34.23.32.77,0,.57-.35a8.86,8.86,0,0,0-4.1-4.08c-3.49-1.52-6.14.07-7.69,2.74a6.07,6.07,0,0,0-4.59-3.3c-3.15-.3-5.94,2.07-7.22,4.64a.34.34,0,0,0,.57.35c3.76-4.68,9.17-4.31,9.66,2.34.4,3.34-1.21,6.1-3.58,8.34-9.37,9.08-28.19,10.17-32.54-4.44-1.26-4.37,1.26-8.21,5.39-10.12a3.29,3.29,0,1,0-3.28-5.7,17.62,17.62,0,0,0-5.12,4.33c-7.64,9.25.52,22.92,10.74,25.8,9.61,2.7,20.29-.46,27.39-7.27a13.93,13.93,0,0,0,2.59-3.45c5.37,9.34,20,13.76,29.94,10.72C140.19,196.16,148.34,182.49,140.7,173.24Z" fill="#0b318f"/>
  <path d="M181.83,188.87c-13.72-11.34-32.21-8.42-42.39,5.89,6-6.31,14.79-10.3,23.46-9a24.52,24.52,0,0,1,14.41,7.87,3.3,3.3,0,1,0,4.52-4.78Z" fill="#0b318f"/>
  <path d="M18.17,188.87a3.3,3.3,0,1,0,4.52,4.78,24.14,24.14,0,0,1,15.72-8c8.24-.85,16.45,3.16,22.15,9.11C50.39,180.46,31.9,177.52,18.17,188.87Z" fill="#0b318f"/>
  <path d="M26.87,140.81a17.51,17.51,0,0,0,4.44-5.32,3.29,3.29,0,0,0-5.92-2.88c-1.93,4-5.73,6.41-10,5.18-14.61-4.34-13.53-23.16-4.44-32.53a10.36,10.36,0,0,1,6.85-3.61l.45,0a9.27,9.27,0,0,1,1,.05c6.66.49,7,5.92,2.33,9.66-.32.23,0,.77.36.57a8.91,8.91,0,0,0,4.08-4.1c1.52-3.49-.07-6.14-2.74-7.69a6.07,6.07,0,0,0,3.3-4.59c.3-3.15-2.07-5.94-4.64-7.22a.34.34,0,0,0-.36.57c4.69,3.75,4.32,9.16-2.33,9.66-3.34.4-6.1-1.21-8.34-3.58C1.85,85.59.77,66.77,15.38,62.42c4.37-1.26,8.21,1.26,10.12,5.39a3.29,3.29,0,0,0,5.7-3.28,17.62,17.62,0,0,0-4.33-5.12C17.62,51.77,4,59.93,1.07,70.15c-2.7,9.61.46,20.29,7.27,27.39a13.93,13.93,0,0,0,3.45,2.59C2.45,105.5-2,120.16,1.07,130.07,4,140.29,17.62,148.45,26.87,140.81Z" fill="#0b318f"/>
  <path d="M5.35,139.55c6.3,6,10.3,14.79,9,23.46a24.52,24.52,0,0,1-7.87,14.41,3.3,3.3,0,1,0,4.78,4.52C22.58,168.22,19.65,149.73,5.35,139.55Z" fill="#0b318f"/>
  <path d="M181.83,11.35a3.3,3.3,0,1,0-4.52-4.78,24.14,24.14,0,0,1-15.72,8c-8.24.85-16.45-3.16-22.15-9.11C149.61,19.76,168.1,22.69,181.83,11.35Z" fill="#0b318f"/>
</svg>
