<svg xmlns="http://www.w3.org/2000/svg" width="200" height="200" viewBox="0 0 200 200">
  <g>
    <path d="M166.77,66.33a33.1,33.1,0,0,0,33.1-33.1h0A33.1,33.1,0,0,0,166.77.13h0a33.1,33.1,0,0,0-33.1,33.1V61.16H66.33V33.23A33.1,33.1,0,0,0,33.23.13h0A33.1,33.1,0,0,0,.13,33.23h0a33.1,33.1,0,0,0,33.1,33.1H61.16v67.34H33.23a33.1,33.1,0,0,0-33.1,33.1h0a33.1,33.1,0,0,0,33.1,33.1h0a33.1,33.1,0,0,0,33.1-33.1V138.84h67.34v27.93a33.1,33.1,0,0,0,33.1,33.1h0a33.1,33.1,0,0,0,33.1-33.1h0a33.1,33.1,0,0,0-33.1-33.1H138.84V66.33Zm-26.55-33.1a26.55,26.55,0,1,1,26.55,26.55H140.22ZM59.78,59.78H33.23A26.55,26.55,0,1,1,59.78,33.23Zm0,107a26.55,26.55,0,1,1-26.55-26.55H59.78Zm72.51-34.48H67.71V67.71h64.58Zm7.93,7.93h26.55a26.55,26.55,0,1,1-26.55,26.55Z" fill="#fcc800"/>
    <path d="M196.58,92.29a10.89,10.89,0,0,0-15.42,0l-6.79,6.78L100.93,25.63l6.78-6.79a10.9,10.9,0,0,0,0-15.42h0a10.91,10.91,0,0,0-15.42,0h0a10.9,10.9,0,0,0,0,15.42l6.78,6.79L25.63,99.07h0l-6.79-6.78a10.91,10.91,0,1,0,0,15.42l6.79-6.78,73.44,73.44h0l-6.78,6.79a10.9,10.9,0,0,0,0,15.42h0a10.91,10.91,0,0,0,15.42,0h0a10.9,10.9,0,0,0,0-15.42l-6.78-6.79,73.44-73.44,6.79,6.78a10.9,10.9,0,0,0,15.42-15.42ZM94.14,5.27A8.29,8.29,0,0,1,105.86,17L100,22.85,94.14,17A8.3,8.3,0,0,1,94.14,5.27ZM17,105.86a8.28,8.28,0,1,1,0-11.72L22.85,100Zm88.87,88.87A8.29,8.29,0,0,1,94.14,183l5.86-5.86,5.86,5.86A8.3,8.3,0,0,1,105.86,194.73ZM100,171.59,28.41,100,100,28.41,171.59,100Zm94.73-65.73a8.3,8.3,0,0,1-11.72,0L177.15,100,183,94.14a8.29,8.29,0,0,1,11.72,11.72Z" fill="#00a29a"/>
    <circle cx="99.94" cy="99.94" r="6.57" fill="#fcc800"/>
    <path d="M100.14,90.94a8.93,8.93,0,0,1,2.55.37c1-6.07,1.89-11.73,1.89-12.34a4.5,4.5,0,1,0-9,0c0,.61.9,6.29,1.9,12.37A9,9,0,0,1,100.14,90.94Z" fill="#fcc800"/>
    <path d="M120.82,95.73c-.61,0-6,.85-12,1.82a8.93,8.93,0,0,1,.34,2.44,9.09,9.09,0,0,1-.47,2.87c6,1,11.48,1.86,12.09,1.86a4.5,4.5,0,1,0,0-9Z" fill="#fcc800"/>
    <path d="M100.14,109a9,9,0,0,1-2.65-.4c-1,6-1.9,11.66-1.9,12.27a4.5,4.5,0,1,0,9,0c0-.61-.88-6.22-1.86-12.26A9.15,9.15,0,0,1,100.14,109Z" fill="#fcc800"/>
    <path d="M91.1,100a9.07,9.07,0,0,1,.31-2.35c-6.06-1-11.72-1.91-12.33-1.91a4.5,4.5,0,1,0,0,9c.62,0,6.37-.9,12.5-1.9A8.84,8.84,0,0,1,91.1,100Z" fill="#fcc800"/>
    <path d="M91.87,96.33a9.13,9.13,0,0,1,4.5-4.56,14.21,14.21,0,0,0-8.71-12.29,11.83,11.83,0,0,0-.57,2.61,13.76,13.76,0,0,0-8.42-3.46,13.76,13.76,0,0,0,3.46,8.42,11.83,11.83,0,0,0-2.61.57h0A14.18,14.18,0,0,0,91.87,96.33Z" fill="#fcc800"/>
    <path d="M118.05,87.05a13.81,13.81,0,0,0,3.45-8.42,13.78,13.78,0,0,0-8.42,3.46,11.83,11.83,0,0,0-.57-2.61,14.21,14.21,0,0,0-8.71,12.24,9.15,9.15,0,0,1,4.62,4.61,14.21,14.21,0,0,0,12.23-8.71h0A11.87,11.87,0,0,0,118.05,87.05Z" fill="#fcc800"/>
    <path d="M118,113a11.74,11.74,0,0,0,2.6-.57h0a14.2,14.2,0,0,0-12.2-8.71,9.13,9.13,0,0,1-4.65,4.59,14.2,14.2,0,0,0,8.71,12.26A11.74,11.74,0,0,0,113,118a13.87,13.87,0,0,0,8.43,3.46A13.87,13.87,0,0,0,118,113Z" fill="#fcc800"/>
    <path d="M91.9,103.7a14.2,14.2,0,0,0-12.32,8.71h0a11.83,11.83,0,0,0,2.61.57,13.81,13.81,0,0,0-3.46,8.43A13.84,13.84,0,0,0,87.15,118a11.74,11.74,0,0,0,.57,2.6,14.19,14.19,0,0,0,8.71-12.32A9.09,9.09,0,0,1,91.9,103.7Z" fill="#fcc800"/>
    <path d="M134.51,100a68.77,68.77,0,0,0,23.84-8c8.5-4.66,12-12.93,9.31-22.2-1.85-7.07-8.14-9.23-13.23-14.26-6.78-6.88-7.62-20.64-.75-27.73,6-5.91,19.24-4,20.71,5.15a11.68,11.68,0,0,1-5.75,11.63c3.79-3.52,5.34-10.41,1.36-14-2.58-2.28-6.95-2.34-10.09-1-5.57,2.46-5.62,10.33-4.27,15.51A12.94,12.94,0,0,0,159.06,51a61.86,61.86,0,0,0,6.41,5,22,22,0,0,1,8.31,12.08c3.14,11.89-2.08,23-13.46,27.75-8.15,3.3-17.08,5.23-25.81,4.12Z" fill="#fcc800"/>
    <path d="M179.54,90.45a19.13,19.13,0,0,1-2.61-12.17c.66-6,6-12.31,12.69-11.28,6.54.56,12.24,6.59,8.8,13a9,9,0,0,1-4.63,4.12c3.64-3.48,3.85-10.29-2.15-10.85-4.44-.38-8.23,2.18-10.15,6.25-1.42,3.07-1.9,6.93-2,10.94Z" fill="#fcc800"/>
    <path d="M134.51,100c8.73-1.11,17.66.82,25.81,4.12,11.39,4.75,16.6,15.85,13.46,27.75A22,22,0,0,1,165.47,144a61.86,61.86,0,0,0-6.41,5,12.94,12.94,0,0,0-3.42,5.93c-1.35,5.19-1.3,13.05,4.27,15.51,3.14,1.31,7.51,1.25,10.09-1,4-3.58,2.43-10.45-1.36-14A11.68,11.68,0,0,1,174.39,167c-1.48,9.16-14.66,11.06-20.71,5.15-6.87-7.08-6-20.85.75-27.73a62.23,62.23,0,0,1,7-5.66,16.1,16.1,0,0,0,6.21-8.6c2.72-9.25-.81-17.56-9.31-22.2a68.77,68.77,0,0,0-23.84-8Z" fill="#fcc800"/>
    <path d="M179.54,109.55c.05,4,.53,7.87,2,10.94,1.92,4.07,5.71,6.63,10.15,6.25,6-.56,5.79-7.37,2.14-10.85a8.94,8.94,0,0,1,4.64,4.12c3.44,6.4-2.26,12.43-8.8,13-6.67,1-12-5.33-12.69-11.28a19.13,19.13,0,0,1,2.61-12.17Z" fill="#fcc800"/>
    <path d="M65.45,100.05c-8.72,1.11-17.66-.82-25.8-4.12-11.39-4.75-16.6-15.85-13.46-27.75A22,22,0,0,1,34.5,56.1a64.09,64.09,0,0,0,6.41-5,12.94,12.94,0,0,0,3.42-5.93c1.35-5.19,1.29-13-4.28-15.51-3.14-1.31-7.5-1.25-10.08,1-4,3.58-2.44,10.45,1.35,14A11.71,11.71,0,0,1,25.57,33C27.05,23.87,40.23,22,46.29,27.88c6.86,7.09,6,20.85-.75,27.73a61.14,61.14,0,0,1-7,5.66,16,16,0,0,0-6.21,8.6c-2.73,9.25.81,17.56,9.3,22.2a68.84,68.84,0,0,0,23.84,8Z" fill="#fcc800"/>
    <path d="M20.43,90.51c-.05-4-.53-7.88-1.95-11-1.92-4.07-5.71-6.63-10.16-6.25-6,.56-5.79,7.37-2.14,10.85A9,9,0,0,1,1.54,80c-3.43-6.4,2.26-12.43,8.81-13C17,66,22.38,72.38,23,78.33a19.17,19.17,0,0,1-2.6,12.18Z" fill="#fcc800"/>
    <path d="M65.45,100.05a68.84,68.84,0,0,0-23.84,8c-8.5,4.66-12,12.93-9.3,22.2,1.84,7.07,8.13,9.23,13.23,14.26,6.77,6.88,7.62,20.64.75,27.73-6,5.91-19.24,4-20.72-5.15a11.71,11.71,0,0,1,5.75-11.63C27.53,159,26,165.85,30,169.42c2.58,2.28,6.94,2.34,10.08,1,5.57-2.46,5.63-10.33,4.28-15.51A12.94,12.94,0,0,0,40.91,149a64.09,64.09,0,0,0-6.41-5,22,22,0,0,1-8.31-12.08c-3.15-11.89,2.08-23,13.46-27.75,8.14-3.3,17.08-5.23,25.8-4.12Z" fill="#fcc800"/>
    <path d="M20.43,109.6A19.12,19.12,0,0,1,23,121.77c-.65,6-6,12.31-12.68,11.28-6.54-.56-12.24-6.59-8.81-13a9,9,0,0,1,4.64-4.12c-3.65,3.48-3.85,10.29,2.14,10.85,4.45.39,8.24-2.18,10.16-6.25,1.42-3.07,1.9-6.93,1.95-10.94Z" fill="#fcc800"/>
    <path d="M97.64,39.61,87.89,50.45a3.17,3.17,0,0,0,2.36,5.29h19.42A3.17,3.17,0,0,0,112,50.46l-9.68-10.84A3.16,3.16,0,0,0,97.64,39.61Z" fill="#0b318f"/>
    <path d="M97.62,161.43l-9.75-10.84a3.17,3.17,0,0,1,2.36-5.29h19.42a3.17,3.17,0,0,1,2.36,5.28l-9.67,10.84A3.17,3.17,0,0,1,97.62,161.43Z" fill="#0b318f"/>
  </g>
</svg>
