<svg xmlns="http://www.w3.org/2000/svg" width="200" height="200" viewBox="0 0 200 200">
  <g>
    <path d="M166.77,66.21a33.11,33.11,0,0,0,33.1-33.11h0A33.1,33.1,0,0,0,166.77,0h0a33.1,33.1,0,0,0-33.1,33.1V61H66.33V33.1A33.1,33.1,0,0,0,33.23,0h0A33.1,33.1,0,0,0,.13,33.1h0a33.11,33.11,0,0,0,33.1,33.11H61.16v67.33H33.23a33.1,33.1,0,0,0-33.1,33.1h0a33.1,33.1,0,0,0,33.1,33.1h0a33.1,33.1,0,0,0,33.1-33.1V138.71h67.34v27.93a33.1,33.1,0,0,0,33.1,33.1h0a33.1,33.1,0,0,0,33.1-33.1h0a33.1,33.1,0,0,0-33.1-33.1H138.84V66.21ZM140.22,33.1a26.55,26.55,0,1,1,26.55,26.55H140.22ZM59.78,59.65H33.23A26.55,26.55,0,1,1,59.78,33.1Zm0,107a26.55,26.55,0,1,1-26.55-26.55H59.78Zm72.51-34.48H67.71V67.59h64.58Zm7.93,7.93h26.55a26.55,26.55,0,1,1-26.55,26.55Z" fill="#fcc800"/>
    <path d="M196.58,92.16a10.91,10.91,0,0,0-15.42,0l-6.79,6.78L100.93,25.5l6.78-6.79a10.9,10.9,0,0,0,0-15.42h0a10.91,10.91,0,0,0-15.42,0h0a10.9,10.9,0,0,0,0,15.42l6.78,6.79L25.63,98.94h0l-6.79-6.79a10.91,10.91,0,1,0,0,15.42l6.79-6.78,73.44,73.44h0L92.29,181a10.9,10.9,0,0,0,0,15.42h0a10.89,10.89,0,0,0,15.42,0h0a10.9,10.9,0,0,0,0-15.42l-6.78-6.78,73.44-73.45,6.79,6.78a10.9,10.9,0,1,0,15.42-15.42ZM94.14,5.14a8.29,8.29,0,0,1,11.72,11.72L100,22.72l-5.86-5.86A8.3,8.3,0,0,1,94.14,5.14ZM17,105.73A8.28,8.28,0,1,1,17,94l5.86,5.86Zm88.87,88.87a8.29,8.29,0,0,1-11.72-11.72L100,177l5.86,5.85A8.3,8.3,0,0,1,105.86,194.6ZM100,171.46,28.41,99.87,100,28.28l71.59,71.59Zm94.73-65.73a8.28,8.28,0,0,1-11.72,0l-5.86-5.86L183,94a8.29,8.29,0,0,1,11.72,11.72Z" fill="#00a29a"/>
    <circle cx="99.94" cy="99.81" r="6.57" fill="#fcc800"/>
    <path d="M100.14,90.81a8.93,8.93,0,0,1,2.55.37c1-6.07,1.89-11.73,1.89-12.34a4.5,4.5,0,1,0-9,0c0,.62.9,6.29,1.9,12.37A9,9,0,0,1,100.14,90.81Z" fill="#fcc800"/>
    <path d="M120.82,95.6c-.61,0-6,.86-12,1.82a8.93,8.93,0,0,1,.34,2.44,9.09,9.09,0,0,1-.47,2.87c6,1,11.48,1.86,12.09,1.86a4.5,4.5,0,1,0,0-9Z" fill="#fcc800"/>
    <path d="M100.14,108.91a9,9,0,0,1-2.65-.4c-1,6-1.9,11.66-1.9,12.27a4.5,4.5,0,1,0,9,0c0-.61-.88-6.22-1.86-12.26A9.15,9.15,0,0,1,100.14,108.91Z" fill="#fcc800"/>
    <path d="M91.1,99.86a9.12,9.12,0,0,1,.31-2.35c-6.06-1-11.72-1.91-12.33-1.91a4.5,4.5,0,1,0,0,9c.62,0,6.37-.9,12.5-1.89A8.94,8.94,0,0,1,91.1,99.86Z" fill="#fcc800"/>
    <path d="M91.87,96.2a9.16,9.16,0,0,1,4.5-4.56,14.21,14.21,0,0,0-8.71-12.29A12,12,0,0,0,87.09,82a13.76,13.76,0,0,0-8.42-3.46,13.76,13.76,0,0,0,3.46,8.42,11.83,11.83,0,0,0-2.61.57h0A14.17,14.17,0,0,0,91.87,96.2Z" fill="#fcc800"/>
    <path d="M118.05,86.92a13.81,13.81,0,0,0,3.45-8.42A13.78,13.78,0,0,0,113.08,82a12,12,0,0,0-.57-2.61,14.21,14.21,0,0,0-8.71,12.24,9.15,9.15,0,0,1,4.62,4.61,14.19,14.19,0,0,0,12.23-8.71h0A11.87,11.87,0,0,0,118.05,86.92Z" fill="#fcc800"/>
    <path d="M118,112.86a11.76,11.76,0,0,0,2.6-.58h0a14.19,14.19,0,0,0-12.2-8.7,9.15,9.15,0,0,1-4.65,4.58,14.22,14.22,0,0,0,8.71,12.27,12,12,0,0,0,.57-2.61,13.87,13.87,0,0,0,8.43,3.46A13.82,13.82,0,0,0,118,112.86Z" fill="#fcc800"/>
    <path d="M91.9,103.57a14.2,14.2,0,0,0-12.32,8.71h0a11.85,11.85,0,0,0,2.61.58,13.76,13.76,0,0,0-3.46,8.42,13.84,13.84,0,0,0,8.42-3.46,12,12,0,0,0,.57,2.61,14.21,14.21,0,0,0,8.71-12.33A9.09,9.09,0,0,1,91.9,103.57Z" fill="#fcc800"/>
    <path d="M134.51,99.87a68.56,68.56,0,0,0,23.84-8c8.5-4.65,12-12.93,9.31-22.2-1.85-7.07-8.14-9.22-13.23-14.26-6.78-6.88-7.62-20.63-.75-27.73,6-5.91,19.24-4,20.71,5.15a11.68,11.68,0,0,1-5.75,11.63c3.79-3.52,5.34-10.41,1.36-14-2.58-2.29-6.95-2.35-10.09-1-5.57,2.46-5.62,10.33-4.27,15.51a12.94,12.94,0,0,0,3.42,5.93,60.53,60.53,0,0,0,6.41,5A22.07,22.07,0,0,1,173.78,68c3.14,11.89-2.08,23-13.46,27.75-8.15,3.3-17.08,5.23-25.81,4.12Z" fill="#fcc800"/>
    <path d="M179.54,90.33a19.17,19.17,0,0,1-2.61-12.18c.66-6,6-12.31,12.69-11.28,6.54.57,12.24,6.59,8.8,13A9,9,0,0,1,193.79,84c3.64-3.48,3.85-10.29-2.15-10.84-4.44-.39-8.23,2.17-10.15,6.24-1.42,3.07-1.9,6.94-2,11Z" fill="#fcc800"/>
    <path d="M134.51,99.87c8.73-1.11,17.66.83,25.81,4.12,11.39,4.75,16.6,15.85,13.46,27.75a22.06,22.06,0,0,1-8.31,12.09,61.9,61.9,0,0,0-6.41,5,12.94,12.94,0,0,0-3.42,5.93c-1.35,5.19-1.3,13.05,4.27,15.52,3.14,1.3,7.51,1.24,10.09-1,4-3.57,2.43-10.45-1.36-14a11.68,11.68,0,0,1,5.75,11.63c-1.48,9.17-14.66,11.06-20.71,5.15-6.87-7.08-6-20.85.75-27.73a62.23,62.23,0,0,1,7-5.66,16.1,16.1,0,0,0,6.21-8.6c2.72-9.25-.81-17.56-9.31-22.2a68.77,68.77,0,0,0-23.84-8Z" fill="#fcc800"/>
    <path d="M179.54,109.42c.05,4,.53,7.88,2,10.94,1.92,4.07,5.71,6.64,10.15,6.25,6-.55,5.79-7.37,2.14-10.85a8.94,8.94,0,0,1,4.64,4.12c3.44,6.4-2.26,12.43-8.8,13-6.67,1-12-5.33-12.69-11.29a19.14,19.14,0,0,1,2.61-12.17Z" fill="#fcc800"/>
    <path d="M65.45,99.92c-8.72,1.11-17.66-.82-25.8-4.12C28.26,91.05,23.05,80,26.19,68.05A22.07,22.07,0,0,1,34.5,56a62.66,62.66,0,0,0,6.41-5A12.94,12.94,0,0,0,44.33,45c1.35-5.19,1.29-13-4.28-15.51-3.14-1.31-7.5-1.25-10.08,1-4,3.57-2.44,10.45,1.35,14A11.71,11.71,0,0,1,25.57,32.9c1.48-9.16,14.66-11.06,20.72-5.15,6.86,7.09,6,20.86-.75,27.73a62.41,62.41,0,0,1-7,5.67,16,16,0,0,0-6.21,8.59c-2.73,9.25.81,17.56,9.3,22.2a68.84,68.84,0,0,0,23.84,8Z" fill="#fcc800"/>
    <path d="M20.43,90.38c-.05-4-.53-7.88-1.95-10.95-1.92-4.07-5.71-6.63-10.16-6.24-6,.55-5.79,7.36-2.14,10.84a9,9,0,0,1-4.64-4.12c-3.43-6.4,2.26-12.42,8.81-13,6.66-1,12,5.33,12.68,11.28a19.17,19.17,0,0,1-2.6,12.18Z" fill="#fcc800"/>
    <path d="M65.45,99.92a68.84,68.84,0,0,0-23.84,8c-8.5,4.66-12,12.93-9.3,22.2,1.84,7.07,8.13,9.23,13.23,14.26,6.77,6.89,7.62,20.64.75,27.73-6,5.91-19.24,4-20.72-5.15a11.71,11.71,0,0,1,5.75-11.63c-3.79,3.53-5.34,10.41-1.35,14,2.58,2.28,6.94,2.34,10.08,1,5.57-2.46,5.63-10.33,4.28-15.52a12.94,12.94,0,0,0-3.42-5.93,64.13,64.13,0,0,0-6.41-5,22.06,22.06,0,0,1-8.31-12.09C23,119.9,28.27,108.78,39.65,104c8.14-3.3,17.08-5.23,25.8-4.12Z" fill="#fcc800"/>
    <path d="M20.43,109.47A19.14,19.14,0,0,1,23,121.64c-.65,6-6,12.31-12.68,11.29-6.54-.57-12.24-6.6-8.81-13a9,9,0,0,1,4.64-4.11c-3.65,3.47-3.85,10.29,2.14,10.84,4.45.39,8.24-2.18,10.16-6.25,1.42-3.06,1.9-6.93,1.95-10.94Z" fill="#fcc800"/>
    <path d="M97.64,39.48,87.89,50.32a3.17,3.17,0,0,0,2.36,5.29h19.42A3.17,3.17,0,0,0,112,50.33l-9.68-10.84A3.17,3.17,0,0,0,97.64,39.48Z" fill="#0b318f"/>
    <path d="M97.62,161.3l-9.75-10.84a3.17,3.17,0,0,1,2.36-5.29h19.42a3.17,3.17,0,0,1,2.36,5.28l-9.67,10.84A3.16,3.16,0,0,1,97.62,161.3Z" fill="#0b318f"/>
  </g>
</svg>
