<svg xmlns="http://www.w3.org/2000/svg" width="100" height="100" viewBox="0 0 100 100">
  <g>
    <path d="M83.43,33.15A16.57,16.57,0,0,0,100,16.57h0A16.57,16.57,0,0,0,83.43,0h0A16.57,16.57,0,0,0,66.85,16.57v14H33.15v-14A16.57,16.57,0,0,0,16.57,0h0A16.57,16.57,0,0,0,0,16.57H0A16.57,16.57,0,0,0,16.57,33.15h14v33.7h-14A16.57,16.57,0,0,0,0,83.43H0A16.57,16.57,0,0,0,16.57,100h0A16.57,16.57,0,0,0,33.15,83.43v-14h33.7v14A16.57,16.57,0,0,0,83.43,100h0A16.57,16.57,0,0,0,100,83.43h0A16.57,16.57,0,0,0,83.43,66.85h-14V33.15ZM70.14,16.57A13.29,13.29,0,1,1,83.43,29.86H70.14ZM29.86,29.86H16.57A13.29,13.29,0,1,1,29.86,16.57Zm0,53.57A13.29,13.29,0,1,1,16.57,70.14H29.86Zm36.3-17.27H33.84V33.84H66.16Zm4,4H83.43A13.29,13.29,0,1,1,70.14,83.43Z" fill="#fcc800"/>
    <path d="M98.35,46.14a5.46,5.46,0,0,0-7.72,0l-3.4,3.4L50.46,12.77l3.4-3.4a5.46,5.46,0,0,0,0-7.72h0a5.46,5.46,0,0,0-7.72,0h0a5.46,5.46,0,0,0,0,7.72l3.4,3.4L12.77,49.54h0l-3.4-3.4a5.46,5.46,0,1,0,0,7.72l3.4-3.4L49.54,87.23h0l-3.4,3.4a5.46,5.46,0,0,0,0,7.72h0a5.46,5.46,0,0,0,7.72,0h0a5.46,5.46,0,0,0,0-7.72l-3.4-3.4L87.23,50.46l3.4,3.4a5.46,5.46,0,0,0,7.72-7.72ZM47.07,2.58a4.15,4.15,0,0,1,7.08,2.93,4.08,4.08,0,0,1-1.22,2.93L50,11.37,47.07,8.44A4.14,4.14,0,0,1,47.07,2.58ZM8.44,52.93a4.13,4.13,0,0,1-5.86,0,4.15,4.15,0,0,1,2.93-7.08,4.08,4.08,0,0,1,2.93,1.22L11.37,50ZM52.93,97.42a4.14,4.14,0,1,1-5.86-5.86L50,88.63l2.93,2.93A4.14,4.14,0,0,1,52.93,97.42ZM50,85.84,14.16,50,50,14.16,85.84,50ZM97.42,52.93a4.13,4.13,0,0,1-5.86,0L88.63,50l2.93-2.93a4.14,4.14,0,1,1,5.86,5.86Z" fill="#00a29a"/>
    <circle cx="49.97" cy="49.97" r="3.29" fill="#fcc800"/>
    <path d="M50.07,45.46a4.5,4.5,0,0,1,1.28.19c.49-3,.94-5.87.94-6.18a2.25,2.25,0,0,0-4.5,0c0,.31.45,3.15,1,6.19A4.51,4.51,0,0,1,50.07,45.46Z" fill="#fcc800"/>
    <path d="M60.42,47.86c-.3,0-3,.43-6,.91a4.55,4.55,0,0,1-.06,2.66c3,.49,5.74.93,6.05.93a2.25,2.25,0,0,0,0-4.5Z" fill="#fcc800"/>
    <path d="M50.07,54.52a4.51,4.51,0,0,1-1.33-.2c-.5,3-1,5.84-1,6.15a2.25,2.25,0,0,0,4.5,0c0-.3-.44-3.11-.93-6.13A4.57,4.57,0,0,1,50.07,54.52Z" fill="#fcc800"/>
    <path d="M45.54,50a4.53,4.53,0,0,1,.16-1.17c-3-.5-5.87-1-6.18-1a2.25,2.25,0,1,0,0,4.5c.31,0,3.19-.45,6.25-1A4.69,4.69,0,0,1,45.54,50Z" fill="#fcc800"/>
    <path d="M45.93,48.16a4.58,4.58,0,0,1,2.25-2.28,7.09,7.09,0,0,0-4.36-6.15,5.8,5.8,0,0,0-.28,1.3,6.91,6.91,0,0,0-4.22-1.73,6.91,6.91,0,0,0,1.73,4.22,5.8,5.8,0,0,0-1.3.28h0A7.1,7.1,0,0,0,45.93,48.16Z" fill="#fcc800"/>
    <path d="M59,43.52a7,7,0,0,0,1.74-4.22A6.91,6.91,0,0,0,56.55,41a5.82,5.82,0,0,0-.29-1.3,7.11,7.11,0,0,0-4.36,6.12,4.56,4.56,0,0,1,2.31,2.31,7.11,7.11,0,0,0,6.13-4.36h0A6,6,0,0,0,59,43.52Z" fill="#fcc800"/>
    <path d="M59,56.5a6,6,0,0,0,1.31-.29h0a7.11,7.11,0,0,0-6.11-4.36,4.51,4.51,0,0,1-2.33,2.3,7.11,7.11,0,0,0,4.36,6.14A6,6,0,0,0,56.52,59a6.92,6.92,0,0,0,4.22,1.74A6.86,6.86,0,0,0,59,56.5Z" fill="#fcc800"/>
    <path d="M46,51.85a7.1,7.1,0,0,0-6.17,4.36h0a5.82,5.82,0,0,0,1.3.29,6.91,6.91,0,0,0-1.73,4.22A6.92,6.92,0,0,0,43.57,59a6,6,0,0,0,.28,1.31,7.1,7.1,0,0,0,4.36-6.17A4.5,4.5,0,0,1,46,51.85Z" fill="#fcc800"/>
    <path d="M67.28,50a34.21,34.21,0,0,0,11.93-4,9.1,9.1,0,0,0,4.66-11.11c-.92-3.54-4.07-4.62-6.62-7.14-3.39-3.44-3.81-10.33-.38-13.88,3-3,9.63-2,10.37,2.58a5.86,5.86,0,0,1-2.87,5.82c1.89-1.76,2.67-5.21.67-7a5.07,5.07,0,0,0-5-.52c-2.79,1.23-2.82,5.17-2.14,7.77a6.36,6.36,0,0,0,1.71,3A30.39,30.39,0,0,0,82.78,28,11.14,11.14,0,0,1,86.94,34c1.57,6-1,11.53-6.74,13.9A26,26,0,0,1,67.28,50Z" fill="#fcc800"/>
    <path d="M89.82,45.22a9.57,9.57,0,0,1-1.3-6.1c.32-3,3-6.16,6.35-5.64,3.27.28,6.12,3.3,4.4,6.5A4.45,4.45,0,0,1,97,42c1.83-1.74,1.93-5.15-1.07-5.43a5.12,5.12,0,0,0-5.08,3.13,13.5,13.5,0,0,0-1,5.48Z" fill="#fcc800"/>
    <path d="M67.28,50A26,26,0,0,1,80.2,52.06,11.34,11.34,0,0,1,86.94,66,11.14,11.14,0,0,1,82.78,72a30.39,30.39,0,0,0-3.21,2.5,6.36,6.36,0,0,0-1.71,3c-.68,2.6-.65,6.53,2.14,7.77a5.07,5.07,0,0,0,5-.52c2-1.79,1.22-5.23-.67-7a5.86,5.86,0,0,1,2.87,5.82c-.74,4.59-7.34,5.54-10.37,2.58-3.43-3.55-3-10.44.38-13.88a31.29,31.29,0,0,1,3.51-2.84,8,8,0,0,0,3.11-4.3A9.09,9.09,0,0,0,79.21,54a34.21,34.21,0,0,0-11.93-4Z" fill="#fcc800"/>
    <path d="M89.82,54.78a13.5,13.5,0,0,0,1,5.48,5.12,5.12,0,0,0,5.08,3.13c3-.28,2.9-3.69,1.07-5.43A4.45,4.45,0,0,1,99.27,60c1.72,3.2-1.13,6.22-4.4,6.5-3.34.51-6-2.67-6.35-5.64a9.57,9.57,0,0,1,1.3-6.1Z" fill="#fcc800"/>
    <path d="M32.7,50A26.11,26.11,0,0,1,19.79,48a11.31,11.31,0,0,1-6.74-13.89A11,11,0,0,1,17.21,28a32.94,32.94,0,0,0,3.21-2.5,6.58,6.58,0,0,0,1.71-3C22.8,20,22.78,16,20,14.78a5,5,0,0,0-5,.52c-2,1.79-1.22,5.23.68,7a5.84,5.84,0,0,1-2.88-5.82c.74-4.59,7.34-5.53,10.37-2.57,3.44,3.54,3,10.43-.38,13.88a31.12,31.12,0,0,1-3.51,2.83,8,8,0,0,0-3.11,4.3A9.12,9.12,0,0,0,20.77,46,34.42,34.42,0,0,0,32.7,50Z" fill="#fcc800"/>
    <path d="M10.16,45.25a13.64,13.64,0,0,0-1-5.48A5.13,5.13,0,0,0,4.1,36.64c-3,.28-2.9,3.69-1.07,5.43A4.49,4.49,0,0,1,.71,40C-1,36.8,1.84,33.79,5.12,33.5c3.33-.51,6,2.67,6.35,5.65a9.59,9.59,0,0,1-1.31,6.1Z" fill="#fcc800"/>
    <path d="M32.7,50a34.26,34.26,0,0,0-11.93,4,9.11,9.11,0,0,0-4.66,11.12c.92,3.53,4.07,4.61,6.62,7.13,3.4,3.45,3.82,10.34.38,13.89-3,3-9.63,2-10.37-2.58a5.84,5.84,0,0,1,2.88-5.82c-1.9,1.76-2.68,5.21-.68,7a5,5,0,0,0,5,.52C22.78,84,22.8,80.1,22.13,77.5a6.5,6.5,0,0,0-1.71-3A31.42,31.42,0,0,0,17.21,72a11,11,0,0,1-4.16-6,11.31,11.31,0,0,1,6.74-13.89A26,26,0,0,1,32.7,50Z" fill="#fcc800"/>
    <path d="M10.16,54.8a9.59,9.59,0,0,1,1.31,6.1c-.33,3-3,6.16-6.35,5.65C1.84,66.26-1,63.25.71,60A4.49,4.49,0,0,1,3,58C1.2,59.72,1.1,63.13,4.1,63.41a5.13,5.13,0,0,0,5.09-3.13,13.64,13.64,0,0,0,1-5.48Z" fill="#fcc800"/>
    <path d="M48.82,19.76l-4.88,5.43a1.59,1.59,0,0,0,1.18,2.65h9.72A1.59,1.59,0,0,0,56,25.2l-4.85-5.43A1.58,1.58,0,0,0,48.82,19.76Z" fill="#0b318f"/>
    <path d="M48.81,80.75l-4.88-5.42a1.59,1.59,0,0,1,1.18-2.65h9.72A1.58,1.58,0,0,1,56,75.32l-4.84,5.43A1.57,1.57,0,0,1,48.81,80.75Z" fill="#0b318f"/>
  </g>
</svg>
