<svg xmlns="http://www.w3.org/2000/svg" width="100" height="100" viewBox="0 0 100 100">
  <path d="M41.13,70.23A23.76,23.76,0,0,1,38,64.94a18.8,18.8,0,0,1,24.1,0,24,24,0,0,1-5,7.4l-7,7-7-7A23.13,23.13,0,0,1,41.13,70.23Z" fill="#0b318f"/>
  <path d="M68.29,31.94a4.23,4.23,0,0,0-1.94-.3,11.06,11.06,0,0,0-.45-2.47,1.09,1.09,0,0,0-.07-.24h0s0-.09,0-.14A1.84,1.84,0,0,0,65,27.9,11.14,11.14,0,0,0,65.43,26a1.75,1.75,0,0,0,0-.24h0s0-.09,0-.15a1.86,1.86,0,0,0-1.83-1.89,2,2,0,0,0-.77.16h0a10.46,10.46,0,0,0-2.28,1.24,11,11,0,0,0,.09-2.57,1.94,1.94,0,0,0,0-.24v0h0c0-.05,0-.1,0-.15A1.82,1.82,0,0,0,59.89,21a12.16,12.16,0,0,0,.68-2.75,2.66,2.66,0,0,0,0-.28v0h0c0-.06,0-.12,0-.17a2.14,2.14,0,0,0-2.12-2.16,2,2,0,0,0-.88.18h0A12.66,12.66,0,0,0,55.32,17c0-.29,0-.57,0-.86a5.34,5.34,0,0,0-10.68,0c0,.28,0,.57,0,.85a12.46,12.46,0,0,0-2.32-1.28h0a2.17,2.17,0,0,0-.88-.19,2.13,2.13,0,0,0-2.14,2.13.88.88,0,0,0,0,.17h0v0a2.51,2.51,0,0,0,0,.27A12.43,12.43,0,0,0,40.05,21a1.83,1.83,0,0,0-.67,1.08c0,.05,0,.1,0,.15h0v0a1.94,1.94,0,0,0,0,.24,11,11,0,0,0,.09,2.57,10.46,10.46,0,0,0-2.28-1.24h0a2,2,0,0,0-.77-.16,1.86,1.86,0,0,0-1.83,1.89c0,.06,0,.1,0,.15h0a1.75,1.75,0,0,0,0,.24A11.14,11.14,0,0,0,35,27.9a1.84,1.84,0,0,0-.78.87c0,.05,0,.1,0,.14h0a1.09,1.09,0,0,0-.07.24,11.06,11.06,0,0,0-.45,2.47,4.22,4.22,0,0,0-4.24,5.81,14.48,14.48,0,0,0,6,6.89,28,28,0,0,1,5-8.49,10.3,10.3,0,0,0-.12-1.66,9.88,9.88,0,0,0,1.15.52c.15-.14.28-.3.43-.44L47.07,29c0-.27-.06-.53-.1-.8l.65.25L50,26.1l2.35,2.35c.24-.08.46-.17.69-.26,0,.27-.08.56-.11.84l5.24,5.24c.15.14.28.3.43.44a9.88,9.88,0,0,0,1.15-.52,11.59,11.59,0,0,0-.12,1.66,28,28,0,0,1,5,8.49,14.48,14.48,0,0,0,6-6.89A4.22,4.22,0,0,0,68.29,31.94Z" fill="#fcc800"/>
  <path d="M49.92,90.24a1.09,1.09,0,0,0,.08.15c0-.1-.07-.2-.11-.3a8.3,8.3,0,0,0-1.39-3.52A32.41,32.41,0,0,0,36.59,72.92C28.75,68.07,17,64.11,9.28,71.14,6,74.05,3.67,78.53,4.47,83c.79,4,3.72,7.78,7.88,8.58,5.62,1.22,11.72-2.81,11.73-8.78,0-1.61,0-4.84-2.41-4.36a1.65,1.65,0,0,0-1.18,2,7.34,7.34,0,0,1,.24,2.23c-.05,3.87-4.09,6.27-7.68,5.49-2.77-.5-4.63-3.16-5.23-5.81a8.19,8.19,0,0,1,.76-5,11.86,11.86,0,0,1,8.48-6.78A7.67,7.67,0,0,0,14.49,75l-.31,1.61,1.62.31a7.65,7.65,0,0,0,9-6.08V70.8A38.63,38.63,0,0,1,35.4,74.91c.79.44,1.55.9,2.29,1.4a6.26,6.26,0,0,0-4.18.84l-1.15.7.7,1.16a6.31,6.31,0,0,0,8.66,2.13l1.05-.63A36.37,36.37,0,0,1,46,84.24,8.32,8.32,0,0,0,41.6,83h0a8.38,8.38,0,0,0,2,5.44,10.19,10.19,0,0,0-8.09,3h0a10.24,10.24,0,0,0,14.48,0h0A8.32,8.32,0,0,0,49.92,90.24Z" fill="#fcc800"/>
  <path d="M90.72,71.14c-7.76-7-19.47-3.07-27.31,1.78A32.41,32.41,0,0,0,51.5,86.57a8.31,8.31,0,0,0-1.39,3.51c0,.11-.08.21-.11.31a1.09,1.09,0,0,0,.08-.15A8.32,8.32,0,0,0,50,91.36h0a10.24,10.24,0,0,0,14.48,0h0a10.19,10.19,0,0,0-8.09-3,8.38,8.38,0,0,0,2-5.44h0A8.32,8.32,0,0,0,54,84.24a36.37,36.37,0,0,1,3.27-3.73l1.05.63A6.31,6.31,0,0,0,66.94,79l.7-1.16-1.15-.7a6.26,6.26,0,0,0-4.18-.84c.74-.5,1.5-1,2.29-1.4A38.63,38.63,0,0,1,75.23,70.8v.06a7.65,7.65,0,0,0,9,6.08l1.62-.31L85.51,75a7.67,7.67,0,0,0-2.57-4.39,11.86,11.86,0,0,1,8.48,6.78A7.61,7.61,0,0,1,91.65,84a6.52,6.52,0,0,1-9,3.71,6,6,0,0,1-3.16-7.21,1.64,1.64,0,0,0-3.16-.89,10.6,10.6,0,0,0-.42,3.22c0,6,6.11,10,11.73,8.78,4.41-.86,7.53-5.09,8-9.41S93.78,73.87,90.72,71.14Z" fill="#fcc800"/>
  <path d="M57,38.4l-7-7-7,7a23.93,23.93,0,0,0-6.85,19.81,25.24,25.24,0,0,1,27.7,0A23.93,23.93,0,0,0,57,38.4Z" fill="#fcc800"/>
  <path d="M59.9,34.06c-2-2.12-6.68-7-8.74-9.13L50,23.73l-1.16,1.2c-2,2.14-6.81,7-8.74,9.13a29.17,29.17,0,0,0-7.46,20A28.74,28.74,0,0,0,40.7,73.53c2.06,2.09,7.09,6.75,9.3,8.85,2.17-2.07,7.26-6.77,9.3-8.85a28.74,28.74,0,0,0,8.06-19.46A29.17,29.17,0,0,0,59.9,34.06ZM58.46,72.74c-1.9,2-6.48,6.87-8.46,9-1.94-2.08-6.58-7-8.46-9a27.23,27.23,0,0,1-6.93-18.67A26.83,26.83,0,0,1,42.14,36c1.69-1.69,5.46-5.28,7.86-7.58,2.39,2.29,6.19,5.9,7.86,7.58a26.83,26.83,0,0,1,7.53,18.11A27.23,27.23,0,0,1,58.46,72.74Z" fill="#66b5e6"/>
  <path d="M33,63.18a26.56,26.56,0,0,0-2.58-8.92,19.59,19.59,0,0,0-6.07-7.18c-2.82-2-6.14-3-8.95-4.9a23,23,0,0,1-7.49-9c-1.12-2.42-1.76-5.26-.67-7.72C8.89,21.77,12.7,20,15.81,23c1.52,1.73.13,4.15-1.77,5A1.64,1.64,0,1,0,15.47,31a7.46,7.46,0,0,0,3.79-4.19c1.48-4.2-2.1-7.81-6.14-8.17-5.65-.58-9.83,5.8-8.9,10.94a16.44,16.44,0,0,0,1.31,4.22,7.61,7.61,0,0,0-3.92-.32L0,33.74l.29,1.62a7.67,7.67,0,0,0,6,6.12,7.56,7.56,0,0,0-2.78,1.89L2.34,44.58l1.2,1.11a7.66,7.66,0,0,0,10.83-.39l.76-.83C17.86,46,21,47,23.34,48.6c4.91,3.28,7.55,9,8.34,14.76a.7.7,0,0,0,.76.58A.68.68,0,0,0,33,63.18Z" fill="#fcc800"/>
  <path d="M43.31,15A25.55,25.55,0,0,0,30.39,7.58a23.61,23.61,0,0,0-5.93-.47A12.41,12.41,0,0,0,18.9,8.17a4.67,4.67,0,0,0-1.62,6.42c1.51,2.23,5.25,2.35,6.3-.33a4.64,4.64,0,0,0,.31-1,1.65,1.65,0,0,1,3.26.47,7.38,7.38,0,0,1-.72,2c-3.17,6.13-12.5,3.39-12.07-3.39.24-4,3.14-6.34,7-6.57a28.16,28.16,0,0,1,9.33.87A26.1,26.1,0,0,1,43.31,15Z" fill="#fcc800"/>
  <path d="M99.71,35.36l.29-1.62-1.61-.29a7.61,7.61,0,0,0-3.92.32,16.44,16.44,0,0,0,1.31-4.22c.93-5.14-3.25-11.51-8.9-10.94-4,.37-7.61,4-6.14,8.17A7.46,7.46,0,0,0,84.53,31,1.64,1.64,0,1,0,86,28a3.74,3.74,0,0,1-2.38-3.71c.29-1.61,2-2.55,3.64-2.79,2.51-.35,4.54,1.78,5.51,3.93,2.43,5.51-3.68,13.77-8.16,16.73-2.81,1.91-6.13,2.9-8.95,4.9-5.21,3.65-8,10-8.65,16.1a.68.68,0,0,0,1.35.18A25,25,0,0,1,71,55a17.88,17.88,0,0,1,5.69-6.4C79,47,82.14,46,84.87,44.47l.76.83a7.66,7.66,0,0,0,10.83.39l1.2-1.11-1.12-1.21a7.56,7.56,0,0,0-2.78-1.89A7.67,7.67,0,0,0,99.71,35.36Z" fill="#fcc800"/>
  <path d="M56.69,15A26.1,26.1,0,0,1,69.36,6.58a28.16,28.16,0,0,1,9.33-.87c3.81.23,6.71,2.59,7,6.57.43,6.78-8.9,9.52-12.07,3.39a7.51,7.51,0,0,1-.69-1.86,1.65,1.65,0,1,1,3.21-.73,4.86,4.86,0,0,0,.33,1.18c1,2.68,4.8,2.56,6.3.33A4.67,4.67,0,0,0,81.1,8.17a12.41,12.41,0,0,0-5.56-1.06,23.61,23.61,0,0,0-5.93.47A25.55,25.55,0,0,0,56.69,15Z" fill="#fcc800"/>
</svg>
