<svg xmlns="http://www.w3.org/2000/svg" width="200" height="200" viewBox="0 0 200 200">
  <g>
    <circle cx="100" cy="100" r="12.1" fill="#fcc800"/>
    <path d="M100,85.89a14.63,14.63,0,0,1,6.87,1.71,26.38,26.38,0,0,0,3.8-26.48,22,22,0,0,0-4.17,2.66A25.58,25.58,0,0,0,100,48.21a25.53,25.53,0,0,0-6.51,15.57,21.42,21.42,0,0,0-4.17-2.66h0A26.38,26.38,0,0,0,93.13,87.6,14.6,14.6,0,0,1,100,85.89Z" fill="#fcc800"/>
    <path d="M114.11,100a14.6,14.6,0,0,1-1.71,6.87,26.38,26.38,0,0,0,26.48,3.8,22.59,22.59,0,0,0-2.67-4.17,25.53,25.53,0,0,0,15.58-6.5,25.6,25.6,0,0,0-15.58-6.51,22.18,22.18,0,0,0,2.67-4.16h0a26.38,26.38,0,0,0-26.48,3.8A14.6,14.6,0,0,1,114.11,100Z" fill="#fcc800"/>
    <path d="M100,114.11a14.64,14.64,0,0,1-6.88-1.71,26.38,26.38,0,0,0-3.8,26.48,21.42,21.42,0,0,0,4.17-2.66A25.53,25.53,0,0,0,100,151.79a25.58,25.58,0,0,0,6.5-15.57,22,22,0,0,0,4.17,2.66h0a26.4,26.4,0,0,0-3.8-26.49A14.63,14.63,0,0,1,100,114.11Z" fill="#fcc800"/>
    <path d="M85.88,100a14.72,14.72,0,0,1,1.71-6.87,26.38,26.38,0,0,0-26.48-3.8,22.59,22.59,0,0,0,2.67,4.17A25.5,25.5,0,0,0,48.21,100a25.57,25.57,0,0,0,15.57,6.51,22.18,22.18,0,0,0-2.67,4.16h0a26.38,26.38,0,0,0,26.48-3.8A14.72,14.72,0,0,1,85.88,100Z" fill="#fcc800"/>
    <path d="M90,90a14,14,0,0,1,2.55-2C77.85,70.61,61.83,51.77,60.36,50.29A7.12,7.12,0,0,0,50.29,60.36C51.76,61.84,70.61,77.85,88,92.57A14.76,14.76,0,0,1,90,90Z" fill="#00a29a"/>
    <path d="M110,90a15.19,15.19,0,0,1,2,2.55c17.39-14.72,36.23-30.73,37.7-32.21a7.12,7.12,0,0,0-10.07-10.07c-1.47,1.48-17.48,20.32-32.21,37.7A14.45,14.45,0,0,1,110,90Z" fill="#00a29a"/>
    <path d="M110,110a14.45,14.45,0,0,1-2.56,2c14.73,17.38,30.74,36.22,32.21,37.7a7.12,7.12,0,0,0,10.07-10.07c-1.47-1.48-20.31-17.49-37.7-32.21A15.19,15.19,0,0,1,110,110Z" fill="#00a29a"/>
    <path d="M90,110a14.76,14.76,0,0,1-2-2.55c-17.38,14.72-36.22,30.73-37.7,32.21a7.12,7.12,0,0,0,10.07,10.07c1.47-1.48,17.49-20.32,32.21-37.7A14,14,0,0,1,90,110Z" fill="#00a29a"/>
    <path d="M88.84,27.78a33,33,0,0,1-15.94,11,75.3,75.3,0,0,1-23.17,3c-2.07,0-5.06-.63-7-.52a1.91,1.91,0,0,0-1.26.48c-.91,1-.46,4.07-.4,5a83.39,83.39,0,0,1-2,25.44A31.19,31.19,0,0,1,27.78,88.84c4.09-6,7-12.83,7.21-20.15a133,133,0,0,0-.14-19c0-.78-.18-1.93-.25-2.69l0-.28,0,.34a19.39,19.39,0,0,1-.18-4.42,8.17,8.17,0,0,1,7.67-7.89,17,17,0,0,1,4.57.31,62.42,62.42,0,0,0,7.05.6c7.24.14,14.65-.06,21.75-1.62a46.73,46.73,0,0,0,13.38-6.22Z" fill="#0b318f"/>
    <path d="M172.73,88.76a32.81,32.81,0,0,1-11.4-16.7,74.49,74.49,0,0,1-2.87-23.54c0-1.14.16-2.32.32-3.47s.27-2.75-.37-3.52-2.26-.62-3.53-.53a86.48,86.48,0,0,1-20.21-.38c-6.82-.83-13.73-2.89-18.91-7.53a33.15,33.15,0,0,1-4.68-4.8,46,46,0,0,0,11.59,5.65c4.06,1.27,8.24,1.36,12.43,1.52a137.4,137.4,0,0,0,16-.55c2.5-.22,4.68-.76,7.35-.3a8,8,0,0,1,6.89,7.16,16.61,16.61,0,0,1-.24,5c-.28,1.74-.36,3.55-.47,5.32a103.93,103.93,0,0,0,.27,12.71c.38,4.19.68,8.4,2,12.43a48.27,48.27,0,0,0,5.81,11.54Z" fill="#0b318f"/>
    <path d="M112.56,173.23a33,33,0,0,1,15.72-11.3,75.44,75.44,0,0,1,23.11-3.4c2.07-.06,5.08.53,7,.38a2,2,0,0,0,1.26-.5c.89-1,.37-4.08.29-5-.74-9.47-.36-19.23,2.39-28.37a32,32,0,0,1,10.06-14c-4,6.09-6.76,12.95-6.81,20.28a131.48,131.48,0,0,0,.5,19c.06.78.22,1.92.3,2.69l0,.28,0-.34a20.08,20.08,0,0,1,.27,4.42,8.18,8.18,0,0,1-7.53,8,17,17,0,0,1-4.57-.22,60.5,60.5,0,0,0-7.06-.47c-7.24,0-14.65.34-21.72,2a46.26,46.26,0,0,0-13.25,6.48Z" fill="#0b318f"/>
    <path d="M27.17,111.81a32.92,32.92,0,0,1,11,15.93,75,75,0,0,1,3,23.17c0,2.07-.63,5.06-.51,7a1.83,1.83,0,0,0,.48,1.26c1,.91,4.06.46,5,.39a83.44,83.44,0,0,1,25.44,2,31.12,31.12,0,0,1,16.68,11.2c-6-4.09-12.83-7-20.15-7.2a131.53,131.53,0,0,0-19,.15c-.78,0-1.93.18-2.69.25l-.29,0,.35,0a20,20,0,0,1-4.43.18,8.17,8.17,0,0,1-7.89-7.67,17.46,17.46,0,0,1,.31-4.57,62.23,62.23,0,0,0,.61-7c.12-7.24-.07-14.66-1.64-21.76a46.29,46.29,0,0,0-6.22-13.37Z" fill="#0b318f"/>
    <path d="M11.24,18.17a3.3,3.3,0,1,0-4.78,4.52,24.16,24.16,0,0,1,8,15.72c.85,8.24-3.16,16.45-9.11,22.15C19.65,50.39,22.58,31.9,11.24,18.17Z" fill="#0b318f"/>
    <path d="M59.3,26.87a17.51,17.51,0,0,0,5.32,4.44,3.29,3.29,0,0,0,2.88-5.92c-4-1.93-6.41-5.73-5.19-10C66.66.77,85.48,1.85,94.85,10.94a10.36,10.36,0,0,1,3.61,6.85c0,.15,0,.3,0,.45a9.27,9.27,0,0,1,0,1c-.49,6.66-5.92,7-9.66,2.33-.23-.32-.77,0-.57.36a8.91,8.91,0,0,0,4.1,4.08c3.49,1.52,6.14-.07,7.69-2.74a6.07,6.07,0,0,0,4.59,3.3c3.15.3,5.94-2.07,7.22-4.64a.34.34,0,0,0-.57-.36c-3.76,4.69-9.17,4.32-9.66-2.33-.4-3.34,1.21-6.1,3.58-8.34,9.37-9.09,28.19-10.17,32.54,4.44,1.26,4.37-1.26,8.21-5.39,10.12a3.29,3.29,0,1,0,3.28,5.7,17.62,17.62,0,0,0,5.12-4.33C148.34,17.62,140.18,4,130,1.07c-9.61-2.7-20.29.46-27.39,7.27A13.93,13.93,0,0,0,100,11.79C94.61,2.45,80-2,70,1.07,59.81,4,51.66,17.62,59.3,26.87Z" fill="#0b318f"/>
    <path d="M18.17,11.24c13.72,11.34,32.21,8.41,42.39-5.89-6,6.3-14.79,10.3-23.46,9A24.52,24.52,0,0,1,22.69,6.46a3.3,3.3,0,1,0-4.52,4.78Z" fill="#0b318f"/>
    <path d="M194.65,60.56c-6.3-6-10.3-14.79-9-23.46a24.52,24.52,0,0,1,7.87-14.41,3.3,3.3,0,1,0-4.78-4.52C177.42,31.89,180.35,50.38,194.65,60.56Z" fill="#0b318f"/>
    <path d="M191.66,102.57a13.93,13.93,0,0,0-3.45-2.59C197.55,94.61,202,80,198.93,70c-2.88-10.23-16.55-18.38-25.8-10.74a17.51,17.51,0,0,0-4.44,5.32,3.29,3.29,0,0,0,5.92,2.88c1.93-4,5.73-6.41,10-5.19,14.61,4.35,13.53,23.17,4.44,32.54a10.36,10.36,0,0,1-6.85,3.61l-.45,0a9.27,9.27,0,0,1-1,0c-6.66-.49-7-5.92-2.33-9.66.32-.23,0-.77-.36-.57A8.91,8.91,0,0,0,174,92.3c-1.52,3.49.07,6.14,2.74,7.69a6.07,6.07,0,0,0-3.3,4.59c-.3,3.15,2.07,5.94,4.64,7.22a.34.34,0,0,0,.36-.57c-4.69-3.76-4.32-9.17,2.33-9.66,3.34-.4,6.1,1.21,8.34,3.58,9.09,9.37,10.17,28.19-4.44,32.54-4.37,1.26-8.21-1.26-10.12-5.39a3.29,3.29,0,0,0-5.7,3.28,17.62,17.62,0,0,0,4.33,5.12c9.25,7.64,22.92-.52,25.8-10.74C201.63,120.35,198.47,109.67,191.66,102.57Z" fill="#0b318f"/>
    <path d="M188.76,181.83a3.3,3.3,0,1,0,4.78-4.52,24.16,24.16,0,0,1-8-15.72c-.85-8.24,3.16-16.45,9.11-22.15C180.35,149.61,177.42,168.1,188.76,181.83Z" fill="#0b318f"/>
    <path d="M140.7,173.13a17.51,17.51,0,0,0-5.32-4.44,3.29,3.29,0,1,0-2.88,5.92c4.05,1.93,6.41,5.73,5.19,10-4.35,14.61-23.17,13.53-32.54,4.44a10.36,10.36,0,0,1-3.61-6.85c0-.15,0-.3,0-.45a9.27,9.27,0,0,1,0-1c.49-6.66,5.92-7,9.66-2.33.23.32.77,0,.57-.36a8.91,8.91,0,0,0-4.1-4.08c-3.49-1.52-6.14.07-7.69,2.74a6.07,6.07,0,0,0-4.59-3.3c-3.15-.3-5.94,2.07-7.22,4.64a.34.34,0,0,0,.57.36c3.76-4.69,9.17-4.32,9.66,2.33.4,3.34-1.21,6.1-3.58,8.34-9.37,9.08-28.19,10.17-32.54-4.44-1.26-4.37,1.26-8.21,5.39-10.12a3.29,3.29,0,1,0-3.28-5.7,17.62,17.62,0,0,0-5.12,4.33c-7.64,9.25.52,22.92,10.74,25.8,9.61,2.7,20.29-.46,27.39-7.27a13.93,13.93,0,0,0,2.59-3.45c5.37,9.34,20,13.76,29.94,10.72C140.19,196.05,148.34,182.38,140.7,173.13Z" fill="#0b318f"/>
    <path d="M181.83,188.76c-13.72-11.34-32.21-8.41-42.39,5.89,6-6.3,14.79-10.3,23.46-9a24.52,24.52,0,0,1,14.41,7.87,3.3,3.3,0,1,0,4.52-4.78Z" fill="#0b318f"/>
    <path d="M18.17,188.76a3.3,3.3,0,1,0,4.52,4.78,24.14,24.14,0,0,1,15.72-8c8.24-.85,16.45,3.16,22.15,9.11C50.39,180.35,31.9,177.42,18.17,188.76Z" fill="#0b318f"/>
    <path d="M26.87,140.7a17.51,17.51,0,0,0,4.44-5.32,3.29,3.29,0,0,0-5.92-2.88c-1.93,4.05-5.73,6.41-10,5.19-14.61-4.35-13.53-23.17-4.44-32.54a10.36,10.36,0,0,1,6.85-3.61l.45,0a9.27,9.27,0,0,1,1,0c6.66.49,7,5.92,2.33,9.66-.32.23,0,.77.36.57a8.91,8.91,0,0,0,4.08-4.1c1.52-3.49-.07-6.14-2.74-7.69a6.07,6.07,0,0,0,3.3-4.59c.3-3.15-2.07-5.94-4.64-7.22a.34.34,0,0,0-.36.57c4.69,3.76,4.32,9.17-2.33,9.66-3.34.4-6.1-1.21-8.34-3.58C1.85,85.48.77,66.66,15.38,62.31c4.37-1.26,8.21,1.26,10.12,5.39a3.29,3.29,0,0,0,5.7-3.28,17.62,17.62,0,0,0-4.33-5.12C17.62,51.66,4,59.82,1.07,70c-2.7,9.61.46,20.29,7.27,27.39A13.93,13.93,0,0,0,11.79,100C2.45,105.39-2,120.05,1.07,130,4,140.19,17.62,148.34,26.87,140.7Z" fill="#0b318f"/>
    <path d="M5.35,139.44c6.3,6,10.3,14.79,9,23.46a24.52,24.52,0,0,1-7.87,14.41,3.3,3.3,0,1,0,4.78,4.52C22.58,168.11,19.65,149.62,5.35,139.44Z" fill="#0b318f"/>
    <path d="M181.83,11.24a3.3,3.3,0,1,0-4.52-4.78,24.14,24.14,0,0,1-15.72,8c-8.24.85-16.45-3.16-22.15-9.11C149.61,19.65,168.1,22.58,181.83,11.24Z" fill="#0b318f"/>
  </g>
</svg>
