<svg xmlns="http://www.w3.org/2000/svg" width="200" height="200" viewBox="0 0 200 200">
  <g>
    <path d="M92.92,87.06C87,78.88,81.48,71.22,80.77,70.51A7.28,7.28,0,0,0,70.48,80.8c.71.71,8.37,6.27,16.56,12.15A14.81,14.81,0,0,1,92.92,87.06Z" fill="#fcc800"/>
    <circle cx="99.96" cy="99.98" r="12.1" fill="#fcc800"/>
    <path d="M49.77,49.91s.06,0,0,0c-3.21-3.65-3.34-8.56-.32-11.59l.13-.1A11.17,11.17,0,0,0,42,34.12l-8.6-.65.72,9.5a11.06,11.06,0,0,0,3.56,7.13.93.93,0,0,0,.13-.15A8.82,8.82,0,0,1,49.77,49.91Z" fill="#fcc800"/>
    <path d="M150.12,49.9s0,.05,0,0c3.65-3.21,8.57-3.32,11.59-.3l.1.12a11.1,11.1,0,0,0,4.08-7.58l.67-8.6-9.5.7A11,11,0,0,0,150,37.82l.15.13A8.82,8.82,0,0,1,150.12,49.9Z" fill="#fcc800"/>
    <path d="M149.94,150.25s-.05,0,0,0c3.2,3.66,3.31,8.58.27,11.59l-.12.11a11.11,11.11,0,0,0,7.58,4.09l8.6.69-.69-9.5a11,11,0,0,0-3.53-7.15l-.13.15A8.81,8.81,0,0,1,149.94,150.25Z" fill="#fcc800"/>
    <path d="M49.91,150.18s0-.05,0,0c-3.64,3.22-8.56,3.35-11.58.33l-.11-.12A11.09,11.09,0,0,0,34.12,158l-.65,8.6,9.49-.72a11.06,11.06,0,0,0,7.14-3.56l-.15-.14A8.82,8.82,0,0,1,49.91,150.18Z" fill="#fcc800"/>
    <circle cx="20.63" cy="20.74" r="4.18" fill="#fcc800"/>
    <circle cx="16.3" cy="62.49" r="4.18" fill="#fcc800"/>
    <circle cx="62.47" cy="16.15" r="4.18" fill="#fcc800"/>
    <path d="M12,74A12.33,12.33,0,0,1,1.17,67.25,12.62,12.62,0,0,1,3.54,53.06,9.45,9.45,0,0,1,9,50.45c1.36-.27,2-.43,2.55-1.22.93-1.4.18-3.22-1.13-6.07C8.92,40,7.11,36,8.6,31.57a16,16,0,0,1,2.2-4.06c1-1.5,1.79-2.59,1.53-4.28a7.38,7.38,0,0,0-.57-1.78,14.49,14.49,0,0,1-1-3.51,16.86,16.86,0,0,1,.13-6l.17-.86.87-.17a16.8,16.8,0,0,1,5.95-.13,14.21,14.21,0,0,1,3.51,1,7.59,7.59,0,0,0,1.79.57c1.69.26,2.77-.49,4.28-1.53a15.21,15.21,0,0,1,4.05-2.2c4.46-1.49,8.42.32,11.59,1.78,2.86,1.31,4.68,2.06,6.08,1.13.78-.52.94-1.2,1.21-2.56A9.47,9.47,0,0,1,53,3.65,12.59,12.59,0,0,1,67.14,1.28a12.19,12.19,0,0,1,6.58,13,11.67,11.67,0,0,1-3.62,6.28,1.32,1.32,0,0,1-1.79-1.94,9,9,0,0,0,2.83-4.84A9.66,9.66,0,0,0,66,3.63,10,10,0,0,0,54.82,5.51a6.94,6.94,0,0,0-1.9,4.06c-.28,1.45-.61,3.09-2.34,4.24-2.69,1.79-5.71.4-8.62-.93S35.77,10,32.3,11.2a13.33,13.33,0,0,0-3.4,1.87c-1.69,1.18-3.45,2.39-6.18,2a9.91,9.91,0,0,1-2.39-.74,11.22,11.22,0,0,0-2.92-.88,14,14,0,0,0-4.14,0,14,14,0,0,0,0,4.14,11.62,11.62,0,0,0,.88,2.92,9.91,9.91,0,0,1,.74,2.39c.42,2.73-.79,4.48-2,6.18A13,13,0,0,0,11.1,32.4c-1.16,3.48.28,6.62,1.67,9.66s2.72,5.94.93,8.63c-1.14,1.73-2.78,2.05-4.23,2.34a7,7,0,0,0-4.07,1.9A10,10,0,0,0,3.53,66.08a9.65,9.65,0,0,0,10.1,5.17,9.1,9.1,0,0,0,4.84-2.83,1.32,1.32,0,1,1,1.94,1.78,11.62,11.62,0,0,1-6.27,3.63A11.7,11.7,0,0,1,12,74Z" fill="#fcc800"/>
    <circle cx="179.27" cy="20.73" r="4.18" fill="#fcc800"/>
    <circle cx="137.53" cy="16.36" r="4.18" fill="#fcc800"/>
    <circle cx="183.82" cy="62.57" r="4.18" fill="#fcc800"/>
    <path d="M187.85,74a11,11,0,0,1-2.13-.21,11.62,11.62,0,0,1-6.27-3.63,1.32,1.32,0,0,1,1.94-1.78,9,9,0,0,0,4.84,2.83,9.65,9.65,0,0,0,10.11-5.16,10,10,0,0,0-1.87-11.15,6.91,6.91,0,0,0-4.06-1.9c-1.45-.29-3.09-.61-4.24-2.34-1.78-2.69-.4-5.71.94-8.63s2.84-6.18,1.69-9.66A13.26,13.26,0,0,0,186.93,29c-1.17-1.7-2.38-3.45-2-6.18a9.55,9.55,0,0,1,.75-2.4,12,12,0,0,0,.88-2.91,14,14,0,0,0,0-4.14,14,14,0,0,0-4.14,0,11.62,11.62,0,0,0-2.92.88,9.85,9.85,0,0,1-2.4.74c-2.73.42-4.48-.8-6.17-2a13.28,13.28,0,0,0-3.39-1.88c-3.48-1.16-6.62.28-9.66,1.67s-5.94,2.72-8.63.92C147.6,12.63,147.28,11,147,9.54a6.88,6.88,0,0,0-1.89-4.07A10.06,10.06,0,0,0,134,3.58a9.65,9.65,0,0,0-5.18,10.1,9,9,0,0,0,2.82,4.85,1.31,1.31,0,1,1-1.78,1.93,11.67,11.67,0,0,1-3.62-6.27,12.18,12.18,0,0,1,6.59-13A12.59,12.59,0,0,1,147,3.61,9.5,9.5,0,0,1,149.57,9c.27,1.36.43,2,1.21,2.56,1.4.93,3.22.17,6.08-1.13C160,9,164,7.2,168.45,8.69a15.57,15.57,0,0,1,4.06,2.21c1.5,1,2.58,1.79,4.28,1.53a7.52,7.52,0,0,0,1.78-.57,14.49,14.49,0,0,1,3.51-1,17.1,17.1,0,0,1,6,.13l.86.18.17.86a16.62,16.62,0,0,1,.12,6,14.05,14.05,0,0,1-1.05,3.51,7.38,7.38,0,0,0-.57,1.78c-.26,1.69.49,2.78,1.52,4.28a15.44,15.44,0,0,1,2.2,4.06C192.78,36,191,40,189.5,43.16c-1.31,2.85-2.06,4.67-1.14,6.07.52.79,1.2,1,2.56,1.22a9.47,9.47,0,0,1,5.41,2.62,12.6,12.6,0,0,1,2.36,14.19A12.33,12.33,0,0,1,187.85,74Z" fill="#fcc800"/>
    <circle cx="179.14" cy="179.37" r="4.18" fill="#fcc800"/>
    <circle cx="183.54" cy="137.63" r="4.18" fill="#fcc800"/>
    <circle cx="137.29" cy="183.88" r="4.18" fill="#fcc800"/>
    <path d="M137.88,200a11.84,11.84,0,0,1-5.29-1.24,12.19,12.19,0,0,1-6.55-13,11.68,11.68,0,0,1,3.63-6.27,1.32,1.32,0,0,1,1.78,1.94,9.1,9.1,0,0,0-2.83,4.84,9.63,9.63,0,0,0,5.15,10.11,10,10,0,0,0,11.15-1.85,7,7,0,0,0,1.91-4.06c.29-1.45.61-3.09,2.34-4.24,2.7-1.78,5.71-.39,8.63.95s6.18,2.85,9.66,1.69a13,13,0,0,0,3.39-1.86c1.7-1.17,3.46-2.38,6.18-2a9.85,9.85,0,0,1,2.4.74,11.61,11.61,0,0,0,2.91.89,14.06,14.06,0,0,0,4.15,0,14,14,0,0,0,0-4.14,11.8,11.8,0,0,0-.87-2.92,9.91,9.91,0,0,1-.74-2.39c-.42-2.73.8-4.48,2-6.18a13.26,13.26,0,0,0,1.87-3.39c1.17-3.47-.27-6.62-1.65-9.66s-2.71-5.94-.92-8.63c1.15-1.72,2.79-2.05,4.24-2.33a6.88,6.88,0,0,0,4.07-1.89,10,10,0,0,0,1.9-11.15,9.65,9.65,0,0,0-10.1-5.18,9,9,0,0,0-4.85,2.81,1.31,1.31,0,1,1-1.93-1.78,11.67,11.67,0,0,1,6.28-3.62,12.18,12.18,0,0,1,13,6.61,12.59,12.59,0,0,1-2.4,14.18,9.49,9.49,0,0,1-5.41,2.6c-1.36.27-2,.43-2.56,1.21-.94,1.4-.18,3.22,1.12,6.08,1.45,3.18,3.25,7.13,1.76,11.59a15.74,15.74,0,0,1-2.21,4.06c-1,1.49-1.8,2.58-1.54,4.27a7.59,7.59,0,0,0,.57,1.79,13.85,13.85,0,0,1,1,3.51,16.63,16.63,0,0,1-.14,6l-.17.86-.86.17a16.85,16.85,0,0,1-6,.11,14.35,14.35,0,0,1-3.51-1,7.41,7.41,0,0,0-1.78-.58c-1.7-.26-2.78.49-4.28,1.53a15.64,15.64,0,0,1-4.07,2.19c-4.46,1.48-8.41-.34-11.58-1.8-2.85-1.31-4.67-2.07-6.07-1.14-.79.52-.95,1.19-1.23,2.55a9.41,9.41,0,0,1-2.62,5.41A12.86,12.86,0,0,1,137.88,200Z" fill="#fcc800"/>
    <circle cx="20.71" cy="179.31" r="4.18" fill="#fcc800"/>
    <circle cx="62.46" cy="183.63" r="4.18" fill="#fcc800"/>
    <circle cx="16.13" cy="137.47" r="4.18" fill="#fcc800"/>
    <path d="M62,200A12.87,12.87,0,0,1,53,196.4,9.46,9.46,0,0,1,50.42,191c-.27-1.36-.43-2-1.21-2.55-1.4-.93-3.22-.18-6.08,1.13C40,191,36,192.83,31.54,191.34a15.74,15.74,0,0,1-4.06-2.21c-1.5-1-2.58-1.79-4.27-1.53a7.06,7.06,0,0,0-1.79.58,13.85,13.85,0,0,1-3.51,1,16.62,16.62,0,0,1-6-.12l-.86-.17-.17-.87a16.8,16.8,0,0,1-.13-5.95,14.21,14.21,0,0,1,1.05-3.51,7.59,7.59,0,0,0,.57-1.79c.26-1.69-.49-2.78-1.53-4.28a15.87,15.87,0,0,1-2.2-4.06c-1.49-4.46.32-8.41,1.78-11.58,1.31-2.86,2.06-4.68,1.13-6.08-.52-.78-1.19-.95-2.55-1.22A9.38,9.38,0,0,1,3.62,147,12.61,12.61,0,0,1,1.25,132.8a12.17,12.17,0,0,1,13-6.58,11.67,11.67,0,0,1,6.27,3.62,1.32,1.32,0,0,1-1.94,1.78,9,9,0,0,0-4.84-2.82A9.65,9.65,0,0,0,3.6,134a10,10,0,0,0,1.88,11.15A6.88,6.88,0,0,0,9.55,147c1.45.29,3.09.62,4.23,2.35,1.79,2.69.41,5.7-.93,8.62s-2.83,6.19-1.67,9.66a13,13,0,0,0,1.87,3.4c1.17,1.69,2.38,3.44,2,6.17a9.85,9.85,0,0,1-.74,2.4,11.62,11.62,0,0,0-.88,2.92,14,14,0,0,0,0,4.14,14,14,0,0,0,4.14,0,11.62,11.62,0,0,0,2.92-.88A9.48,9.48,0,0,1,22.8,185c2.73-.43,4.49.79,6.18,2a13,13,0,0,0,3.4,1.87c3.47,1.17,6.62-.28,9.66-1.67s5.93-2.72,8.62-.94c1.73,1.15,2.06,2.79,2.34,4.24a7,7,0,0,0,1.9,4.07,10,10,0,0,0,11.15,1.87,9.65,9.65,0,0,0,5.17-10.1,9,9,0,0,0-2.83-4.85,1.31,1.31,0,0,1,1.78-1.93,11.62,11.62,0,0,1,3.63,6.27,12.2,12.2,0,0,1-6.58,13A11.71,11.71,0,0,1,62,200Z" fill="#fcc800"/>
    <path d="M112.88,93c8.19-5.88,15.85-11.43,16.57-12.15a7.28,7.28,0,1,0-10.29-10.29c-.71.71-6.28,8.37-12.16,16.55A14.69,14.69,0,0,1,112.88,93Z" fill="#fcc800"/>
    <path d="M107,112.91c5.87,8.19,11.42,15.86,12.13,16.57a7.27,7.27,0,1,0,10.3-10.27c-.71-.72-8.37-6.29-16.54-12.18A14.81,14.81,0,0,1,107,112.91Z" fill="#fcc800"/>
    <path d="M87,107c-8.19,5.87-15.86,11.41-16.58,12.13a7.28,7.28,0,0,0,10.28,10.31c.71-.72,6.28-8.37,12.18-16.54A14.77,14.77,0,0,1,87,107Z" fill="#fcc800"/>
    <path d="M80.26,61.12A18.44,18.44,0,0,1,98.65,78.67c0,.28,0,.57,0,.86l0,.65v5.09h2.63V80.84h0V79.53c0-.29,0-.58,0-.86a18.44,18.44,0,0,1,18.39-17.55,1.32,1.32,0,0,0,0-2.63A21.06,21.06,0,0,0,100,72.15,21.09,21.09,0,0,0,80.26,58.49a1.32,1.32,0,0,0,0,2.63Z" fill="#fcc800"/>
    <path d="M135.29,104.8a21.09,21.09,0,0,0-7.47-4.82,21.06,21.06,0,0,0,13.62-19.71A1.32,1.32,0,0,0,140.12,79h0a1.31,1.31,0,0,0-1.31,1.31,18.42,18.42,0,0,1-17.54,18.4l-.86,0-.67,0h-5.07v2.63h4.43v0h1.31l.86,0a18.4,18.4,0,0,1,17.56,18.38,1.31,1.31,0,0,0,1.31,1.31h0a1.32,1.32,0,0,0,1.32-1.32A21,21,0,0,0,135.29,104.8Z" fill="#fcc800"/>
    <path d="M119.67,138.84h0a18.44,18.44,0,0,1-18.39-17.54c0-.29,0-.57,0-.86l0-.65v-5.1H98.64v4.44h0v1.31c0,.29,0,.58,0,.86a18.43,18.43,0,0,1-18.38,17.55,1.32,1.32,0,0,0,0,2.63h0A21.06,21.06,0,0,0,100,127.81a21.08,21.08,0,0,0,19.7,13.66h0a1.32,1.32,0,0,0,0-2.63Z" fill="#fcc800"/>
    <path d="M79.5,101.32l.67,0h5.08V98.67H80.81v0H79.5l-.86,0A18.4,18.4,0,0,1,61.09,80.29,1.32,1.32,0,0,0,59.77,79h0a1.31,1.31,0,0,0-1.32,1.31A21.1,21.1,0,0,0,72.1,100a21.09,21.09,0,0,0-13.63,19.7A1.32,1.32,0,0,0,59.79,121h0a1.32,1.32,0,0,0,1.31-1.32A18.42,18.42,0,0,1,78.64,101.3,8.42,8.42,0,0,0,79.5,101.32Z" fill="#fcc800"/>
    <path d="M187,102.21c-3-3.48-8.61-1.92-11.3,1a32.76,32.76,0,0,0-6.56,9.33c-1,2.06-1.78,4.15-2.67,6.18a11.92,11.92,0,0,0-5.5-9.56,11.94,11.94,0,0,0,2.27,15.47c-7.88,12.19-14.88,17-29.77,8.52l-.06,0h0a.33.33,0,0,0-.33.07l0,0,0,0a.33.33,0,0,0,0,.4c8.39,15,3.52,21.91-8.74,29.71A11.93,11.93,0,0,0,108.79,161a11.92,11.92,0,0,0,9.52,5.56c-2,.87-4.13,1.65-6.2,2.63a32.66,32.66,0,0,0-9.37,6.49A10.15,10.15,0,0,0,99.8,181c0,.12,0,.24,0,.36a9.84,9.84,0,0,0-2.91-5.65,32.7,32.7,0,0,0-9.33-6.54c-2.07-1-4.15-1.78-6.19-2.67A11.91,11.91,0,0,0,90.89,161h0a12,12,0,0,0-15.47,2.29c-12.2-7.86-17-14.86-8.57-29.75a.25.25,0,0,0,0-.07h0a.35.35,0,0,0-.07-.33l0,0,0,0a.32.32,0,0,0-.4,0c-14.94,8.41-21.9,3.55-29.72-8.69A12,12,0,0,0,39,108.9a11.93,11.93,0,0,0-5.56,9.53c-.87-2-1.65-4.13-2.63-6.19a32.45,32.45,0,0,0-6.51-9.37,10.14,10.14,0,0,0-5.38-2.93l-.26,0A9.76,9.76,0,0,0,24.19,97a32.56,32.56,0,0,0,6.53-9.35c1-2.06,1.77-4.15,2.65-6.19A12,12,0,0,0,38.9,91a12,12,0,0,0-2.31-15.47c7.84-12.21,14.83-17.06,29.74-8.61l.06,0h0a.33.33,0,0,0,.33-.07l0,0,0,0a.34.34,0,0,0,0-.41C58.4,51.51,63.24,44.54,75.47,36.7A11.94,11.94,0,0,0,90.93,39a11.93,11.93,0,0,0-9.54-5.54c2-.88,4.13-1.66,6.19-2.64a33,33,0,0,0,9.36-6.52,10.25,10.25,0,0,0,2.89-5.26l.43,0a9.76,9.76,0,0,0,2.81,5.12,32.7,32.7,0,0,0,9.33,6.54c2.07,1,4.15,1.78,6.18,2.66A12,12,0,0,0,109,38.94a11.94,11.94,0,0,0,15.47-2.28c12.2,7.86,17,14.86,8.56,29.75a.64.64,0,0,0,0,.07h0a.31.31,0,0,0,.07.32.05.05,0,0,0,0,0l0,0a.32.32,0,0,0,.4,0c14.95-8.41,21.9-3.55,29.72,8.69a12,12,0,0,0-2.35,15.46,11.94,11.94,0,0,0,5.55-9.53c.88,2,1.66,4.13,2.64,6.19a32.42,32.42,0,0,0,6.5,9.37A10.14,10.14,0,0,0,181,100c3.26.57,6.86-1.26,7-4.82a4.14,4.14,0,0,0-1.83-4.1,4.29,4.29,0,0,0-4.25.46.27.27,0,0,0-.09.35.26.26,0,0,0,.36.12,4.23,4.23,0,0,1,2.41-.46c2.61.33,2.41,4,.93,5.36-2.38,2-6,.45-7.72-1.94-3.3-4-4.87-9-6.24-14-1.64-5.49-3.63-11-7.35-15.5-7.39-8.8-17.46-9.66-25.68-4.14a20,20,0,0,0,3.52-9.25c.67-6.29-2.82-12.49-7.52-16.43-4.47-3.74-10-5.75-15.47-7.42-5-1.39-9.93-3-13.94-6.3-2.38-1.75-3.91-5.35-1.9-7.72,1.38-1.49,5-1.66,5.35,1a4.18,4.18,0,0,1-.46,2.4c-.17.29.29.57.46.28,1.14-1.6,1.28-4.28-.61-5.43a5.34,5.34,0,0,0-5.94.45,5.87,5.87,0,0,0-2,4.85H100c0-2.9-1.79-5.71-4.93-5.86a4.14,4.14,0,0,0-4.1,1.84A4.25,4.25,0,0,0,91.4,18a.27.27,0,0,0,.35.1.29.29,0,0,0,.12-.37,4.3,4.3,0,0,1-.47-2.41c.32-2.6,4-2.42,5.36-.93,2,2.37.46,6-1.92,7.72-4,3.3-9,4.88-14,6.26C75.4,30,69.87,32,65.4,35.74c-8.79,7.41-9.63,17.47-4.09,25.69a20,20,0,0,0-9.26-3.5c-6.3-.66-12.49,2.84-16.42,7.55C31.9,70,29.9,75.47,28.24,81c-1.38,5-3,9.93-6.27,14-1.75,2.38-5.35,3.92-7.72,1.92-1.49-1.38-1.67-5,.94-5.36a4.19,4.19,0,0,1,2.4.46.27.27,0,0,0,.27-.47c-1.59-1.13-4.27-1.27-5.42.63A5.34,5.34,0,0,0,12.9,98a5.62,5.62,0,0,0,3.66,1.92,5.25,5.25,0,0,0-4.69,4.82,4.14,4.14,0,0,0,1.84,4.1A4.28,4.28,0,0,0,18,108.4a.27.27,0,0,0-.27-.47,4.21,4.21,0,0,1-2.41.46c-2.6-.32-2.41-4-.92-5.36,2.37-2,6-.45,7.71,1.94,3.3,4,4.87,9,6.24,14,1.64,5.48,3.63,11,7.35,15.49,7.4,8.8,17.46,9.66,25.69,4.14a20,20,0,0,0-3.52,9.25c-.67,6.29,2.82,12.49,7.52,16.43,4.47,3.74,10,5.75,15.47,7.41,5,1.4,9.92,3,13.94,6.3,2.38,1.76,3.91,5.36,1.9,7.73-1.38,1.48-5,1.65-5.35-.95a4.21,4.21,0,0,1,.46-2.41c.16-.29-.29-.56-.46-.27-1.14,1.6-1.28,4.27.61,5.42a5.34,5.34,0,0,0,5.94-.45,5.69,5.69,0,0,0,1.93-3.76c.38,2.49,2.08,4.66,4.83,4.8a4.13,4.13,0,0,0,4.1-1.82,4.26,4.26,0,0,0-.45-4.25.27.27,0,0,0-.35-.09.26.26,0,0,0-.12.36,4.2,4.2,0,0,1,.45,2.41c-.32,2.6-4,2.41-5.36.92-2-2.38-.44-6,2-7.72,4-3.29,9-4.85,14-6.22,5.49-1.63,11-3.61,15.51-7.33,8.81-7.38,9.67-17.44,4.17-25.67a20.15,20.15,0,0,0,9.24,3.53c6.3.67,12.5-2.81,16.44-7.5,3.75-4.46,5.77-10,7.44-15.46,1.4-5,3-9.92,6.32-13.93,1.76-2.38,5.36-3.91,7.73-1.89,1.48,1.38,1.64,5-1,5.35a4.23,4.23,0,0,1-2.41-.47.27.27,0,0,0-.27.47c1.59,1.14,4.27,1.28,5.43-.61A5.35,5.35,0,0,0,187,102.21Z" fill="#fcc800"/>
  </g>
</svg>
