<svg xmlns="http://www.w3.org/2000/svg" width="100" height="100" viewBox="0 0 100 100">
  <rect x="45.51" y="45.51" width="8.97" height="8.97" transform="translate(-20.71 50) rotate(-45)" fill="#fcc800"/>
  <path d="M62.36,10.37A5.27,5.27,0,0,1,58.43,8.2a.66.66,0,0,1,1.08-.75A3.89,3.89,0,0,0,62.61,9a3.65,3.65,0,0,0,3-3.5,4.3,4.3,0,0,0-2.45-3.79c-2.72-1.37-6.27.9-7.78,1.87a14.55,14.55,0,0,0-4.8,5.08A.65.65,0,0,1,50,9h0a.67.67,0,0,1-.57-.32,14.64,14.64,0,0,0-4.8-5.08c-1.51-1-5.06-3.25-7.79-1.87A4.31,4.31,0,0,0,34.4,5.54a3.64,3.64,0,0,0,3,3.5,3.89,3.89,0,0,0,3.11-1.59.65.65,0,1,1,1.07.75,5.09,5.09,0,0,1-4.3,2.15A4.94,4.94,0,0,1,33.08,5.6a5.57,5.57,0,0,1,3.17-5c3.4-1.72,7.39.84,9.09,1.93A15.86,15.86,0,0,1,50,7.12a15.75,15.75,0,0,1,4.66-4.61c1.7-1.09,5.69-3.65,9.09-1.93a5.55,5.55,0,0,1,3.16,5,4.92,4.92,0,0,1-4.17,4.75A2.48,2.48,0,0,1,62.36,10.37Z" fill="#0b318f"/>
  <path d="M94.62,66.92h-.23a5,5,0,0,1-4.75-4.18,5.15,5.15,0,0,1,2.15-4.3.66.66,0,1,1,.76,1.08,3.84,3.84,0,0,0-1.6,3.1,3.66,3.66,0,0,0,3.51,3,4.29,4.29,0,0,0,3.78-2.45c1.38-2.73-.89-6.27-1.86-7.79a14.52,14.52,0,0,0-5.08-4.79A.68.68,0,0,1,91,50a.66.66,0,0,1,.33-.57,14.73,14.73,0,0,0,5.08-4.8c1-1.52,3.24-5.06,1.86-7.79a4.29,4.29,0,0,0-3.78-2.45,3.67,3.67,0,0,0-3.51,3,3.84,3.84,0,0,0,1.6,3.1.67.67,0,0,1,.16.92.66.66,0,0,1-.92.16,5.13,5.13,0,0,1-2.15-4.3,5,5,0,0,1,4.75-4.18,5.59,5.59,0,0,1,5,3.17c1.71,3.4-.84,7.38-1.93,9.09A16,16,0,0,1,92.88,50a15.71,15.71,0,0,1,4.61,4.65c1.09,1.7,3.65,5.69,1.93,9.09A5.61,5.61,0,0,1,94.62,66.92Z" fill="#0b318f"/>
  <path d="M38.76,100a5.34,5.34,0,0,1-2.5-.57,5.55,5.55,0,0,1-3.17-5,4.94,4.94,0,0,1,4.17-4.75,5.12,5.12,0,0,1,4.31,2.15.66.66,0,0,1-1.08.76,3.86,3.86,0,0,0-3.1-1.6,3.66,3.66,0,0,0-3,3.51,4.29,4.29,0,0,0,2.45,3.78c2.73,1.38,6.27-.89,7.79-1.86a14.7,14.7,0,0,0,4.79-5.08A.66.66,0,0,1,50,91h0a.65.65,0,0,1,.57.33,14.73,14.73,0,0,0,4.8,5.08c1.51,1,5.06,3.24,7.79,1.86a4.31,4.31,0,0,0,2.44-3.79,3.64,3.64,0,0,0-3-3.5,3.86,3.86,0,0,0-3.11,1.6.65.65,0,0,1-.91.15.65.65,0,0,1-.16-.91,5.11,5.11,0,0,1,4.3-2.15,4.94,4.94,0,0,1,4.18,4.75,5.59,5.59,0,0,1-3.17,5c-3.4,1.71-7.39-.84-9.09-1.93A15.86,15.86,0,0,1,50,92.88a16,16,0,0,1-4.65,4.61C44.05,98.32,41.43,100,38.76,100Z" fill="#0b318f"/>
  <path d="M5.38,66.92a5.59,5.59,0,0,1-4.8-3.17c-1.72-3.4.84-7.39,1.93-9.09A16,16,0,0,1,7.12,50a15.83,15.83,0,0,1-4.61-4.65C1.42,43.64-1.14,39.66.58,36.26a5.57,5.57,0,0,1,5-3.17,4.93,4.93,0,0,1,4.75,4.17,5.19,5.19,0,0,1-2.14,4.31.66.66,0,1,1-.76-1.08A3.87,3.87,0,0,0,9,37.39a3.65,3.65,0,0,0-3.5-3,4.29,4.29,0,0,0-3.79,2.45c-1.38,2.73.9,6.27,1.87,7.79A14.62,14.62,0,0,0,8.7,49.43.66.66,0,0,1,9,50a.68.68,0,0,1-.33.57,14.73,14.73,0,0,0-5.08,4.8c-1,1.51-3.24,5.06-1.86,7.79A4.26,4.26,0,0,0,5.54,65.6a3.66,3.66,0,0,0,3.51-3,3.88,3.88,0,0,0-1.6-3.11.65.65,0,0,1-.16-.91.66.66,0,0,1,.92-.16,5.14,5.14,0,0,1,2.15,4.3,5,5,0,0,1-4.75,4.18Z" fill="#0b318f"/>
  <path d="M52,43.56l-2-2-2,2-.3-1.1c-1.9-7-5.1-19-5.1-20.31A7.21,7.21,0,0,1,43.3,19a7.41,7.41,0,0,1,3-3.24c0-.1,0-.21,0-.32a3.68,3.68,0,0,1,7.35,0c0,.11,0,.22,0,.32a7.41,7.41,0,0,1,2.92,3.13,7.29,7.29,0,0,1,.75,3.22c0,1.39-3.12,13.32-5,20.3ZM49.94,13.12a2.36,2.36,0,0,0-2.36,2.36,2,2,0,0,0,.07.53l.11.51-.46.23a6.11,6.11,0,0,0-2.81,2.85,6,6,0,0,0-.56,2.55c0,.77,1.86,8.13,4.75,18.87L50,39.7,51.31,41C54.14,30.34,56,23,56,22.15a6,6,0,0,0-3.36-5.39l-.47-.24.11-.5a2.05,2.05,0,0,0,.07-.54A2.36,2.36,0,0,0,49.94,13.12Z" fill="#eb6100"/>
  <path d="M77.84,57.31h0c-1.38,0-13.31-3.14-20.29-5L56.44,52l2-2-2-2,1.1-.3c7-1.89,19-5.07,20.31-5.07h0a7.15,7.15,0,0,1,3.11.7,7.3,7.3,0,0,1,3.24,3h.32a3.67,3.67,0,0,1,2.59,6.27,3.62,3.62,0,0,1-2.59,1.08l-.34,0a7.31,7.31,0,0,1-6.34,3.66ZM59,51.32C69.65,54.17,77,56,77.83,56a6,6,0,0,0,5.41-3.36l.23-.47.51.12a2.46,2.46,0,0,0,.53.06h0a2.33,2.33,0,0,0,1.66-.69A2.3,2.3,0,0,0,86.87,50a2.37,2.37,0,0,0-2.35-2.37h0a2.49,2.49,0,0,0-.53.07l-.51.11-.23-.47a6.07,6.07,0,0,0-2.84-2.8A5.84,5.84,0,0,0,77.85,44c-.77,0-8.13,1.85-18.87,4.73L60.29,50Z" fill="#eb6100"/>
  <path d="M50,88.19h0a3.7,3.7,0,0,1-2.6-1.09,3.61,3.61,0,0,1-1.06-2.6c0-.11,0-.21,0-.32A7.36,7.36,0,0,1,43.38,81a7.28,7.28,0,0,1-.74-3.22c0-1.39,3.17-13.31,5-20.29l.3-1.1,2,2,2-2,.29,1.1c1.89,7,5,19.05,5,20.32A7.19,7.19,0,0,1,56.6,81a7.35,7.35,0,0,1-3,3.23c0,.11,0,.22,0,.32A3.67,3.67,0,0,1,50,88.19ZM48.66,59C45.8,69.64,44,77,44,77.82a5.84,5.84,0,0,0,.6,2.64,6,6,0,0,0,2.75,2.77l.47.23-.12.51a2,2,0,0,0-.07.54,2.36,2.36,0,0,0,2.35,2.36h0a2.36,2.36,0,0,0,2.36-2.35,2.62,2.62,0,0,0-.06-.54l-.12-.5.47-.23a6,6,0,0,0,2.81-2.84A5.84,5.84,0,0,0,56,77.86c0-.77-1.83-8.14-4.7-18.88L50,60.29Z" fill="#eb6100"/>
  <path d="M22.12,57.26h0a7.33,7.33,0,0,1-6.33-3.7h-.32a3.68,3.68,0,0,1,0-7.35l.34,0A7.41,7.41,0,0,1,19,43.33a7.31,7.31,0,0,1,3.19-.73h0c1.44,0,14.66,3.55,20.28,5.08l1.1.3-2,2,2,2-1.1.29C35.41,54.12,23.42,57.26,22.12,57.26Zm-5.6-5.18.22.47a6,6,0,0,0,2.84,2.81,5.85,5.85,0,0,0,2.55.58c.77,0,8.13-1.82,18.88-4.67L39.71,50,41,48.65c-10.65-2.89-18-4.73-18.84-4.74h0a6,6,0,0,0-5.38,3.35l-.23.46L16,47.6a2.48,2.48,0,0,0-.54-.06,2.36,2.36,0,1,0,0,4.71,3.57,3.57,0,0,0,.54-.06Z" fill="#eb6100"/>
  <path d="M80.66,24.83a10.65,10.65,0,0,0-.86,2.63,7.43,7.43,0,0,0-1.89-3.81,6.64,6.64,0,0,0-.08,9.2A33.35,33.35,0,0,1,67.48,43.71a29.9,29.9,0,0,1-10,4L57.93,49c1.7-.56,3.63-.69,5.38-1.2C70.78,46,77.77,41,80.71,33.7a16.47,16.47,0,0,0,1.07-4.32,21.92,21.92,0,0,1,.41-3.94c.7-2.64,3-4.2,5.33-5.47A9,9,0,0,0,80.66,24.83Z" fill="#0b318f"/>
  <path d="M67.27,22.25a6.62,6.62,0,0,0,9.16-.09h0a7.38,7.38,0,0,0-3.73-1.88,11.18,11.18,0,0,0,2.53-.83,9,9,0,0,0,4.91-6.89c-1.27,2.3-2.86,4.66-5.51,5.34-1.73.47-3.65.21-5.46.65a19.23,19.23,0,0,0-8,3.88c-6.67,5.39-8.69,12-10.24,20l1.25.3c.5-1.75,1.07-3.52,1.69-5.23A31.86,31.86,0,0,1,67.27,22.25Z" fill="#0b318f"/>
  <path d="M75.27,80.5a11.6,11.6,0,0,0-2.59-.82,7.35,7.35,0,0,0,3.8-1.9,6.62,6.62,0,0,0-9.19,0,33.12,33.12,0,0,1-9.49-8.32,28.77,28.77,0,0,1-5.52-12.14l-1.51.37c.54,1.8.93,3.6,1.4,5.42C54,70.58,59,77.62,66.35,80.58a16.56,16.56,0,0,0,5.79,1.17,10.77,10.77,0,0,1,2.54.31,7.69,7.69,0,0,1,4.08,3c.52.73.94,1.53,1.45,2.33a7.28,7.28,0,0,0-.82-2.71A9,9,0,0,0,75.27,80.5Z" fill="#0b318f"/>
  <path d="M82.23,74.52c-.49-1.69-.24-3.64-.67-5.4a19,19,0,0,0-3.83-7.91,25.14,25.14,0,0,0-9-7.09c-3.43-1.66-7.16-2.26-10.81-3.18l-.33,1.43a37.25,37.25,0,0,1,5.21,1.57,27.35,27.35,0,0,1,8.82,5.62,30.18,30.18,0,0,1,6.27,7.57A6.63,6.63,0,0,0,78,76.29a7.35,7.35,0,0,0,1.87-3.74,11,11,0,0,0,.87,2.59A9,9,0,0,0,87.58,80C85.3,78.69,82.94,77.15,82.23,74.52Z" fill="#0b318f"/>
  <path d="M22.35,76.62a6.62,6.62,0,0,0,0-9.19A33.08,33.08,0,0,1,30.48,58a29.41,29.41,0,0,1,12-5.68l-.38-1.44c-1.77.55-3.56.91-5.38,1.4-7.45,1.9-14.39,7-17.25,14.31a16.18,16.18,0,0,0-1,4.33,21.17,21.17,0,0,1-.38,3.95,7.53,7.53,0,0,1-3,4.06c-.73.53-1.52,1-2.31,1.46a7.1,7.1,0,0,0,2.68-.83,9.08,9.08,0,0,0,4.14-4.1,11.07,11.07,0,0,0,.83-2.64A7.28,7.28,0,0,0,22.35,76.62Z" fill="#0b318f"/>
  <path d="M47.6,57.48c-.24,1-.43,1.85-.66,2.73a26.76,26.76,0,0,1-6.39,11.41A30.52,30.52,0,0,1,33,77.92a6.62,6.62,0,0,0-9.16.17,7.26,7.26,0,0,0,3.75,1.85,11.32,11.32,0,0,0-2.59.88,9.05,9.05,0,0,0-4.77,6.91c1.24-2.29,2.77-4.66,5.4-5.38,1.69-.5,3.64-.25,5.39-.7a18.77,18.77,0,0,0,7.89-3.87A26.21,26.21,0,0,0,47.84,63.3c.5-1.76.63-3.68,1.21-5.37Z" fill="#0b318f"/>
  <path d="M47.71,37c-1.88-7.51-7-14.48-14.37-17.37a16.61,16.61,0,0,0-5.81-1.12A10.28,10.28,0,0,1,25,18.19c-2.66-.65-4.28-3-5.59-5.26a9,9,0,0,0,5,6.81,11.57,11.57,0,0,0,2.59.8,7.44,7.44,0,0,0-3.78,1.94,6.64,6.64,0,0,0,9.21-.06A32.9,32.9,0,0,1,42,30.66c2.91,3.45,4.53,7.75,5.79,12L49,42.39C48.62,40.55,48.18,38.77,47.71,37Z" fill="#0b318f"/>
  <path d="M37.26,45.93a27.35,27.35,0,0,1-9-5.31A30.05,30.05,0,0,1,22,33.15,6.62,6.62,0,0,0,21.77,24a7.38,7.38,0,0,0-1.83,3.75,9.2,9.2,0,0,0-2.73-5,8.93,8.93,0,0,0-5.1-2.36c3.39,1.77,5.75,3.77,5.78,7.86C18.07,35,22.6,40.8,28,44.32a31,31,0,0,0,8.67,3.39c2,.36,3.53,1.06,5.58,1.09V47.52C40.68,47.36,38.84,46.41,37.26,45.93Z" fill="#0b318f"/>
  <path d="M50,40.63l.43.44c.88-5.25,2.8-16.75,2.8-17.51a3.23,3.23,0,0,0-6.46,0c0,.76,1.91,12.26,2.79,17.51Z" fill="#fcc800"/>
  <path d="M59.36,50l-.43.43c5.25.88,16.74,2.8,17.5,2.8a3.23,3.23,0,1,0,0-6.45c-.76,0-12.25,1.9-17.5,2.78Z" fill="#fcc800"/>
  <path d="M50,59.36l-.43-.44c-.88,5.26-2.8,16.75-2.8,17.51a3.23,3.23,0,1,0,6.45,0c0-.76-1.9-12.25-2.78-17.51Z" fill="#fcc800"/>
  <path d="M40.64,50l.43-.43c-5.25-.89-16.74-2.81-17.51-2.81a3.23,3.23,0,0,0,0,6.46c.76,0,12.26-1.91,17.51-2.78Z" fill="#fcc800"/>
  <path d="M50,60.29,39.71,50,50,39.7,60.29,50ZM41.57,50,50,58.43,58.43,50,50,41.57Z" fill="#00a29a"/>
</svg>
