<svg xmlns="http://www.w3.org/2000/svg" width="200" height="200" viewBox="0 0 200 200">
  <g>
    <path d="M82.25,140.47a47.64,47.64,0,0,1-6.34-10.59,37.54,37.54,0,0,1,48.18,0A48,48,0,0,1,114,144.68l-14,14-14-14A49.31,49.31,0,0,1,82.25,140.47Z" fill="#0b318f"/>
    <path d="M136.59,63.88a8.41,8.41,0,0,0-3.89-.6,21.76,21.76,0,0,0-.9-5,4,4,0,0,0-.13-.46v0h0c0-.1,0-.19-.1-.29A3.7,3.7,0,0,0,130,55.8a21.49,21.49,0,0,0,.87-3.83c0-.16,0-.32.07-.48v0h0c0-.1,0-.2,0-.3a3.7,3.7,0,0,0-5.21-3.47h-.07a21.65,21.65,0,0,0-4.54,2.48,21.36,21.36,0,0,0,.16-5.12,2.74,2.74,0,0,0,0-.49v0h0c0-.1,0-.19,0-.29A3.71,3.71,0,0,0,119.79,42a25,25,0,0,0,1.34-5.52,4.85,4.85,0,0,0,.08-.55v0h0c0-.11,0-.22,0-.34a4.25,4.25,0,0,0-6-3.95l-.08,0A24.57,24.57,0,0,0,110.65,34c0-.57,0-1.15,0-1.72a10.69,10.69,0,0,0-21.38,0c0,.57,0,1.13,0,1.7a24.85,24.85,0,0,0-4.64-2.56l-.08,0a4.25,4.25,0,0,0-6,3.89c0,.11,0,.22,0,.34h0v0a5.17,5.17,0,0,0,.07.55,24.92,24.92,0,0,0,1.39,5.83,3.67,3.67,0,0,0-1.35,2.17c0,.1,0,.19,0,.29h0v0a2.74,2.74,0,0,0,0,.49,21.36,21.36,0,0,0,.16,5.12,21.65,21.65,0,0,0-4.54-2.48h-.07A3.7,3.7,0,0,0,69,51.15c0,.1,0,.2,0,.3h0v0c0,.16,0,.32.07.48A21.49,21.49,0,0,0,70,55.8a3.7,3.7,0,0,0-1.57,1.74c0,.1-.06.19-.1.29h0v0a4,4,0,0,0-.13.46,21.76,21.76,0,0,0-.9,5,8.41,8.41,0,0,0-8.47,11.61A28.67,28.67,0,0,0,70.75,88.67a55.55,55.55,0,0,1,10-17,21.5,21.5,0,0,0-.24-3.31,22.9,22.9,0,0,0,2.31,1c.28-.3.56-.61.85-.9L94.14,58.05c0-.53-.11-1.06-.2-1.58l1.29.49L100,52.19l4.71,4.71c.46-.17.92-.34,1.37-.53-.1.56-.16,1.12-.21,1.69l10.47,10.47c.29.29.57.6.85.9a22.9,22.9,0,0,0,2.31-1,21.5,21.5,0,0,0-.24,3.31,55.55,55.55,0,0,1,10,17,28.67,28.67,0,0,0,11.92-13.78A8.44,8.44,0,0,0,136.59,63.88Z" fill="#fcc800"/>
    <path d="M99.84,180.49l.16.3-.21-.62a16.82,16.82,0,0,0-2.8-7,64.81,64.81,0,0,0-23.81-27.31c-15.69-9.7-39.1-17.62-54.62-3.55C12,148.09,7.33,157.06,8.93,166c1.59,8,7.46,15.56,15.77,17.16,11.24,2.44,23.44-5.63,23.47-17.57-.1-3.2-.08-9.66-4.84-8.71a3.29,3.29,0,0,0-2.34,4,14.64,14.64,0,0,1,.47,4.47c-.11,7.74-8.18,12.54-15.35,11-5.56-1-9.26-6.32-10.47-11.61a16.36,16.36,0,0,1,1.51-9.94c4-8.06,10.05-12.13,17-13.58A15.19,15.19,0,0,0,29,150l-.62,3.22,3.22.62a15.31,15.31,0,0,0,17.93-12.15l0-.13a77.19,77.19,0,0,1,21.26,8.22c1.56.87,3.09,1.8,4.57,2.8A12.58,12.58,0,0,0,67,154.3l-2.32,1.4,1.4,2.32a12.61,12.61,0,0,0,17.32,4.26L85.54,161a77.63,77.63,0,0,1,6.55,7.47,16.71,16.71,0,0,0-8.9-2.57h0a16.72,16.72,0,0,0,4,10.89A20.43,20.43,0,0,0,71,182.72h0a20.48,20.48,0,0,0,29,0h0A18.14,18.14,0,0,0,99.84,180.49Z" fill="#fcc800"/>
    <path d="M181.44,142.28c-15.52-14.07-38.94-6.15-54.62,3.55A64.81,64.81,0,0,0,103,173.14a16.82,16.82,0,0,0-2.8,7l-.21.62.16-.3a18.14,18.14,0,0,0-.16,2.23h0a20.48,20.48,0,0,0,29,0h0a20.43,20.43,0,0,0-16.18-5.92,16.72,16.72,0,0,0,4-10.89h0a16.71,16.71,0,0,0-8.9,2.57,77.63,77.63,0,0,1,6.55-7.47l2.11,1.27A12.61,12.61,0,0,0,133.89,158l1.4-2.32L133,154.3a12.58,12.58,0,0,0-8.35-1.68c1.48-1,3-1.93,4.57-2.8a77.52,77.52,0,0,1,21.26-8.23l0,.14a15.31,15.31,0,0,0,17.93,12.15l3.22-.62L171,150a15.19,15.19,0,0,0-5.14-8.79c6.93,1.45,13,5.52,17,13.58,2,4.3,2.41,8.92.45,13.16-3,7.48-10.69,10.69-18,7.41-5.63-2.38-7.92-8.78-6.31-14.42a3.28,3.28,0,0,0-6.32-1.79,21.56,21.56,0,0,0-.85,6.44c0,12,12.23,20,23.47,17.57,8.83-1.71,15-10.18,16-18.81C192.12,155.91,187.55,147.75,181.44,142.28Z" fill="#fcc800"/>
    <path d="M114,76.79l-14-14-14,14a48,48,0,0,0-13.71,39.64,50.51,50.51,0,0,1,55.42,0A48,48,0,0,0,114,76.79Z" fill="#fcc800"/>
    <path d="M119.8,68.12c-3.91-4.24-13.35-13.92-17.48-18.25L100,47.45l-2.32,2.42c-4.06,4.26-13.61,14-17.48,18.25a58.41,58.41,0,0,0-14.92,40A57.52,57.52,0,0,0,81.4,147.06c4.13,4.18,14.18,13.5,18.6,17.7,4.33-4.14,14.51-13.54,18.6-17.7a57.52,57.52,0,0,0,16.12-38.91A58.41,58.41,0,0,0,119.8,68.12Zm-2.88,77.37c-3.8,4.08-13,13.73-16.92,18-3.88-4.17-13.15-13.9-16.92-18a54.54,54.54,0,0,1-13.86-37.34A53.57,53.57,0,0,1,84.29,71.93C87.67,68.54,95.2,61.37,100,56.76c4.78,4.59,12.37,11.81,15.71,15.17a53.59,53.59,0,0,1,15.07,36.22A54.54,54.54,0,0,1,116.92,145.49Z" fill="#66b5e6"/>
    <path d="M66.06,126.37a52.65,52.65,0,0,0-5.16-17.85A39,39,0,0,0,48.76,94.17c-5.64-4-12.29-6-17.89-9.8a45.65,45.65,0,0,1-15-18c-2.24-4.83-3.52-10.52-1.35-15.43,3.23-7.36,10.86-11,17.08-4.82,3.05,3.46.26,8.3-3.54,10A3.29,3.29,0,1,0,30.94,62a15,15,0,0,0,7.58-8.39c3-8.39-4.21-15.62-12.28-16.34C15,36.07,6.58,48.82,8.45,59.09a32.23,32.23,0,0,0,2.61,8.44,15.17,15.17,0,0,0-7.83-.63L0,67.49l.59,3.22A15.31,15.31,0,0,0,12.49,83a15.26,15.26,0,0,0-5.57,3.8l-2.24,2.4,2.41,2.24a15.31,15.31,0,0,0,21.64-.79l1.54-1.66C35.72,92,41.92,94,46.68,97.21c9.83,6.55,15.1,18,16.69,29.51a1.36,1.36,0,0,0,2.69-.35Z" fill="#fcc800"/>
    <path d="M86.62,30A51.24,51.24,0,0,0,60.79,15.15a47.85,47.85,0,0,0-11.88-.94c-3.77.1-7.84.35-11.1,2.12-4.44,2.3-5.93,8.81-3.25,12.84,3,4.47,10.5,4.7,12.59-.65a8.23,8.23,0,0,0,.63-2.1,3.29,3.29,0,1,1,6.51.93,14.24,14.24,0,0,1-1.44,4c-6.33,12.25-25,6.76-24.13-6.78.48-8,6.28-12.69,13.9-13.16a56.12,56.12,0,0,1,18.67,1.75A52.19,52.19,0,0,1,86.62,30Z" fill="#fcc800"/>
    <path d="M199.41,70.71l.59-3.22-3.23-.59a15.17,15.17,0,0,0-7.83.63,32.35,32.35,0,0,0,2.61-8.44c1.87-10.27-6.5-23-17.79-21.87-8.1.74-15.23,7.92-12.28,16.34A15,15,0,0,0,169.06,62,3.29,3.29,0,1,0,171.92,56c-2.9-1.35-5.27-4.25-4.76-7.41s4.05-5.11,7.27-5.59c5-.68,9.09,3.57,11,7.87,4.86,11-7.35,27.54-16.33,33.47-5.6,3.81-12.26,5.78-17.89,9.8-10.41,7.29-16,19.89-17.3,32.2a1.36,1.36,0,0,0,2.69.35A49.6,49.6,0,0,1,141.94,110a35.49,35.49,0,0,1,11.38-12.8c4.77-3.19,11-5.2,16.41-8.27l1.54,1.66a15.31,15.31,0,0,0,21.64.79l2.41-2.24-2.24-2.4a15.26,15.26,0,0,0-5.57-3.8A15.31,15.31,0,0,0,199.41,70.71Z" fill="#fcc800"/>
    <path d="M113.38,30a52.19,52.19,0,0,1,25.33-16.88,56.1,56.1,0,0,1,18.67-1.75c7.62.46,13.42,5.19,13.9,13.16.86,13.54-17.79,19-24.13,6.78a14.49,14.49,0,0,1-1.39-3.73,3.29,3.29,0,0,1,6.41-1.47,9.2,9.2,0,0,0,.68,2.37c2.08,5.35,9.58,5.12,12.59.65,2.68-4,1.19-10.54-3.25-12.84-3.26-1.77-7.33-2-11.1-2.12a47.85,47.85,0,0,0-11.88.94A51.24,51.24,0,0,0,113.38,30Z" fill="#fcc800"/>
  </g>
</svg>
