<svg xmlns="http://www.w3.org/2000/svg" width="100" height="100" viewBox="0 0 100 100">
  <g>
    <path d="M37.73,37.73a40.93,40.93,0,0,0-17.06-6.15,25.65,25.65,0,0,1,.21-10.68,28.24,28.24,0,0,1,5.29-.76,28.85,28.85,0,0,1,5.41.25,41,41,0,0,0,2.09,9A41.88,41.88,0,0,0,37.73,37.73Z" fill="#fcc800"/>
    <path d="M62.34,37.8a41.39,41.39,0,0,0,6.25-17A25.66,25.66,0,0,1,79.26,21a28.53,28.53,0,0,1,.45,10.7A41.49,41.49,0,0,0,62.34,37.8Z" fill="#fcc800"/>
    <path d="M62.13,62.41a41.8,41.8,0,0,0,8.65,4.3,41.39,41.39,0,0,0,8.35,2,26.47,26.47,0,0,1,.4,5.17,25.48,25.48,0,0,1-.73,5.5,28.94,28.94,0,0,1-5.3.7,28.19,28.19,0,0,1-5.4-.31,41.61,41.61,0,0,0-2-9A40.74,40.74,0,0,0,62.13,62.41Z" fill="#fcc800"/>
    <path d="M37.68,62.22a41.09,41.09,0,0,0-6.22,17,25.48,25.48,0,0,1-5.17.43A25.81,25.81,0,0,1,20.78,79a28.59,28.59,0,0,1-.47-10.71,41,41,0,0,0,17.37-6.08Z" fill="#fcc800"/>
    <circle cx="50" cy="50" r="5.99" fill="#fcc800"/>
    <path d="M89.16,55.5a.86.86,0,0,0-.07-.1h0a9.34,9.34,0,0,1,0-11h0a.76.76,0,0,0,.08-.11,9.37,9.37,0,0,0,1.37-5.84,10.9,10.9,0,0,0-4.06-6.35c-3.55-2.74-8.28-2.11-12.29-1a33.34,33.34,0,0,0-10.33,5.19c3.58-4.84,6-10.44,6-16.56a10.59,10.59,0,0,0-2.07-6.23,11,11,0,0,0-6.36-4.08,9.37,9.37,0,0,0-5.88,1.39l-.1.07h0a9.35,9.35,0,0,1-8.35,1.34,9.43,9.43,0,0,1-2.61-1.32h0l-.11-.08A9.37,9.37,0,0,0,38.5,9.49a10.94,10.94,0,0,0-6.35,4.06c-2.74,3.55-2.11,8.28-1,12.29a33.34,33.34,0,0,0,5.19,10.33c-4.84-3.58-10.44-6-16.56-6a10.59,10.59,0,0,0-6.23,2.07,11,11,0,0,0-4.08,6.36,9.37,9.37,0,0,0,1.39,5.88.86.86,0,0,0,.07.1h0A9.35,9.35,0,0,1,12.25,53a9.43,9.43,0,0,1-1.32,2.61h0a.76.76,0,0,0-.08.11A9.37,9.37,0,0,0,9.49,61.5a10.94,10.94,0,0,0,4.06,6.35c3.55,2.74,8.28,2.11,12.3,1a33.4,33.4,0,0,0,10.32-5.19c-3.58,4.84-6,10.44-6,16.56a10.59,10.59,0,0,0,2.07,6.23,11,11,0,0,0,6.36,4.08,9.37,9.37,0,0,0,5.88-1.39.39.39,0,0,0,.1-.08h0a9.34,9.34,0,0,1,11,0h0l.11.08a9.37,9.37,0,0,0,5.84,1.37,11,11,0,0,0,6.35-4.06c2.74-3.55,2.11-8.28,1-12.3a33.4,33.4,0,0,0-5.19-10.32c4.84,3.58,10.44,6,16.56,6a10.59,10.59,0,0,0,6.23-2.07,11,11,0,0,0,4.08-6.36A9.37,9.37,0,0,0,89.16,55.5ZM87.4,60.77a6.42,6.42,0,0,1-1.16,2.8c-2.45,3.95-7.45,3.82-11.51,3-6.52-1.43-12.16-5.25-17.14-9.65-.52-.49-1.05-1-1.58-1.43l-.39-.36a.31.31,0,0,0-.41,0l-.06,0a.34.34,0,0,0,0,.47l.3.34c.47.56,1,1.12,1.45,1.67a60.1,60.1,0,0,1,5.14,7,31.66,31.66,0,0,1,4.83,12.86c.5,3.35-.11,6.84-3.16,8.72a7,7,0,0,1-2.56,1.14,6.13,6.13,0,0,1-3.74-.93,12.25,12.25,0,0,0-14.63,0,6.21,6.21,0,0,1-3.53,1,6.42,6.42,0,0,1-2.8-1.16c-4-2.45-3.82-7.45-3-11.51,1.43-6.52,5.25-12.16,9.65-17.14.49-.52,1-1.05,1.43-1.58l.36-.39a.31.31,0,0,0,0-.41l0-.06a.34.34,0,0,0-.47,0l-.34.3c-.56.47-1.12,1-1.67,1.45a60.1,60.1,0,0,1-7,5.14,31.66,31.66,0,0,1-12.86,4.83c-3.35.5-6.84-.11-8.73-3.16a7.08,7.08,0,0,1-1.13-2.56,6.18,6.18,0,0,1,.1-1.66,6.05,6.05,0,0,1,.83-2.08A12.67,12.67,0,0,0,16,50.07a12.62,12.62,0,0,0-2.44-7.31,6.21,6.21,0,0,1-1-3.53,6.42,6.42,0,0,1,1.16-2.8c2.45-4,7.45-3.82,11.51-3,6.52,1.43,12.16,5.25,17.14,9.65.52.49,1.05,1,1.58,1.43l.39.36a.31.31,0,0,0,.41,0l.06,0a.35.35,0,0,0,0-.48l-.3-.33c-.47-.56-1-1.12-1.45-1.67a60.1,60.1,0,0,1-5.14-7,31.66,31.66,0,0,1-4.83-12.86c-.5-3.35.11-6.84,3.16-8.73a7.08,7.08,0,0,1,2.56-1.13,6.13,6.13,0,0,1,3.74.93,12.25,12.25,0,0,0,14.63,0,6.21,6.21,0,0,1,3.53-1,6.42,6.42,0,0,1,2.8,1.16c3.95,2.45,3.82,7.45,3,11.51-1.43,6.52-5.25,12.16-9.65,17.14-.49.52-1,1.05-1.43,1.58l-.36.39a.31.31,0,0,0,0,.41l0,.06a.34.34,0,0,0,.47,0l.34-.3c.56-.47,1.12-1,1.67-1.45a60.1,60.1,0,0,1,7-5.14,31.66,31.66,0,0,1,12.86-4.83c3.35-.5,6.84.11,8.73,3.16a7,7,0,0,1,1.13,2.56,6.17,6.17,0,0,1-.93,3.74,12.25,12.25,0,0,0,0,14.63A6.21,6.21,0,0,1,87.4,60.77Z" fill="#00a29a"/>
    <path d="M52,43c.81-4.92,1.54-9.55,1.54-10a3.6,3.6,0,0,0-7.2,0c0,.5.74,5.13,1.54,10A7.4,7.4,0,0,1,52,43Z" fill="#00a29a"/>
    <path d="M57.07,52.06c4.93.81,9.55,1.55,10.05,1.55a3.6,3.6,0,1,0,0-7.2c-.5,0-5.13.73-10,1.53A7.31,7.31,0,0,1,57.07,52.06Z" fill="#00a29a"/>
    <path d="M47.84,57C47,61.91,46.29,66.53,46.29,67a3.6,3.6,0,1,0,7.2,0c0-.5-.72-5.13-1.52-10.05A7.35,7.35,0,0,1,47.84,57Z" fill="#00a29a"/>
    <path d="M42.93,47.93c-4.92-.82-9.55-1.56-10-1.56a3.6,3.6,0,1,0,0,7.2c.5,0,5.13-.72,10.05-1.52A7.31,7.31,0,0,1,42.93,47.93Z" fill="#00a29a"/>
    <path d="M33.61.16c-.92,0-22.79-.5-30.87,14.64A24,24,0,0,0,0,25,8.75,8.75,0,0,0,2.33,31.6a5.94,5.94,0,0,0,4.16,1.93h.12a6.35,6.35,0,0,0,4.23-2.05,5.5,5.5,0,0,0,1.55-4,6.08,6.08,0,0,0-3.86-5.15.65.65,0,0,0-.86.35.65.65,0,0,0,.35.86,4.76,4.76,0,0,1,3.05,4,4.19,4.19,0,0,1-1.19,3,5,5,0,0,1-3.31,1.63,4.56,4.56,0,0,1-3.29-1.53,7.4,7.4,0,0,1-1.95-5.62A22.76,22.76,0,0,1,3.9,15.43c5.49-10.28,18.1-13,25-13.71A9.45,9.45,0,0,0,23.53,9h0A9.45,9.45,0,0,0,34.09,1.24a.59.59,0,0,0,.16-.4A.66.66,0,0,0,33.61.16Z" fill="#fcc800"/>
    <path d="M76.47,9h0a9.46,9.46,0,0,0-5.36-7.31c6.89.71,19.5,3.43,25,13.71a22.76,22.76,0,0,1,2.57,9.63,7.4,7.4,0,0,1-2,5.62,4.57,4.57,0,0,1-3.29,1.53,5,5,0,0,1-3.31-1.63,4.19,4.19,0,0,1-1.19-3,4.76,4.76,0,0,1,3-4,.65.65,0,0,0,.35-.86.65.65,0,0,0-.86-.35,6.08,6.08,0,0,0-3.86,5.15,5.5,5.5,0,0,0,1.55,4,6.35,6.35,0,0,0,4.23,2.05h.12a5.94,5.94,0,0,0,4.16-1.93A8.75,8.75,0,0,0,100,25,24,24,0,0,0,97.26,14.8C89.18-.34,67.31.14,66.39.16a.66.66,0,0,0-.64.68.56.56,0,0,0,.16.4A9.45,9.45,0,0,0,76.47,9Z" fill="#fcc800"/>
    <path d="M23.53,91a9.45,9.45,0,0,0,5.35,7.31C22,97.57,9.39,94.85,3.9,84.57a22.76,22.76,0,0,1-2.57-9.63,7.39,7.39,0,0,1,1.95-5.62,4.53,4.53,0,0,1,3.29-1.53,5,5,0,0,1,3.31,1.63,4.19,4.19,0,0,1,1.19,3,4.76,4.76,0,0,1-3.05,4,.66.66,0,0,0,.51,1.21,6.08,6.08,0,0,0,3.86-5.15,5.5,5.5,0,0,0-1.55-4,6.31,6.31,0,0,0-4.23-2A6,6,0,0,0,2.33,68.4,8.74,8.74,0,0,0,0,75,24,24,0,0,0,2.74,85.19c7.45,14,26.64,14.66,30.3,14.66h.57a.66.66,0,0,0,.64-.68.58.58,0,0,0-.16-.4A9.45,9.45,0,0,0,23.53,91Z" fill="#fcc800"/>
    <path d="M93.39,66.47a6.31,6.31,0,0,0-4.23,2,5.5,5.5,0,0,0-1.55,4,6.08,6.08,0,0,0,3.86,5.15A.66.66,0,1,0,92,76.43a4.76,4.76,0,0,1-3-4,4.19,4.19,0,0,1,1.19-3,5,5,0,0,1,3.31-1.63,4.57,4.57,0,0,1,3.29,1.53,7.39,7.39,0,0,1,2,5.62,22.76,22.76,0,0,1-2.57,9.63c-5.48,10.28-18.09,13-25,13.7A9.44,9.44,0,0,0,76.47,91a9.45,9.45,0,0,0-10.56,7.78.6.6,0,0,0-.16.41.66.66,0,0,0,.64.68H67c3.66,0,22.85-.69,30.3-14.66A24,24,0,0,0,100,75a8.74,8.74,0,0,0-2.31-6.61A5.92,5.92,0,0,0,93.39,66.47Z" fill="#fcc800"/>
  </g>
</svg>
