<svg xmlns="http://www.w3.org/2000/svg" width="200" height="200" viewBox="0 0 200 200">
  <path d="M76,42.75a56.52,56.52,0,0,1-7.39-.55,57,57,0,0,1-17.76-5.56,74,74,0,0,1-.66,17.87,73.32,73.32,0,0,1-2,8.71,63,63,0,0,1,13.88,3.71,64.23,64.23,0,0,1,22,14.53A57.74,57.74,0,0,1,75.6,56.18,56.37,56.37,0,0,1,76,42.75Z" fill="#00a29a"/>
  <path d="M151.87,62.76a56.38,56.38,0,0,1-1.6-7.24,57.11,57.11,0,0,1,.21-18.61,73.4,73.4,0,0,1-17.3,4.51,72.46,72.46,0,0,1-8.91.65,63.09,63.09,0,0,1,.45,14.36,64.34,64.34,0,0,1-7.58,25.26,57.85,57.85,0,0,1,21.74-15.47A56.29,56.29,0,0,1,151.87,62.76Z" fill="#00a29a"/>
  <path d="M156,139a55.9,55.9,0,0,1,6.32-3.87A57.27,57.27,0,0,1,180,129.32a73.38,73.38,0,0,1-13.39-23.11,63.29,63.29,0,0,1-13.43,5.09,64.58,64.58,0,0,1-26.35,1,57.75,57.75,0,0,1,21.68,15.54A56.13,56.13,0,0,1,156,139Z" fill="#00a29a"/>
  <path d="M84.44,167.51a56.64,56.64,0,0,1,16.76,19.72,73.83,73.83,0,0,1,17.73-20,63,63,0,0,1-9.05-11.15,64.4,64.4,0,0,1-9.27-24.69,57.76,57.76,0,0,1-7.93,25.47A56,56,0,0,1,84.44,167.51Z" fill="#00a29a"/>
  <path d="M35,109.13a55.51,55.51,0,0,1-2.7,6.9,56.89,56.89,0,0,1-10.56,15.32,73.69,73.69,0,0,1,16.88,5.91,73.28,73.28,0,0,1,7.75,4.43A62.93,62.93,0,0,1,54,129.53a64.29,64.29,0,0,1,20.38-16.74,57.8,57.8,0,0,1-26.67.71A56.74,56.74,0,0,1,35,109.13Z" fill="#00a29a"/>
  <circle cx="100.49" cy="103.76" r="11.9" fill="#00a29a"/>
  <g>
    <path d="M110.73,103.76h.19" fill="none" stroke="#fcc800" stroke-linecap="round" stroke-linejoin="round" stroke-width="2.83"/>
    <path d="M100.46,93.3A10.44,10.44,0,0,1,90.2,103.76a10.45,10.45,0,0,1,10.25,10.09v.36c0-.06,0-.12,0-.18s0,.12,0,.18v-.36a10.46,10.46,0,0,1,10.26-10.09A10.46,10.46,0,0,1,100.46,93.3Z" fill="none" stroke="#fcc800" stroke-linecap="round" stroke-linejoin="round" stroke-width="2.83"/>
  </g>
  <path d="M93.21,91.77l-.49-2c-3.66-14.86-5.3-27.55-5.3-29.1a13.21,13.21,0,0,1,26.41,0,147.75,147.75,0,0,1-5.57,29.13l-.52,1.83-1.4-.68A13.11,13.11,0,0,0,94.69,91Zm7.42-41.71A10.58,10.58,0,0,0,90.05,60.63,210,210,0,0,0,95,88a15.77,15.77,0,0,1,11-.07,147.33,147.33,0,0,0,5.15-27.3A10.58,10.58,0,0,0,100.63,50.06Z" fill="#0b318f"/>
  <path d="M100.63,88.81a14.55,14.55,0,0,1,3.7.49c1.73-10.55,3.42-21.1,3.42-22.17a7.13,7.13,0,1,0-14.25,0c0,1.07,1.69,11.62,3.42,22.17A14.63,14.63,0,0,1,100.63,88.81Z" fill="#0b318f"/>
  <path d="M122.48,47.25c.79,9.34-2.2,19.14-5.39,28.2a56.07,56.07,0,0,1-2.8,6.45,85.39,85.39,0,0,0-5.43,9.58l.44.33,0,0,.25.17A94.12,94.12,0,0,0,116.86,84a62.12,62.12,0,0,1,5.35-4.75c7.59-5.88,15.92-11.81,25-14,15.17-3.86,31.7-.19,44.89,8-11.56-11.91-30-18.48-46.48-14.41-8,1.87-15.12,6.3-21.13,11.75,3.29-7.46,5.26-15.67,4.51-23.86-1.34-16.94-13.43-32.37-28.4-39.56C112.61,17.09,121.34,31.62,122.48,47.25Z" fill="#eb6100"/>
  <path d="M163.61,112.76c15.63-6.65,26.44-23,28.52-39.49-5.6,14.51-16.61,27.39-31.07,33.43-6.95,2.91-14.53,3.77-22.5,3.83a81.58,81.58,0,0,1-11.81-.45l-1-.14a84,84,0,0,0-11-2.15l-.17.52.06,0-.09.31a90.68,90.68,0,0,0,10,4.44,61,61,0,0,1,6,3.47c8,5.32,16.26,11.34,21.25,19.27,8.48,13.16,10.26,30,6.65,45.11,7.62-14.74,8-34.32-1.11-48.65-4.29-6.93-10.72-12.28-17.76-16.24C147.74,116.79,156.11,116.05,163.61,112.76Z" fill="#eb6100"/>
  <path d="M117,162.12c-5-5.67-8.19-12.57-10.78-20.12a79.77,79.77,0,0,1-3.33-11.33c-.07-.32-.12-.65-.18-1a84.34,84.34,0,0,0-1.45-11.09h-.55v.07h-.32a92.71,92.71,0,0,0-1,10.79,77.94,77.94,0,0,1-3,12.65c-2.25,7.64-5.16,14.67-9.88,20.55-9.78,12.23-25.18,19.26-40.65,20.65,16.4,2.54,35.08-3.35,45.77-16.52,5.21-6.28,8.24-14.07,9.75-22,1.87,7.9,5.24,15.6,10.74,21.67,11.27,12.7,30.22,17.75,46.5,14.47C143,180.25,127.29,173.91,117,162.12Z" fill="#eb6100"/>
  <path d="M50.4,137.94C55,129.78,63,123.4,70.79,117.72a58.6,58.6,0,0,1,5.76-3.63,83.36,83.36,0,0,0,10.1-4.92l-.18-.52H86.4l-.11-.3a93.4,93.4,0,0,0-10.56,2.45,79.24,79.24,0,0,1-13,1.18c-8,.3-15.56-.23-22.63-2.83-14.7-5.39-26.27-17.75-32.5-32,2.81,16.36,14.33,32.2,30.22,38.15,7.61,2.94,16,3.33,24,2.24-6.89,4.28-13.12,9.92-17.12,17.07-8.46,14.73-7.22,34.3,1.06,48.69C41.49,168.39,42.5,151.47,50.4,137.94Z" fill="#eb6100"/>
  <path d="M52.16,67.14C61.36,68.94,70,74.5,77.81,80c4.91,3.5,8.9,7.86,13.37,12.07l.27-.22,0,0,.46-.32c-2.81-5.45-5.81-10.53-7.82-16.22C81,66.33,78,56.55,78.77,47.21c1.16-15.61,9.88-30.13,21.86-40-15,7.18-27,22.6-28.41,39.51-.79,8.6,1.4,17.23,5,25,.38.87.77,1.75,1.19,2.62-.75-.66-1.51-1.31-2.27-1.92C69.66,66.79,62,62.3,53.47,60.69,36.82,57.35,18.66,64.75,7.65,77.18,20.45,68.37,36.82,64,52.16,67.14Z" fill="#eb6100"/>
  <path d="M114.33,106.77l.2-1.55a13.1,13.1,0,0,0-.57-5.84,12.93,12.93,0,0,0-3.23-5.17L109.54,93l1.78-1.11c12.93-8.2,24.43-13.79,25.9-14.28a13.21,13.21,0,1,1,8.4,25,148.48,148.48,0,0,1-29.39,4Zm-.65-13.22A15.61,15.61,0,0,1,117.26,104a147,147,0,0,0,27.52-3.8,10.57,10.57,0,1,0-6.72-20C136.74,80.59,125.84,85.93,113.68,93.55Z" fill="#0b318f"/>
  <path d="M114.71,99.13a14.43,14.43,0,0,1,.71,3.67c10.55-1.71,21.1-3.46,22.11-3.8A7.13,7.13,0,0,0,133,85.48c-1,.34-10.49,5.3-19.94,10.3A14.31,14.31,0,0,1,114.71,99.13Z" fill="#0b318f"/>
  <path d="M126.4,151.45a13.21,13.21,0,0,1-10.55-5.24,149.07,149.07,0,0,1-13.12-26.6l-.69-1.77,1.53-.31a13,13,0,0,0,9.23-7.1l.73-1.5,1.62,1.33c11.87,9.65,20.84,18.78,21.77,20a13.2,13.2,0,0,1-10.52,21.17Zm-20.8-31.71A148,148,0,0,0,118,144.62a10.58,10.58,0,0,0,16.88-12.75A212.07,212.07,0,0,0,114.37,113a15.72,15.72,0,0,1-8.77,6.72Z" fill="#0b318f"/>
  <path d="M109.4,115.77a14.81,14.81,0,0,1-3.25,1.84c5,9.46,10,18.9,10.63,19.75a7.13,7.13,0,0,0,11.38-8.6c-.65-.85-8.36-8.25-16.1-15.62A14.41,14.41,0,0,1,109.4,115.77Z" fill="#0b318f"/>
  <path d="M76,152.48a13.2,13.2,0,0,1-10.88-20.66,148.65,148.65,0,0,1,21.05-20.9l1.45-1.21.78,1.35a13,13,0,0,0,9.68,6.49l1.64.22-.75,2c-5.37,14.33-11.17,25.73-12,27A13.18,13.18,0,0,1,76,152.48Zm11-38.8A147,147,0,0,0,67.3,133.31a10.58,10.58,0,0,0,17.46,11.94c.79-1.15,6.27-12,11.36-25.39A15.63,15.63,0,0,1,87,113.68Z" fill="#0b318f"/>
  <path d="M91.94,116a14.84,14.84,0,0,1-2.78-2.5c-7.39,7.72-14.74,15.48-15.35,16.36a7.13,7.13,0,1,0,11.77,8.05c.61-.88,5.17-10.55,9.69-20.23A14.67,14.67,0,0,1,91.94,116Z" fill="#0b318f"/>
  <path d="M87,107.5l-2.09-.09c-15.31-.54-28-2.42-29.45-2.84a13.21,13.21,0,1,1,7.21-25.41A147.47,147.47,0,0,1,89.15,92.47l1.61,1-1,1.16a13.06,13.06,0,0,0-3.08,11.24ZM59,81.28A10.58,10.58,0,0,0,56.15,102a211.47,211.47,0,0,0,27.69,2.7,15.41,15.41,0,0,1,.53-5.69,15.86,15.86,0,0,1,2.41-5,146.94,146.94,0,0,0-24.86-12.4A10.64,10.64,0,0,0,59,81.28Z" fill="#0b318f"/>
  <path d="M86.14,99.55a14.42,14.42,0,0,1,1.49-3.43c-9.68-4.54-19.37-9.05-20.4-9.34a7.13,7.13,0,0,0-3.89,13.72c1,.29,11.65,1.54,22.27,2.75A14.32,14.32,0,0,1,86.14,99.55Z" fill="#0b318f"/>
  <path d="M34.21,0H1.32A1.32,1.32,0,0,0,0,1.31v32.9a9.54,9.54,0,1,0,9.54-9.54,1.32,1.32,0,0,0,0,2.63,6.91,6.91,0,1,1-6.91,6.91V2.63H34.21A6.91,6.91,0,1,1,27.3,9.54a1.31,1.31,0,1,0-2.62,0A9.54,9.54,0,1,0,34.21,0Z" fill="#0b318f"/>
  <path d="M198.68,0H165.79a9.54,9.54,0,1,0,9.53,9.54,1.31,1.31,0,1,0-2.62,0,6.91,6.91,0,1,1-6.91-6.91h31.58V34.21a6.91,6.91,0,1,1-6.91-6.91,1.32,1.32,0,0,0,0-2.63A9.54,9.54,0,1,0,200,34.21V1.31A1.32,1.32,0,0,0,198.68,0Z" fill="#0b318f"/>
  <path d="M190.46,156.24a9.54,9.54,0,0,0,0,19.08,1.32,1.32,0,0,0,0-2.63,6.91,6.91,0,1,1,6.91-6.91v31.58H165.79a6.91,6.91,0,1,1,6.91-6.91,1.31,1.31,0,1,0,2.62,0,9.54,9.54,0,1,0-9.53,9.54h32.89a1.32,1.32,0,0,0,1.32-1.31v-32.9A9.55,9.55,0,0,0,190.46,156.24Z" fill="#0b318f"/>
  <path d="M34.21,180.91a9.54,9.54,0,0,0-9.53,9.54,1.31,1.31,0,1,0,2.62,0,6.91,6.91,0,1,1,6.91,6.91H2.63V165.78a6.91,6.91,0,1,1,6.91,6.91,1.32,1.32,0,0,0,0,2.63A9.54,9.54,0,1,0,0,165.78v32.9A1.32,1.32,0,0,0,1.32,200H34.21a9.54,9.54,0,0,0,0-19.08Z" fill="#0b318f"/>
</svg>
