<svg xmlns="http://www.w3.org/2000/svg" width="100" height="100" viewBox="0 0 100 100">
  <path d="M38,21.38a27.65,27.65,0,0,1-3.7-.28,28.43,28.43,0,0,1-8.88-2.78,36.55,36.55,0,0,1-.33,8.94,35.64,35.64,0,0,1-1,4.35,32,32,0,0,1,6.94,1.85,32.21,32.21,0,0,1,11,7.27A28.88,28.88,0,0,1,37.8,28.09,28.13,28.13,0,0,1,38,21.38Z" fill="#00a29a"/>
  <path d="M75.94,31.38a28.19,28.19,0,0,1-.8-3.62,28.54,28.54,0,0,1,.1-9.3,36.48,36.48,0,0,1-8.65,2.25,36.21,36.21,0,0,1-4.45.33,31.54,31.54,0,0,1,.22,7.18,32.06,32.06,0,0,1-3.79,12.62,29,29,0,0,1,10.87-7.73A28.11,28.11,0,0,1,75.94,31.38Z" fill="#00a29a"/>
  <path d="M78,69.52a28.11,28.11,0,0,1,3.16-1.93A28.45,28.45,0,0,1,90,64.67a37.25,37.25,0,0,1-5-7.45,38.81,38.81,0,0,1-1.75-4.11,30.87,30.87,0,0,1-6.72,2.54,32.18,32.18,0,0,1-13.17.52,28.87,28.87,0,0,1,10.84,7.77A27.64,27.64,0,0,1,78,69.52Z" fill="#00a29a"/>
  <path d="M42.22,83.76a29,29,0,0,1,2.83,2.39,28.38,28.38,0,0,1,5.55,7.47,36.81,36.81,0,0,1,5.52-7,37.29,37.29,0,0,1,3.35-3,31.71,31.71,0,0,1-9.16-17.92,29.07,29.07,0,0,1-4,12.74A28.25,28.25,0,0,1,42.22,83.76Z" fill="#00a29a"/>
  <path d="M17.49,54.57A27.89,27.89,0,0,1,16.13,58a28.3,28.3,0,0,1-5.28,7.66,37,37,0,0,1,8.44,2.95,37.24,37.24,0,0,1,3.88,2.22A31.62,31.62,0,0,1,27,64.77,32.09,32.09,0,0,1,37.18,56.4a28.86,28.86,0,0,1-13.34.35A28.2,28.2,0,0,1,17.49,54.57Z" fill="#00a29a"/>
  <circle cx="50.25" cy="51.88" r="5.95" fill="#00a29a"/>
  <g>
    <path d="M55.36,51.88h.1" fill="none" stroke="#fcc800" stroke-linecap="round" stroke-linejoin="round" stroke-width="2.83"/>
    <path d="M50.23,46.65a5.23,5.23,0,0,1-5.13,5.23,5.23,5.23,0,0,1,5.13,5V57s0,.06,0,.09v-.18a5.22,5.22,0,0,1,5.12-5A5.23,5.23,0,0,1,50.23,46.65Z" fill="none" stroke="#fcc800" stroke-linecap="round" stroke-linejoin="round" stroke-width="2.83"/>
  </g>
  <path d="M46.6,45.89l-.24-1a105.63,105.63,0,0,1-2.65-14.55,6.61,6.61,0,1,1,13.21,0,74.07,74.07,0,0,1-2.79,14.56l-.26.92-.7-.34a6.57,6.57,0,0,0-5.83,0ZM50.31,25A5.3,5.3,0,0,0,45,30.32,106,106,0,0,0,47.5,44,7.91,7.91,0,0,1,53,44,73.52,73.52,0,0,0,55.6,30.32,5.29,5.29,0,0,0,50.31,25Z" fill="#0b318f"/>
  <path d="M50.31,44.4a7.51,7.51,0,0,1,1.85.25c.87-5.27,1.72-10.55,1.72-11.08a3.57,3.57,0,1,0-7.13,0c0,.53.84,5.81,1.71,11.08A7.51,7.51,0,0,1,50.31,44.4Z" fill="#0b318f"/>
  <path d="M61.24,23.62c.39,4.68-1.1,9.57-2.69,14.11A29.81,29.81,0,0,1,57.15,41a42.73,42.73,0,0,0-2.72,4.79l.22.17,0,0,.12.09a47.05,47.05,0,0,0,3.63-4,33.46,33.46,0,0,1,2.67-2.37c3.8-2.94,8-5.91,12.52-7,7.59-1.93,15.85-.09,22.44,4-5.77-6-15-9.24-23.24-7.21a24.3,24.3,0,0,0-10.56,5.88,24.35,24.35,0,0,0,2.26-11.94C63.84,14.91,57.8,7.19,50.31,3.59,56.31,8.55,60.67,15.81,61.24,23.62Z" fill="#eb6100"/>
  <path d="M81.81,56.38C89.62,53.06,95,44.88,96.06,36.64c-2.79,7.25-8.3,13.69-15.53,16.71a29.3,29.3,0,0,1-11.25,1.92,40,40,0,0,1-5.9-.23L62.89,55A43.26,43.26,0,0,0,57.4,53.9l-.09.26h0l0,.16a46.92,46.92,0,0,0,5,2.22,33.26,33.26,0,0,1,3,1.73c4,2.66,8.13,5.67,10.62,9.64,4.24,6.58,5.13,15,3.33,22.56,3.81-7.38,4-17.17-.56-24.33A24.22,24.22,0,0,0,69.83,58,24.27,24.27,0,0,0,81.81,56.38Z" fill="#eb6100"/>
  <path d="M58.48,81.06a29.14,29.14,0,0,1-5.39-10,40.79,40.79,0,0,1-1.66-5.67c0-.16-.06-.33-.09-.49a43.23,43.23,0,0,0-.73-5.55h-.28v0h-.16a46.37,46.37,0,0,0-.52,5.39,39.55,39.55,0,0,1-1.5,6.33,29.2,29.2,0,0,1-4.94,10.28C38.32,87.46,30.62,91,22.88,91.67c8.2,1.27,17.54-1.67,22.89-8.26a24.33,24.33,0,0,0,4.88-11A24.25,24.25,0,0,0,56,83.24c5.63,6.35,15.11,8.87,23.25,7.24C71.5,90.13,63.64,87,58.48,81.06Z" fill="#eb6100"/>
  <path d="M25.2,69c2.32-4.07,6.32-7.27,10.19-10.11a28.91,28.91,0,0,1,2.88-1.81,42.2,42.2,0,0,0,5.06-2.46l-.1-.26h0l-.06-.15a48.64,48.64,0,0,0-5.28,1.23,39.51,39.51,0,0,1-6.47.59,29.25,29.25,0,0,1-11.31-1.42c-7.35-2.69-13.14-8.87-16.26-16C5.23,46.77,11,54.69,18.93,57.67a24.31,24.31,0,0,0,12,1.12,24.31,24.31,0,0,0-8.57,8.53c-4.23,7.37-3.61,17.15.53,24.35C20.74,84.2,21.25,75.74,25.2,69Z" fill="#eb6100"/>
  <path d="M26.08,33.57c4.6.9,8.9,3.68,12.82,6.45a65.38,65.38,0,0,1,6.69,6l.14-.11,0,0,.22-.16a66.21,66.21,0,0,1-3.9-8.11c-1.59-4.53-3.08-9.42-2.68-14.1.57-7.8,4.93-15.06,10.92-20-7.48,3.6-13.52,11.3-14.2,19.76A24.64,24.64,0,0,0,38.6,35.84c.19.43.39.87.6,1.31-.38-.33-.76-.66-1.14-1a24.62,24.62,0,0,0-11.33-5.83c-8.32-1.67-17.4,2-22.91,8.24C10.23,34.19,18.41,32,26.08,33.57Z" fill="#eb6100"/>
  <path d="M57.17,53.39l.1-.78A6.55,6.55,0,0,0,57,49.69a6.42,6.42,0,0,0-1.62-2.58l-.59-.59.89-.55a105.25,105.25,0,0,1,13-7.14A6.61,6.61,0,0,1,77,43a6.61,6.61,0,0,1-4.16,8.36,74.28,74.28,0,0,1-14.69,2Zm-.33-6.61A7.8,7.8,0,0,1,58.63,52a73.06,73.06,0,0,0,13.76-1.9,5.29,5.29,0,1,0-3.36-10A108.58,108.58,0,0,0,56.84,46.78Z" fill="#0b318f"/>
  <path d="M57.36,49.57a7.39,7.39,0,0,1,.35,1.83c5.28-.85,10.55-1.73,11.06-1.9a3.57,3.57,0,0,0-2.27-6.76c-.51.17-5.24,2.65-10,5.15A7.31,7.31,0,0,1,57.36,49.57Z" fill="#0b318f"/>
  <path d="M63.2,75.73a6.6,6.6,0,0,1-5.27-2.62,73.78,73.78,0,0,1-6.56-13.3L51,58.92l.77-.15a6.53,6.53,0,0,0,2.67-1.2,6.42,6.42,0,0,0,1.94-2.35l.37-.75.8.66a106.53,106.53,0,0,1,10.89,10A6.61,6.61,0,0,1,63.2,75.73ZM52.8,59.87A73.1,73.1,0,0,0,59,72.32a5.29,5.29,0,0,0,8.43-6.38,104.43,104.43,0,0,0-10.23-9.43,7.58,7.58,0,0,1-1.92,2.11A7.94,7.94,0,0,1,52.8,59.87Z" fill="#0b318f"/>
  <path d="M54.7,57.89a7.74,7.74,0,0,1-1.63.92c2.49,4.73,5,9.45,5.32,9.87a3.56,3.56,0,1,0,5.69-4.29c-.32-.43-4.18-4.13-8-7.82A7.23,7.23,0,0,1,54.7,57.89Z" fill="#0b318f"/>
  <path d="M38,76.24a6.52,6.52,0,0,1-3.71-1.15,6.61,6.61,0,0,1-1.73-9.18A74.71,74.71,0,0,1,43.09,55.47l.73-.61.39.67a6.41,6.41,0,0,0,2,2.16A6.54,6.54,0,0,0,49,58.78l.83.11-.38,1a106.69,106.69,0,0,1-6,13.5A6.61,6.61,0,0,1,38,76.24Zm5.48-19.4a73.53,73.53,0,0,0-9.83,9.82,5.29,5.29,0,1,0,8.73,6,106.83,106.83,0,0,0,5.68-12.7,7.79,7.79,0,0,1-4.58-3.09Z" fill="#0b318f"/>
  <path d="M46,58a7.6,7.6,0,0,1-1.39-1.25c-3.69,3.86-7.37,7.74-7.67,8.18a3.56,3.56,0,1,0,5.88,4c.3-.44,2.58-5.27,4.85-10.11A7.47,7.47,0,0,1,46,58Z" fill="#0b318f"/>
  <path d="M43.48,53.75l-1,0a106.16,106.16,0,0,1-14.72-1.42,6.61,6.61,0,0,1,3.6-12.71,74,74,0,0,1,13.25,6.66l.81.49-.52.59a6.43,6.43,0,0,0-1.41,2.57,6.54,6.54,0,0,0-.12,3Zm-14-13.11a5.32,5.32,0,0,0-5.08,3.85A5.29,5.29,0,0,0,28.07,51a105.13,105.13,0,0,0,13.85,1.35,7.78,7.78,0,0,1,1.47-5.32A72.82,72.82,0,0,0,31,40.85,5.19,5.19,0,0,0,29.51,40.64Z" fill="#0b318f"/>
  <path d="M43.07,49.78a7.57,7.57,0,0,1,.74-1.72c-4.83-2.27-9.68-4.52-10.19-4.67a3.57,3.57,0,1,0-1.95,6.86c.51.15,5.82.77,11.13,1.38A7.32,7.32,0,0,1,43.07,49.78Z" fill="#0b318f"/>
  <path d="M17.11,0H.66A.65.65,0,0,0,0,.66V17.1a4.77,4.77,0,1,0,4.77-4.76.66.66,0,1,0,0,1.31A3.46,3.46,0,1,1,1.31,17.1V1.31h15.8a3.46,3.46,0,1,1-3.46,3.46.66.66,0,1,0-1.31,0A4.77,4.77,0,1,0,17.11,0Z" fill="#0b318f"/>
  <path d="M99.34,0H82.89a4.77,4.77,0,1,0,4.77,4.77.66.66,0,1,0-1.31,0,3.46,3.46,0,1,1-3.46-3.46h15.8V17.1a3.46,3.46,0,1,1-3.46-3.45.66.66,0,1,0,0-1.31A4.77,4.77,0,1,0,100,17.1V.66A.65.65,0,0,0,99.34,0Z" fill="#0b318f"/>
  <path d="M95.23,78.13a4.77,4.77,0,1,0,0,9.53.66.66,0,1,0,0-1.31,3.46,3.46,0,1,1,3.46-3.45V98.69H82.89a3.46,3.46,0,1,1,3.46-3.46.66.66,0,1,0,1.31,0A4.77,4.77,0,1,0,82.89,100H99.34a.65.65,0,0,0,.66-.66V82.9A4.78,4.78,0,0,0,95.23,78.13Z" fill="#0b318f"/>
  <path d="M17.11,90.46a4.78,4.78,0,0,0-4.77,4.77.66.66,0,1,0,1.31,0,3.46,3.46,0,1,1,3.46,3.46H1.31V82.9a3.46,3.46,0,1,1,3.46,3.45.66.66,0,1,0,0,1.31A4.77,4.77,0,1,0,0,82.9V99.34a.65.65,0,0,0,.66.66H17.11a4.77,4.77,0,0,0,0-9.54Z" fill="#0b318f"/>
</svg>
