<svg xmlns="http://www.w3.org/2000/svg" width="100" height="100" viewBox="0 0 100 100">
  <g>
    <circle cx="50" cy="50" r="6.04" fill="#fcc800"/>
    <path d="M66.6,26a17.23,17.23,0,0,0-9.14-6.48C52.1,18.17,48.4,21,44.87,18.87c-4.15-2.49-5.38-8.58-5.38-8.58A21,21,0,0,1,41.1,8.48L50,0,60.35,10.55A22.12,22.12,0,0,1,66.6,26Z" fill="#fcc800"/>
    <path d="M74,66.6a17.23,17.23,0,0,0,6.48-9.14c1.36-5.36-1.46-9.06.66-12.59,2.49-4.15,8.58-5.38,8.58-5.38a21,21,0,0,1,1.81,1.61L100,50,89.45,60.35A22.12,22.12,0,0,1,74,66.6Z" fill="#fcc800"/>
    <path d="M33.4,74a17.23,17.23,0,0,0,9.14,6.48c5.36,1.36,9.06-1.46,12.59.66,4.15,2.49,5.38,8.58,5.38,8.58a21,21,0,0,1-1.61,1.81L50,100,39.65,89.45A22.12,22.12,0,0,1,33.4,74Z" fill="#fcc800"/>
    <path d="M26,33.4a17.23,17.23,0,0,0-6.48,9.14C18.17,47.9,21,51.6,18.87,55.13c-2.49,4.15-8.58,5.38-8.58,5.38A19.49,19.49,0,0,1,8.48,58.9L0,50,10.55,39.65A22.12,22.12,0,0,1,26,33.4Z" fill="#fcc800"/>
    <path d="M87.57,37.84A21.37,21.37,0,0,0,69.44,34a19.92,19.92,0,0,0-6,2.61A20.92,20.92,0,0,0,66.61,26C64,22.34,60,19.41,55.35,19.1c-2.66-.29-5.43.62-7.87.43-3.55-.39-5.57-3.4-6.93-6.69l-1-2.57-1.66,2.16A21.37,21.37,0,0,0,34,30.56a19.92,19.92,0,0,0,2.61,6.05A20.92,20.92,0,0,0,26,33.39C22.34,36,19.41,40,19.1,44.65c-.29,2.66.62,5.43.43,7.87-.39,3.55-3.4,5.57-6.69,6.93l-2.57,1,2.16,1.66A21.37,21.37,0,0,0,30.56,66a19.92,19.92,0,0,0,6.05-2.61A20.92,20.92,0,0,0,33.39,74C36,77.66,40,80.59,44.65,80.9c2.66.29,5.43-.62,7.87-.43,3.55.39,5.57,3.4,6.93,6.69l1,2.57,1.66-2.16A21.37,21.37,0,0,0,66,69.44a19.92,19.92,0,0,0-2.61-6A20.92,20.92,0,0,0,74,66.61C77.66,64,80.59,60,80.9,55.35c.29-2.66-.62-5.43-.43-7.87.39-3.55,3.4-5.57,6.69-6.93l2.57-1Zm-9.82,7a12.73,12.73,0,0,0-.23,6.68,12.61,12.61,0,0,1-.45,7,15,15,0,0,1-3.95,5.53,20.43,20.43,0,0,1-11.75-3.79c-2.16-1.63-4.16-3.54-6.29-5.24l.24.28L55,55.08c1,1.17,1.92,2.31,2.9,3.45a20.39,20.39,0,0,1,3.28,24.88,11.57,11.57,0,0,0-6-5.66,12.73,12.73,0,0,0-6.68-.23,12.61,12.61,0,0,1-7-.45,15,15,0,0,1-5.53-3.95,20.43,20.43,0,0,1,3.79-11.75c1.63-2.16,3.54-4.16,5.24-6.29l-.28.24.24-.28c-1.17,1-2.31,1.92-3.45,2.9a20.39,20.39,0,0,1-24.88,3.28,11.57,11.57,0,0,0,5.66-6,12.73,12.73,0,0,0,.23-6.68,12.61,12.61,0,0,1,.45-7,15,15,0,0,1,3.95-5.53,20.43,20.43,0,0,1,11.75,3.79c2.16,1.63,4.16,3.54,6.29,5.24l-.24-.28.28.24c-1-1.17-1.92-2.31-2.9-3.45a20.4,20.4,0,0,1-3.28-24.88,11.57,11.57,0,0,0,6,5.66,12.73,12.73,0,0,0,6.68.23,12.61,12.61,0,0,1,7,.45,15,15,0,0,1,5.53,3.95,20.43,20.43,0,0,1-3.79,11.75c-1.63,2.16-3.54,4.16-5.24,6.29l.28-.24-.24.28c1.17-1,2.31-1.92,3.45-2.9a20.4,20.4,0,0,1,24.88-3.28A11.57,11.57,0,0,0,77.75,44.83Z" fill="#0b318f"/>
    <path d="M50,42.65a7.29,7.29,0,0,1,3.19.74,4.27,4.27,0,1,0-6.38,0A7.29,7.29,0,0,1,50,42.65Z" fill="#0b318f"/>
    <path d="M57.35,50a7.29,7.29,0,0,1-.74,3.19,4.27,4.27,0,1,0,0-6.38A7.29,7.29,0,0,1,57.35,50Z" fill="#0b318f"/>
    <path d="M50,57.35a7.29,7.29,0,0,1-3.19-.74,4.27,4.27,0,1,0,6.38,0A7.26,7.26,0,0,1,50,57.35Z" fill="#0b318f"/>
    <path d="M42.65,50a7.22,7.22,0,0,1,.74-3.18,4.27,4.27,0,1,0-2.84,7.46,4.34,4.34,0,0,0,2.84-1.09A7.26,7.26,0,0,1,42.65,50Z" fill="#0b318f"/>
    <path d="M89.07,32.52a.66.66,0,0,1-.66-.66V11.59H68.14a.66.66,0,1,1,0-1.31H89.07a.65.65,0,0,1,.65.65V31.86A.66.66,0,0,1,89.07,32.52Z" fill="#fcc800"/>
    <path d="M86.33,32.52a.66.66,0,0,1-.65-.66V14.32H68.14a.66.66,0,1,1,0-1.31H86.33a.65.65,0,0,1,.66.66V31.86A.66.66,0,0,1,86.33,32.52Z" fill="#fcc800"/>
    <path d="M89.07,89.72H68.14a.66.66,0,1,1,0-1.31H88.41V68.14a.66.66,0,1,1,1.31,0V89.07A.65.65,0,0,1,89.07,89.72Z" fill="#fcc800"/>
    <path d="M86.33,87H68.14a.66.66,0,1,1,0-1.31H85.68V68.14a.66.66,0,1,1,1.31,0V86.33A.65.65,0,0,1,86.33,87Z" fill="#fcc800"/>
    <path d="M31.86,89.72H10.93a.65.65,0,0,1-.65-.65V68.14a.66.66,0,1,1,1.31,0V88.41H31.86a.66.66,0,1,1,0,1.31Z" fill="#fcc800"/>
    <path d="M31.86,87H13.67a.65.65,0,0,1-.66-.66V68.14a.66.66,0,1,1,1.31,0V85.68H31.86a.66.66,0,1,1,0,1.31Z" fill="#fcc800"/>
    <path d="M10.93,32.52a.66.66,0,0,1-.65-.66V10.93a.65.65,0,0,1,.65-.65H31.86a.66.66,0,1,1,0,1.31H11.59V31.86A.66.66,0,0,1,10.93,32.52Z" fill="#fcc800"/>
    <path d="M13.67,32.52a.66.66,0,0,1-.66-.66V13.67a.65.65,0,0,1,.66-.66H31.86a.66.66,0,1,1,0,1.31H14.32V31.86A.66.66,0,0,1,13.67,32.52Z" fill="#fcc800"/>
  </g>
</svg>
