<svg xmlns="http://www.w3.org/2000/svg" width="100" height="100" viewBox="0 0 100 100">
  <g>
    <rect x="45.52" y="45.51" width="8.97" height="8.97" transform="translate(-20.71 50) rotate(-45)" fill="#fcc800"/>
    <path d="M62.36,10.37a5.25,5.25,0,0,1-3.92-2.16.67.67,0,0,1,.15-.92.66.66,0,0,1,.92.16,3.89,3.89,0,0,0,3.11,1.6,3.67,3.67,0,0,0,3-3.51,4.27,4.27,0,0,0-2.45-3.78c-2.72-1.38-6.27.89-7.78,1.86a14.64,14.64,0,0,0-4.8,5.08A.66.66,0,0,1,50,9h0a.68.68,0,0,1-.57-.33,14.64,14.64,0,0,0-4.8-5.08c-1.51-1-5.06-3.24-7.78-1.86A4.27,4.27,0,0,0,34.4,5.54a3.67,3.67,0,0,0,3,3.51,3.87,3.87,0,0,0,3.11-1.6.66.66,0,0,1,.92-.16.68.68,0,0,1,.16.92,5.16,5.16,0,0,1-4.31,2.15,5,5,0,0,1-4.18-4.75,5.59,5.59,0,0,1,3.17-5c3.4-1.72,7.39.84,9.09,1.93A15.75,15.75,0,0,1,50,7.12a15.75,15.75,0,0,1,4.66-4.61c1.7-1.09,5.69-3.65,9.09-1.93a5.59,5.59,0,0,1,3.17,5,5,5,0,0,1-4.18,4.75Z" fill="#0b318f"/>
    <path d="M94.63,66.92h-.24a4.94,4.94,0,0,1-4.75-4.17,5.16,5.16,0,0,1,2.15-4.31.66.66,0,1,1,.76,1.08,3.84,3.84,0,0,0-1.6,3.1,3.67,3.67,0,0,0,3.51,3,4.31,4.31,0,0,0,3.79-2.45c1.37-2.73-.9-6.27-1.87-7.79a14.62,14.62,0,0,0-5.08-4.79.66.66,0,0,1,0-1.14,14.73,14.73,0,0,0,5.08-4.8c1-1.51,3.24-5.06,1.86-7.79a4.27,4.27,0,0,0-3.78-2.44,3.66,3.66,0,0,0-3.51,3,3.88,3.88,0,0,0,1.6,3.11.65.65,0,0,1,.16.91.66.66,0,0,1-.92.16,5.13,5.13,0,0,1-2.15-4.3,5,5,0,0,1,4.75-4.18,5.59,5.59,0,0,1,5,3.17c1.72,3.4-.84,7.39-1.93,9.09A15.86,15.86,0,0,1,92.88,50a15.83,15.83,0,0,1,4.61,4.65c1.09,1.71,3.65,5.7,1.93,9.09A5.61,5.61,0,0,1,94.63,66.92Z" fill="#0b318f"/>
    <path d="M38.76,100a5.48,5.48,0,0,1-2.5-.58,5.57,5.57,0,0,1-3.17-5,5,5,0,0,1,4.18-4.75,5.12,5.12,0,0,1,4.3,2.15.66.66,0,0,1-1.08.76,3.86,3.86,0,0,0-3.1-1.6,3.67,3.67,0,0,0-3,3.51,4.32,4.32,0,0,0,2.45,3.79c2.73,1.37,6.27-.9,7.79-1.87a14.52,14.52,0,0,0,4.79-5.08A.68.68,0,0,1,50,91h0a.66.66,0,0,1,.57.33,14.73,14.73,0,0,0,4.8,5.08c1.52,1,5.06,3.24,7.79,1.86a4.29,4.29,0,0,0,2.45-3.78,3.67,3.67,0,0,0-3-3.51,3.84,3.84,0,0,0-3.1,1.6.67.67,0,0,1-.92.16.66.66,0,0,1-.16-.92,5.11,5.11,0,0,1,4.3-2.15,5,5,0,0,1,4.18,4.75,5.57,5.57,0,0,1-3.17,5c-3.4,1.71-7.39-.84-9.09-1.93A16,16,0,0,1,50,92.88a15.83,15.83,0,0,1-4.65,4.61C44.05,98.32,41.43,100,38.76,100Z" fill="#0b318f"/>
    <path d="M5.38,66.93a5.63,5.63,0,0,1-4.8-3.18c-1.71-3.4.84-7.38,1.93-9.09A16,16,0,0,1,7.12,50a15.71,15.71,0,0,1-4.61-4.65c-1.09-1.7-3.65-5.69-1.93-9.09a5.59,5.59,0,0,1,5-3.17,5,5,0,0,1,4.75,4.18,5.15,5.15,0,0,1-2.15,4.3.66.66,0,1,1-.76-1.08,3.84,3.84,0,0,0,1.6-3.1,3.67,3.67,0,0,0-3.51-3,4.32,4.32,0,0,0-3.79,2.45c-1.37,2.73.9,6.28,1.87,7.79A14.52,14.52,0,0,0,8.7,49.43.68.68,0,0,1,9,50a.66.66,0,0,1-.33.57,14.73,14.73,0,0,0-5.08,4.8c-1,1.52-3.24,5.06-1.86,7.79a4.29,4.29,0,0,0,3.78,2.45,3.66,3.66,0,0,0,3.51-3,3.84,3.84,0,0,0-1.6-3.1.67.67,0,0,1-.16-.92.66.66,0,0,1,.92-.16,5.13,5.13,0,0,1,2.15,4.3,5,5,0,0,1-4.75,4.18Z" fill="#0b318f"/>
    <path d="M52,43.56l-2-2-2,2-.3-1.1c-1.9-7-5.1-19-5.1-20.3a7.15,7.15,0,0,1,.69-3.11,7.41,7.41,0,0,1,3-3.24c0-.11,0-.22,0-.33a3.68,3.68,0,0,1,7.35,0c0,.11,0,.22,0,.33a7.33,7.33,0,0,1,3.67,6.35c0,1.38-3.12,13.31-5,20.3ZM49.94,13.13a2.36,2.36,0,0,0-2.36,2.35,2.5,2.5,0,0,0,.07.54l.12.51-.47.23a6,6,0,0,0-3.37,5.4c0,.77,1.86,8.13,4.76,18.86L50,39.71,51.31,41C54.14,30.35,56,23,56,22.16a6.06,6.06,0,0,0-3.37-5.4l-.47-.23.12-.51a2.55,2.55,0,0,0,.06-.54A2.36,2.36,0,0,0,49.94,13.13Z" fill="#eb6100"/>
    <path d="M77.84,57.31h0c-1.38,0-13.3-3.14-20.29-5l-1.1-.3,2-2-2-2,1.1-.3c7-1.89,19-5.07,20.31-5.07h0a7.29,7.29,0,0,1,3.1.7,7.41,7.41,0,0,1,3.24,3h.32a3.68,3.68,0,0,1,2.59,6.28,3.64,3.64,0,0,1-2.59,1.07l-.33,0a7.31,7.31,0,0,1-6.35,3.66ZM59,51.32C69.65,54.17,77,56,77.84,56a6,6,0,0,0,5.4-3.36l.23-.47.51.12a2.46,2.46,0,0,0,.53.06h0A2.36,2.36,0,0,0,86.87,50a2.35,2.35,0,0,0-2.35-2.36h0a2.46,2.46,0,0,0-.53.06l-.51.12-.23-.47a6.07,6.07,0,0,0-2.85-2.81A5.84,5.84,0,0,0,77.85,44c-.77,0-8.13,1.85-18.87,4.73L60.29,50Z" fill="#eb6100"/>
    <path d="M50,88.19h0a3.65,3.65,0,0,1-2.59-1.08,3.6,3.6,0,0,1-1.07-2.61c0-.1,0-.21,0-.32A7.36,7.36,0,0,1,43.38,81a7.25,7.25,0,0,1-.74-3.22c0-1.39,3.17-13.3,5-20.28l.3-1.11,2,2,2-2,.3,1.09c1.88,7.05,5,19.05,5,20.33a7.14,7.14,0,0,1-.7,3.1,7.3,7.3,0,0,1-3,3.23c0,.11,0,.22,0,.33A3.69,3.69,0,0,1,50,88.19ZM48.67,59C45.8,69.64,44,77,44,77.82a6.16,6.16,0,0,0,.6,2.65,6.07,6.07,0,0,0,2.75,2.76l.47.24-.12.5a2.58,2.58,0,0,0-.07.54,2.38,2.38,0,0,0,.69,1.67,2.34,2.34,0,0,0,1.66.69h0a2.36,2.36,0,0,0,2.36-2.35,2.46,2.46,0,0,0-.06-.53l-.12-.51.47-.23A6,6,0,0,0,56,77.86c0-.77-1.84-8.13-4.7-18.88L50,60.29Z" fill="#eb6100"/>
    <path d="M22.13,57.26h0a7.29,7.29,0,0,1-3.1-.7,7.38,7.38,0,0,1-3.23-3,1.74,1.74,0,0,1-.32,0,3.68,3.68,0,0,1,0-7.35l.35,0A7.36,7.36,0,0,1,19,43.33a7.28,7.28,0,0,1,3.19-.73h0c1.44,0,14.66,3.55,20.28,5.08l1.1.3-2,2,2,2-1.1.29C35.41,54.12,23.42,57.26,22.13,57.26Zm-5.61-5.18.23.47a6,6,0,0,0,2.83,2.82,5.84,5.84,0,0,0,2.55.57c.77,0,8.14-1.82,18.89-4.67L39.71,50,41,48.65c-10.65-2.88-18-4.73-18.84-4.74h0a5.93,5.93,0,0,0-2.62.61,6,6,0,0,0-2.77,2.74l-.23.47L16,47.61a2,2,0,0,0-.54-.07,2.36,2.36,0,0,0,0,4.72,3.48,3.48,0,0,0,.54-.07Z" fill="#eb6100"/>
    <path d="M80.66,24.83a11.24,11.24,0,0,0-.86,2.63,7.36,7.36,0,0,0-1.89-3.81,6.63,6.63,0,0,0-.07,9.2A33.39,33.39,0,0,1,67.48,43.71a29.69,29.69,0,0,1-10,4L57.94,49c1.69-.56,3.62-.69,5.38-1.2C70.78,46,77.77,41,80.71,33.71a16.55,16.55,0,0,0,1.07-4.33,21.91,21.91,0,0,1,.42-3.94c.69-2.64,3-4.2,5.33-5.47A9,9,0,0,0,80.66,24.83Z" fill="#0b318f"/>
    <path d="M67.27,22.25c2.8,2.41,6.84,2.4,9.16-.08h0a7.32,7.32,0,0,0-3.73-1.89,11,11,0,0,0,2.53-.82,9,9,0,0,0,4.91-6.89c-1.27,2.29-2.86,4.65-5.51,5.34-1.73.46-3.65.2-5.46.65a19.17,19.17,0,0,0-8,3.88c-6.66,5.38-8.69,12-10.24,20l1.26.29c.49-1.75,1.06-3.52,1.68-5.22C56.18,31.48,61.64,25.44,67.27,22.25Z" fill="#0b318f"/>
    <path d="M75.27,80.51a11.56,11.56,0,0,0-2.58-.83,7.38,7.38,0,0,0,3.8-1.9,6.63,6.63,0,0,0-9.2,0,33.56,33.56,0,0,1-9.49-8.32,28.76,28.76,0,0,1-5.52-12.15l-1.51.37c.55,1.8.93,3.6,1.4,5.42C54,70.58,59,77.62,66.35,80.59a16.8,16.8,0,0,0,5.8,1.17,10.26,10.26,0,0,1,2.53.3,7.62,7.62,0,0,1,4.08,3c.53.72.94,1.52,1.46,2.32a7.19,7.19,0,0,0-.83-2.7A8.89,8.89,0,0,0,75.27,80.51Z" fill="#0b318f"/>
    <path d="M82.23,74.52c-.49-1.69-.23-3.64-.67-5.4a19,19,0,0,0-3.83-7.91,25.25,25.25,0,0,0-9-7.09c-3.43-1.66-7.16-2.26-10.8-3.17l-.34,1.43a36.81,36.81,0,0,1,5.21,1.56,27.25,27.25,0,0,1,8.82,5.62,30.36,30.36,0,0,1,6.27,7.57A6.62,6.62,0,0,0,78,76.29a7.41,7.41,0,0,0,1.86-3.74,11.29,11.29,0,0,0,.87,2.59A9,9,0,0,0,87.59,80C85.3,78.7,82.94,77.15,82.23,74.52Z" fill="#0b318f"/>
    <path d="M22.35,76.62a6.61,6.61,0,0,0,0-9.19A33.22,33.22,0,0,1,30.48,58a29.32,29.32,0,0,1,12-5.67l-.38-1.44c-1.77.54-3.56.9-5.38,1.39-7.45,1.9-14.39,7-17.25,14.31a16.57,16.57,0,0,0-1,4.33,21.17,21.17,0,0,1-.38,3.95,7.54,7.54,0,0,1-3,4.07c-.72.52-1.52.94-2.31,1.45a7.14,7.14,0,0,0,2.69-.83,9.13,9.13,0,0,0,4.13-4.09,11.29,11.29,0,0,0,.83-2.65A7.32,7.32,0,0,0,22.35,76.62Z" fill="#0b318f"/>
    <path d="M47.6,57.48c-.24,1-.43,1.86-.66,2.73a26.66,26.66,0,0,1-6.39,11.41A30.16,30.16,0,0,1,33,77.92a6.62,6.62,0,0,0-9.16.18,7.32,7.32,0,0,0,3.75,1.84,11,11,0,0,0-2.59.89,9,9,0,0,0-4.77,6.9c1.24-2.29,2.77-4.65,5.4-5.38,1.69-.5,3.64-.25,5.39-.69a19,19,0,0,0,7.9-3.88A26.22,26.22,0,0,0,47.84,63.3c.5-1.75.63-3.68,1.21-5.37Z" fill="#0b318f"/>
    <path d="M47.71,37c-1.88-7.51-7-14.47-14.36-17.37a16.69,16.69,0,0,0-5.81-1.11A10.8,10.8,0,0,1,25,18.19c-2.66-.65-4.28-3-5.59-5.26a9,9,0,0,0,5,6.82,12.29,12.29,0,0,0,2.59.8,7.26,7.26,0,0,0-3.77,1.94,6.62,6.62,0,0,0,9.2-.07A32.77,32.77,0,0,1,42,30.66c2.91,3.45,4.54,7.75,5.79,12L49,42.39C48.63,40.55,48.18,38.77,47.71,37Z" fill="#0b318f"/>
    <path d="M37.26,45.93a27.35,27.35,0,0,1-9-5.31A29.7,29.7,0,0,1,22,33.15,6.62,6.62,0,0,0,21.77,24,7.33,7.33,0,0,0,20,27.74a9.26,9.26,0,0,0-2.73-4.95,9,9,0,0,0-5.1-2.36c3.38,1.76,5.74,3.77,5.77,7.85C18.07,35,22.61,40.8,28,44.32a30.68,30.68,0,0,0,8.68,3.39c2,.36,3.52,1.07,5.58,1.09V47.52C40.68,47.36,38.84,46.42,37.26,45.93Z" fill="#0b318f"/>
    <path d="M50,40.64l.44.43c.88-5.25,2.79-16.74,2.79-17.51a3.23,3.23,0,0,0-6.46,0c0,.77,1.92,12.26,2.8,17.51Z" fill="#fcc800"/>
    <path d="M59.36,50l-.43.44c5.25.88,16.74,2.79,17.51,2.79a3.23,3.23,0,0,0,0-6.45c-.77,0-12.26,1.91-17.51,2.79Z" fill="#fcc800"/>
    <path d="M50,59.36l-.44-.43c-.88,5.25-2.8,16.74-2.8,17.5a3.23,3.23,0,0,0,6.46,0c0-.77-1.91-12.26-2.79-17.51Z" fill="#fcc800"/>
    <path d="M40.64,50l.43-.43c-5.25-.88-16.74-2.8-17.5-2.8a3.23,3.23,0,1,0,0,6.45c.77,0,12.26-1.9,17.51-2.78Z" fill="#fcc800"/>
    <path d="M50,60.29,39.71,50,50,39.71,60.29,50ZM41.57,50,50,58.43,58.43,50,50,41.57Z" fill="#00a29a"/>
  </g>
</svg>
