<svg xmlns="http://www.w3.org/2000/svg" width="100" height="100" viewBox="0 0 100 100">
  <g>
    <circle cx="50" cy="50" r="6.05" fill="#fcc800"/>
    <path d="M75.16,44.77h0C78.62,44.77,81,46.92,81,50s-2.42,5.23-5.88,5.23c-.53,0-3-.61-5.63-1.25-2.89-.72-6.74-1.67-11-2.56A8.51,8.51,0,0,0,58.68,50a8,8,0,0,0-.11-1.38c4.21-.9,8.06-1.86,10.95-2.58a57.58,57.58,0,0,1,5.64-1.27m0-1.32c-1.41,0-9,2.26-18.2,4.16a7.21,7.21,0,0,1,0,4.82c9.21,1.89,16.79,4.12,18.21,4.12,4,0,7.19-2.56,7.19-6.55s-3.21-6.55-7.19-6.55Z" fill="#66b5e6"/>
    <path d="M55.48,56.73c2.89,3.19,5.64,6.05,7.71,8.2a57.19,57.19,0,0,1,3.92,4.24c1.73,3,1.08,6.17-1.59,7.71a5.13,5.13,0,0,1-2.56.71,5.83,5.83,0,0,1-4.91-3.19,55.33,55.33,0,0,1-1.73-5.5c-.83-2.86-1.93-6.67-3.27-10.77a8.46,8.46,0,0,0,1.29-.61,8,8,0,0,0,1.14-.79m.07-1.89a7.44,7.44,0,0,1-1.87,1.54,7.18,7.18,0,0,1-2.31.85c3,8.93,4.83,16.61,5.54,17.83A7.12,7.12,0,0,0,63,78.91,6.4,6.4,0,0,0,66.18,78c3.45-2,4.06-6.06,2.07-9.51-.7-1.21-6.47-6.68-12.7-13.67Z" fill="#66b5e6"/>
    <path d="M44.49,56.71a9.38,9.38,0,0,0,1.17.81,8.38,8.38,0,0,0,1.25.59c-1.32,4.1-2.42,7.92-3.24,10.78C43,71.38,42.22,74,42,74.4A5.83,5.83,0,0,1,37,77.59a5.13,5.13,0,0,1-2.56-.71c-2.67-1.54-3.32-4.71-1.59-7.71a55.62,55.62,0,0,1,3.9-4.24c2.06-2.15,4.81-5,7.7-8.22m-.07-1.9c-6.24,7-12,12.48-12.67,13.7C29.76,72,30.37,76,33.82,78a6.4,6.4,0,0,0,3.22.89,7.12,7.12,0,0,0,6.05-3.85c.7-1.21,2.55-8.94,5.5-17.83a7.39,7.39,0,0,1-4.17-2.42Z" fill="#66b5e6"/>
    <path d="M24.84,44.77c.53,0,3,.61,5.63,1.25,2.89.72,6.74,1.67,11,2.56A8.51,8.51,0,0,0,41.32,50a8,8,0,0,0,.11,1.38c-4.21.9-8.06,1.86-10.95,2.58a57.58,57.58,0,0,1-5.64,1.27C21.38,55.23,19,53.08,19,50s2.42-5.23,5.88-5.23m0-1.32c-4,0-7.19,2.56-7.19,6.55s3.21,6.55,7.19,6.55c1.41,0,9-2.26,18.2-4.16a7.21,7.21,0,0,1,0-4.82c-9.21-1.89-16.79-4.12-18.21-4.12Z" fill="#66b5e6"/>
    <path d="M37,22.41A5.83,5.83,0,0,1,42,25.6a55.33,55.33,0,0,1,1.73,5.5C44.51,34,45.61,37.77,47,41.87a8.46,8.46,0,0,0-1.29.61,8,8,0,0,0-1.14.79c-2.89-3.2-5.64-6.05-7.71-8.2a57.19,57.19,0,0,1-3.92-4.24c-1.73-3-1.08-6.17,1.59-7.71A5.13,5.13,0,0,1,37,22.41m0-1.32a6.4,6.4,0,0,0-3.22.89c-3.45,2-4.06,6.06-2.07,9.51.7,1.21,6.47,6.68,12.7,13.67a7.44,7.44,0,0,1,1.87-1.54,7.18,7.18,0,0,1,2.31-.85c-3-8.93-4.83-16.61-5.54-17.83A7.12,7.12,0,0,0,37,21.09Z" fill="#66b5e6"/>
    <path d="M63,22.41a5.13,5.13,0,0,1,2.56.71c2.67,1.54,3.32,4.71,1.59,7.71a55.62,55.62,0,0,1-3.9,4.24c-2.06,2.15-4.81,5-7.7,8.22a9.38,9.38,0,0,0-1.17-.81,8.38,8.38,0,0,0-1.25-.59c1.32-4.1,2.42-7.92,3.24-10.78.72-2.49,1.45-5.06,1.72-5.51A5.83,5.83,0,0,1,63,22.41m0-1.32a7.12,7.12,0,0,0-6.05,3.85c-.7,1.21-2.55,8.94-5.5,17.83a7.39,7.39,0,0,1,4.17,2.42c6.24-7,12-12.48,12.67-13.7C70.24,28,69.63,24,66.18,22A6.4,6.4,0,0,0,63,21.09Z" fill="#66b5e6"/>
    <path d="M57.37,50c0,.21,0,.42,0,.62C63.79,51.91,72.14,54,72.93,54a4,4,0,0,0,0-7.9c-.79,0-9.14,2-15.59,3.33C57.35,49.58,57.37,49.79,57.37,50Z" fill="#66b5e6"/>
    <path d="M53.68,56.38a4.07,4.07,0,0,1-.55.28C55.24,62.9,57.65,71.15,58,71.83a4,4,0,0,0,6.85-4C64.49,67.2,58.55,61,54.21,56A4.79,4.79,0,0,1,53.68,56.38Z" fill="#66b5e6"/>
    <path d="M46.32,56.38a4.79,4.79,0,0,1-.53-.34C41.45,61,35.51,67.2,35.11,67.88a4,4,0,0,0,6.85,4c.39-.68,2.8-8.93,4.91-15.17A4.07,4.07,0,0,1,46.32,56.38Z" fill="#66b5e6"/>
    <path d="M42.63,50c0-.21,0-.42,0-.62-6.45-1.29-14.8-3.33-15.59-3.33a4,4,0,1,0,0,7.9c.79,0,9.14-2,15.59-3.33C42.65,50.42,42.63,50.21,42.63,50Z" fill="#66b5e6"/>
    <path d="M46.32,43.62a4.07,4.07,0,0,1,.55-.28C44.76,37.1,42.35,28.85,42,28.17a4,4,0,1,0-6.85,3.95c.4.68,6.34,6.89,10.68,11.84A4.79,4.79,0,0,1,46.32,43.62Z" fill="#66b5e6"/>
    <path d="M53.68,43.62a4.79,4.79,0,0,1,.53.34c4.34-5,10.28-11.16,10.68-11.84A4,4,0,0,0,58,28.17c-.39.68-2.8,8.93-4.91,15.17A4.07,4.07,0,0,1,53.68,43.62Z" fill="#66b5e6"/>
    <path d="M50.78,57.32c1.33,6,2.72,12,4.51,17.95,1.33,4.29,2.77,8.65,5.17,12.43.24.31.56.84.82,1.12,1.68,2.22,4.33,2.88,7,3,5.64.17,10.07-4.68,10.23-10.14-.3-5.78-9.46-14.65-13.57-18.8C62,59.91,59,57.14,56,54.34c7.83,5.12,15.28,11,21.34,18.16a28.26,28.26,0,0,1,3.14,4.77,10.53,10.53,0,0,1,1.2,4.33C81.63,89,75.7,95.27,68.25,95c-3.42,0-7.36-1.41-9.35-4.34-.13-.16-.38-.51-.49-.69-5.16-8.09-7.12-23.09-7.63-32.67Z" fill="#0b318f"/>
    <path d="M56.73,53c5.9,1.88,11.79,3.67,17.8,5.08,4.38,1,8.87,1.92,13.35,1.73.38,0,1-.06,1.38-.15,2.76-.35,4.66-2.31,6-4.58,3-4.81,1-11.06-3.67-13.94-5.14-2.63-17.41.88-23.06,2.36-4,1.05-7.9,2.3-11.85,3.54a110.75,110.75,0,0,1,11.34-5.08,71.83,71.83,0,0,1,16.66-4.53c2.88-.26,5.75-.4,8.45,1,6.37,3.67,8.87,12,4.93,18.3-1.75,2.93-4.9,5.66-8.43,5.92-.21,0-.63.07-.85.08-9.58.43-23.55-5.38-32.1-9.73Z" fill="#0b318f"/>
    <path d="M44.05,54.34C39.48,58.51,35,62.71,30.76,67.21c-3.05,3.3-6.11,6.73-8.18,10.7-.14.36-.45.9-.56,1.27-1.08,2.56-.33,5.19.94,7.53,2.68,5,9.09,6.38,13.91,3.79,4.84-3.12,8-15.53,9.49-21.15,1.08-4,2-8,2.86-12C48.7,66.66,47.37,76,44.16,84.89A28,28,0,0,1,41.59,90a10.29,10.29,0,0,1-3.14,3.2c-6.36,3.68-14.8,1.7-18.31-4.88-1.88-3.43-2.5-7.49-.56-11C24,68.77,36,59.57,44.05,54.34Z" fill="#0b318f"/>
    <path d="M43.27,47c-5.9-1.88-11.79-3.67-17.8-5.08C21.09,41,16.6,40,12.12,40.21c-.38,0-1,.06-1.38.15-2.76.35-4.66,2.31-6,4.58-3,4.81-1,11.06,3.67,13.94,5.14,2.63,17.41-.88,23.06-2.36,4-1.05,7.9-2.3,11.85-3.54a110.75,110.75,0,0,1-11.34,5.08,71.83,71.83,0,0,1-16.66,4.53c-2.88.26-5.75.4-8.45-1C.45,57.92-2,49.62,1.89,43.29c1.75-2.93,4.9-5.66,8.43-5.92.21,0,.63-.07.85-.08,9.58-.43,23.55,5.38,32.1,9.73Z" fill="#0b318f"/>
    <path d="M49.22,42.68c-1.33-6-2.72-12-4.51-17.95-1.33-4.29-2.77-8.65-5.17-12.43-.24-.31-.56-.84-.82-1.12C37,9,34.39,8.3,31.72,8.23c-5.64-.17-10.07,4.68-10.23,10.14C21.79,24.15,31,33,35.06,37.17c2.9,2.92,5.94,5.69,9,8.49-7.83-5.12-15.28-11-21.34-18.16a28.26,28.26,0,0,1-3.14-4.77,10.53,10.53,0,0,1-1.2-4.33C18.37,11.05,24.3,4.73,31.75,5c3.42,0,7.36,1.41,9.35,4.34.13.16.38.51.49.69,5.16,8.09,7.12,23.09,7.63,32.67Z" fill="#0b318f"/>
    <path d="M56,45.66c4.57-4.17,9.07-8.37,13.29-12.87,3.05-3.3,6.11-6.73,8.18-10.7.14-.36.45-.9.56-1.27,1.08-2.56.33-5.19-.94-7.53C74.36,8.31,68,6.91,63.13,9.5c-4.84,3.12-8,15.53-9.49,21.15-1.08,4-2,8-2.86,12,.52-9.34,1.85-18.71,5.06-27.57A28,28,0,0,1,58.41,10a10.29,10.29,0,0,1,3.14-3.2c6.36-3.68,14.8-1.7,18.31,4.88,1.88,3.43,2.5,7.49.56,11C76,31.23,64,40.43,56,45.66Z" fill="#0b318f"/>
  </g>
</svg>
