<svg xmlns="http://www.w3.org/2000/svg" width="100" height="100" viewBox="0 0 100 100">
  <g>
    <path d="M36.34,26.76c-1.78-1.86-2.79-3.15-6.39-4.5a8,8,0,0,0-5.54,0,35.15,35.15,0,0,1,.78-5.14,25.7,25.7,0,0,1,1.95-5.22,29.32,29.32,0,0,1,5.34.52A29.72,29.72,0,0,1,37.69,14c-1.49,1.48-2,2.46-2.19,5.38A16.78,16.78,0,0,0,36.34,26.76Z" fill="#fcc800"/>
    <path d="M63.68,26.77c.75-2.46,1.39-4,.82-7.77a8,8,0,0,0-2.72-4.84,37.39,37.39,0,0,1,4.88-1.81,26,26,0,0,1,5.51-.82,29,29,0,0,1,2.14,4.91,29.64,29.64,0,0,1,1.2,5.3c-2-.59-3.15-.6-5.76.69C66.45,24.07,65.34,24.94,63.68,26.77Z" fill="#fcc800"/>
    <path d="M77,50.17c2.51-.58,4.15-.79,7.14-3.19a7.94,7.94,0,0,0,2.82-4.78,37.05,37.05,0,0,1,4,3.31,26,26,0,0,1,3.48,4.35,29.41,29.41,0,0,1-3.17,4.32,29.93,29.93,0,0,1-4,3.69c-.51-2-1.06-3-3.5-4.63C80.68,51.21,79.38,50.69,77,50.17Z" fill="#fcc800"/>
    <path d="M63.42,73.37c1.77,1.88,2.77,3.19,6.35,4.56a8,8,0,0,0,5.55,0,36.6,36.6,0,0,1-.84,5.13,25.76,25.76,0,0,1-2,5.19A28.95,28.95,0,0,1,62,86.15c1.5-1.46,2.08-2.44,2.24-5.35A16.71,16.71,0,0,0,63.42,73.37Z" fill="#fcc800"/>
    <path d="M36.61,73.39c-.73,2.47-1.35,4-.72,7.79A7.94,7.94,0,0,0,38.66,86a37,37,0,0,1-4.85,1.87,26,26,0,0,1-5.5.9,29.69,29.69,0,0,1-2.2-4.89,28.66,28.66,0,0,1-1.26-5.28c2,.55,3.15.56,5.75-.77C33.87,76.13,35,75.25,36.61,73.39Z" fill="#fcc800"/>
    <path d="M23.05,49.79c-2.51.57-4.15.78-7.14,3.18a8,8,0,0,0-2.83,4.77,37.05,37.05,0,0,1-4-3.31A25.06,25.06,0,0,1,5.6,50.07a28.8,28.8,0,0,1,3.18-4.31,29.93,29.93,0,0,1,4-3.69c.51,2,1.06,3,3.49,4.64C19.32,48.74,20.62,49.27,23.05,49.79Z" fill="#fcc800"/>
    <circle cx="50" cy="50" r="6.01" fill="#fcc800"/>
    <path d="M93.57,26.2a1.58,1.58,0,0,0-1-1.75,19.09,19.09,0,0,0-13.2-.15,17.93,17.93,0,0,0-2.28,1,5.23,5.23,0,0,0-2-4.53c-2.15-1.39-4.72-.07-6.6,1a18.05,18.05,0,0,0-4.47,3.6c1.06-3.74,1.73-9.83-1.18-11.62a5,5,0,0,0-4.8.45A19,19,0,0,0,51.1.37a1.57,1.57,0,0,0-2,0,19,19,0,0,0-7,13.85c-2-1.14-4.61-1.53-6.15.49a5.85,5.85,0,0,0-1,2.66,18.68,18.68,0,0,0,0,5,17.46,17.46,0,0,0,.62,2.8c-2.74-2.75-7.45-6.12-10.36-4.56a4.94,4.94,0,0,0-2,4.37A19.06,19.06,0,0,0,7.7,24a1.57,1.57,0,0,0-1,1.74,19.06,19.06,0,0,0,6.43,11.54,19.24,19.24,0,0,0,2,1.48,5.21,5.21,0,0,0-3,3.94C12,45.27,14.45,46.84,16.31,48A17.89,17.89,0,0,0,21.54,50c-5.3,1.33-13.41,5.64-7.1,10.41.15.11.32.21.48.31A19,19,0,0,0,6.35,73.64a1.57,1.57,0,0,0,1,1.76,19.12,19.12,0,0,0,13.21.2,18.72,18.72,0,0,0,2.29-1,5.21,5.21,0,0,0,1.93,4.54c2.15,1.4,4.72.08,6.61-1A18.21,18.21,0,0,0,36.1,74.3c-1.11,3.7-1.9,10.13,1.1,12A4.94,4.94,0,0,0,42,85.8a19.05,19.05,0,0,0,7,13.83,1.57,1.57,0,0,0,2,0,19,19,0,0,0,7-13.85c2,1.13,4.61,1.51,6.15-.51a5.79,5.79,0,0,0,1-2.66,18.67,18.67,0,0,0,0-5,17.57,17.57,0,0,0-.73-3.13C67.1,77.25,72,80.83,75,79.21a5,5,0,0,0,2-4.39,19.05,19.05,0,0,0,15.47.85,1.56,1.56,0,0,0,1-1.75A19.07,19.07,0,0,0,87,62.43,20.4,20.4,0,0,0,85,61a5.21,5.21,0,0,0,2.93-4c.12-2.56-2.32-4.11-4.19-5.2a17.62,17.62,0,0,0-5-2c5.29-1.41,13.07-5.69,6.84-10.38L85,39.14A19,19,0,0,0,93.57,26.2ZM82.39,38.34a1,1,0,0,0,.14,1.82,7.9,7.9,0,0,1,1.86.93c2,1.44,1.88,2.61,0,4.1a19.62,19.62,0,0,1-8.18,3.58c-1,.18-2,.32-3.08.43-2.05-.05-4.08,0-6.1.14-1.25,0-2.5.13-3.76.21-1.91,0-3.82-.06-5.71-.06a.33.33,0,0,0-.24.56.31.31,0,0,0,.23.52c2.26,0,4.51,0,6.77,0,2.46.12,4.92.19,7.39.1a23.84,23.84,0,0,1,9,1.76c2.49,1.26,7.64,3.76,3.65,6.56a8.48,8.48,0,0,1-1.86,1,1,1,0,0,0-.14,1.75,16.89,16.89,0,0,1,3.1,2.4,16.29,16.29,0,0,1,4.59,9,16.28,16.28,0,0,1-13.68-1,1,1,0,0,0-1.5,1A8.18,8.18,0,0,1,75,75.23c-.22,2.48-1.31,3-3.55,2A19.68,19.68,0,0,1,64.25,72c-.87-1-1.68-2.11-2.47-3.21-.86-1.51-1.8-3-2.7-4.4-.49-.77-1-1.52-1.5-2.29-1.13-1.95-2.22-3.93-3.34-5.86a.33.33,0,0,0-.61.11.31.31,0,0,0-.36.45c1.43,2.43,2.83,4.87,4.23,7.31q.91,1.73,1.92,3.42c1.79,3.24,3.47,6.59,3.83,10.27.16,2.79.56,8.5-3.86,6.44a8.48,8.48,0,0,1-1.79-1.12A1,1,0,0,0,56,83.9a17.36,17.36,0,0,1-.53,3.88A16.26,16.26,0,0,1,50,96.24a16.27,16.27,0,0,1-6-12.36,1,1,0,0,0-1.65-.76,7.83,7.83,0,0,1-1.74,1.15c-2.25,1-3.2.34-3.55-2a19.75,19.75,0,0,1,1-8.88,48.45,48.45,0,0,1,2.4-5.5C41,66.9,41.45,66,42,65c.09-.17.18-.34.26-.51,1.46-2.6,3-5.15,4.48-7.69a.33.33,0,0,0-.43-.47.31.31,0,0,0-.57-.13q-2.38,4.13-4.81,8.2c-2.4,3.92-4.71,8.17-8.52,10.86C30,76.78,25.25,80,24.85,75.09A8.85,8.85,0,0,1,24.94,73a.94.94,0,0,0-.11-.61A1,1,0,0,0,23.5,72a16.38,16.38,0,0,1-3.63,1.45A16.22,16.22,0,0,1,9.8,72.84a16.24,16.24,0,0,1,7.77-11.29,1,1,0,0,0-.13-1.82,8.4,8.4,0,0,1-1.87-.94c-.88-.66-1.88-1.57-1.29-2.67,1.11-1.73,3.3-2.78,5.18-3.66a24.74,24.74,0,0,1,8-1.82c1.84,0,3.66,0,5.48-.11.86,0,1.72-.08,2.57-.12,2.3,0,4.6,0,6.9.08a.33.33,0,0,0,.22-.58.31.31,0,0,0-.21-.54q-4.11,0-8.22,0-2.19-.1-4.38-.09c-3.62-.1-7.27-.36-10.56-1.88-2.48-1.28-7.62-3.82-3.6-6.59a8.73,8.73,0,0,1,1.87-1,.91.91,0,0,0,.47-.4A1,1,0,0,0,17.72,38a17,17,0,0,1-3.08-2.42,16.34,16.34,0,0,1-4.52-9,16.27,16.27,0,0,1,13.67,1.08,1,1,0,0,0,1.51-1,8.16,8.16,0,0,1-.12-2.08c.24-2.48,1.33-2.93,3.57-2a19.73,19.73,0,0,1,7.17,5.32c.62.74,1.21,1.52,1.78,2.31,1,1.86,2.15,3.65,3.25,5.39.71,1.12,1.44,2.23,2.17,3.34.9,1.61,1.79,3.22,2.68,4.79a.33.33,0,0,0,.61-.07.31.31,0,0,0,.33-.46c-1.08-1.84-2.14-3.69-3.2-5.54-1.21-2.41-2.48-4.78-3.92-7.06a23.37,23.37,0,0,1-2.82-8.42c-.15-2.78-.54-8.5,3.88-6.43a8.42,8.42,0,0,1,1.78,1.12.94.94,0,0,0,.59.21,1,1,0,0,0,1-1,16.8,16.8,0,0,1,.53-3.88,16.26,16.26,0,0,1,5.51-8.45,16.29,16.29,0,0,1,6,12.37,1,1,0,0,0,1.64.77,7.94,7.94,0,0,1,1.74-1.15c2.26-1.05,3.21-.33,3.55,2.06a19.73,19.73,0,0,1-1,8.87c-.48,1.31-1,2.6-1.62,3.87C59.54,32,58.76,33.49,58,35c-.39.74-.76,1.5-1.14,2.24-1.17,2-2.38,4-3.53,6a.33.33,0,0,0,.4.48.31.31,0,0,0,.57.09q2.24-3.9,4.51-7.76c.5-.8,1-1.6,1.45-2.42,2-3.33,4.13-6.66,7.3-8.92,2.35-1.52,7.09-4.71,7.51.15A8.84,8.84,0,0,1,75,26.93a.94.94,0,0,0,.11.61,1,1,0,0,0,1.33.38,16.92,16.92,0,0,1,3.63-1.46A16.29,16.29,0,0,1,90.12,27,16.28,16.28,0,0,1,82.39,38.34Z" fill="#eb6100"/>
    <path d="M48.51,42.61h0a7.89,7.89,0,0,1,3,0h0a17.53,17.53,0,0,0,.75-2.76A17.24,17.24,0,0,0,52.45,35a25.92,25.92,0,0,0-1.06-4.53c-.34-1.26-.82-3.1-1.39-5.37-.57,2.27-1,4.11-1.39,5.37A25.92,25.92,0,0,0,47.55,35a17.24,17.24,0,0,0,.21,4.83A17.53,17.53,0,0,0,48.51,42.61Z" fill="#fcc800"/>
    <path d="M55.67,45h0a7.87,7.87,0,0,1,.87,1.22,8.12,8.12,0,0,1,.61,1.35h0a17.85,17.85,0,0,0,2.77-.72,17.21,17.21,0,0,0,4.3-2.22,26.06,26.06,0,0,0,3.4-3.17c.93-.92,2.28-2.26,4-3.88-2.25.64-4.09,1.13-5.35,1.46a25.16,25.16,0,0,0-4.46,1.34A17,17,0,0,0,57.69,43,16.55,16.55,0,0,0,55.67,45Z" fill="#fcc800"/>
    <path d="M57.14,52.4h0a8.12,8.12,0,0,1-.61,1.35A7.78,7.78,0,0,1,55.66,55h0a16.37,16.37,0,0,0,2,2,17.32,17.32,0,0,0,4.09,2.59A25,25,0,0,0,66.21,61c1.26.33,3.09.83,5.34,1.47-1.68-1.63-3-3-4-3.89a26.38,26.38,0,0,0-3.4-3.18,17.14,17.14,0,0,0-4.29-2.23A16.7,16.7,0,0,0,57.14,52.4Z" fill="#fcc800"/>
    <path d="M51.52,57.38h0a7.14,7.14,0,0,1-1.48.15,6.63,6.63,0,0,1-1.48-.14h0a16.93,16.93,0,0,0-.75,2.77A17.53,17.53,0,0,0,47.62,65a26.27,26.27,0,0,0,1.07,4.53c.35,1.26.84,3.09,1.42,5.36.56-2.27,1-4.11,1.37-5.37a26.08,26.08,0,0,0,1-4.54,17.54,17.54,0,0,0-.22-4.83A17.28,17.28,0,0,0,51.52,57.38Z" fill="#fcc800"/>
    <path d="M44.39,55h0a6.62,6.62,0,0,1-.88-1.2,7.48,7.48,0,0,1-.63-1.35h0a18.07,18.07,0,0,0-2.76.75,17.32,17.32,0,0,0-4.27,2.28,25.9,25.9,0,0,0-3.38,3.2c-.91.94-2.24,2.29-3.91,3.93,2.24-.67,4.07-1.18,5.33-1.52a26.13,26.13,0,0,0,4.44-1.39,17.16,17.16,0,0,0,4.06-2.63A16.86,16.86,0,0,0,44.39,55Z" fill="#fcc800"/>
    <path d="M42.88,47.55h0a8.18,8.18,0,0,1,.62-1.35A8.33,8.33,0,0,1,44.38,45h0a17.17,17.17,0,0,0-6.06-4.67,25.72,25.72,0,0,0-4.45-1.39c-1.25-.34-3.08-.85-5.33-1.51,1.67,1.64,3,3,3.92,3.92a25.9,25.9,0,0,0,3.38,3.2,17.38,17.38,0,0,0,4.27,2.27A18.15,18.15,0,0,0,42.88,47.55Z" fill="#fcc800"/>
  </g>
</svg>
