<svg xmlns="http://www.w3.org/2000/svg" width="200" height="200" viewBox="0 0 200 200">
  <g>
    <path d="M93,87.06c-5.88-8.18-11.44-15.84-12.16-16.55A7.28,7.28,0,0,0,70.54,80.8c.72.71,8.38,6.27,16.56,12.15A14.9,14.9,0,0,1,93,87.06Z" fill="#00a29a"/>
    <circle cx="100.02" cy="99.98" r="12.1" fill="#00a29a"/>
    <path d="M49.84,49.91s0,0,0,0c-3.22-3.65-3.34-8.56-.32-11.59l.12-.1a11.17,11.17,0,0,0-7.59-4.07l-8.6-.65L34.2,43a11,11,0,0,0,3.56,7.13l.13-.15A8.82,8.82,0,0,1,49.84,49.91Z" fill="#00a29a"/>
    <path d="M150.19,49.9a0,0,0,1,0,0,0c3.66-3.21,8.58-3.32,11.59-.3a1.31,1.31,0,0,0,.11.12A11.13,11.13,0,0,0,166,42.17l.67-8.6-9.5.7A11,11,0,0,0,150,37.82a1.66,1.66,0,0,1,.14.13A8.81,8.81,0,0,1,150.19,49.9Z" fill="#00a29a"/>
    <path d="M150,150.25s-.06,0,0,0c3.21,3.66,3.31,8.58.28,11.59l-.12.11a11.09,11.09,0,0,0,7.57,4.09l8.6.69-.68-9.5a11.09,11.09,0,0,0-3.53-7.15l-.13.15A8.81,8.81,0,0,1,150,150.25Z" fill="#00a29a"/>
    <path d="M50,150.18a0,0,0,0,0,0,0c-3.65,3.22-8.57,3.35-11.59.33a1.31,1.31,0,0,0-.11-.12A11.17,11.17,0,0,0,34.18,158l-.65,8.6,9.5-.72a11.08,11.08,0,0,0,7.14-3.56c-.05-.05-.11-.09-.15-.14A8.81,8.81,0,0,1,50,150.18Z" fill="#00a29a"/>
    <circle cx="20.7" cy="20.74" r="4.18" fill="#00a29a"/>
    <circle cx="16.37" cy="62.49" r="4.18" fill="#00a29a"/>
    <circle cx="62.54" cy="16.15" r="4.18" fill="#00a29a"/>
    <path d="M12.09,74A12.32,12.32,0,0,1,1.24,67.25,12.61,12.61,0,0,1,3.61,53.06,9.45,9.45,0,0,1,9,50.45c1.36-.27,2-.43,2.56-1.22.93-1.4.18-3.22-1.13-6.07C9,40,7.18,36,8.67,31.57a15.44,15.44,0,0,1,2.2-4.06c1-1.5,1.79-2.59,1.53-4.28a7.38,7.38,0,0,0-.57-1.78,14.49,14.49,0,0,1-1.05-3.51,16.86,16.86,0,0,1,.13-6l.17-.86.86-.17a16.86,16.86,0,0,1,6-.13,14.49,14.49,0,0,1,3.51,1,7.38,7.38,0,0,0,1.78.57c1.7.26,2.78-.49,4.28-1.53a15.44,15.44,0,0,1,4.06-2.2C36,7.22,39.94,9,43.12,10.49c2.85,1.31,4.67,2.06,6.07,1.13.79-.52,1-1.2,1.22-2.56A9.45,9.45,0,0,1,53,3.65,12.61,12.61,0,0,1,67.21,1.28a12.19,12.19,0,0,1,6.58,13,11.67,11.67,0,0,1-3.63,6.28,1.32,1.32,0,0,1-1.78-1.94,9,9,0,0,0,2.82-4.84A9.63,9.63,0,0,0,66,3.63,10,10,0,0,0,54.89,5.51,6.94,6.94,0,0,0,53,9.57c-.29,1.45-.61,3.09-2.34,4.24-2.69,1.79-5.71.4-8.63-.93S35.84,10,32.36,11.2A13.26,13.26,0,0,0,29,13.07c-1.7,1.18-3.45,2.39-6.18,2a9.91,9.91,0,0,1-2.39-.74,11.22,11.22,0,0,0-2.92-.88,14,14,0,0,0-4.14,0,14,14,0,0,0,0,4.14,11.66,11.66,0,0,0,.87,2.92A9.47,9.47,0,0,1,15,22.83c.42,2.73-.79,4.48-2,6.18a13.26,13.26,0,0,0-1.87,3.39c-1.16,3.48.28,6.62,1.68,9.66s2.72,5.94.93,8.63C12.62,52.42,11,52.74,9.53,53a7,7,0,0,0-4.07,1.9A10.06,10.06,0,0,0,3.59,66.08,9.66,9.66,0,0,0,13.7,71.25a9.1,9.1,0,0,0,4.84-2.83,1.32,1.32,0,1,1,1.94,1.78,11.61,11.61,0,0,1-6.28,3.63A11.59,11.59,0,0,1,12.09,74Z" fill="#00a29a"/>
    <circle cx="179.34" cy="20.73" r="4.18" fill="#00a29a"/>
    <circle cx="137.59" cy="16.36" r="4.18" fill="#00a29a"/>
    <circle cx="183.89" cy="62.57" r="4.18" fill="#00a29a"/>
    <path d="M187.91,74a10.81,10.81,0,0,1-2.12-.21,11.54,11.54,0,0,1-6.27-3.63,1.31,1.31,0,0,1,1.93-1.78,9,9,0,0,0,4.84,2.83,9.63,9.63,0,0,0,10.11-5.16,10,10,0,0,0-1.86-11.15,7,7,0,0,0-4.07-1.9c-1.44-.29-3.08-.61-4.23-2.34-1.79-2.69-.4-5.71.94-8.63s2.84-6.18,1.68-9.66A13.24,13.24,0,0,0,187,29c-1.18-1.7-2.39-3.45-2-6.18a10,10,0,0,1,.74-2.4,11.13,11.13,0,0,0,.88-2.91,14,14,0,0,0,.05-4.14,14.06,14.06,0,0,0-4.15,0,11.66,11.66,0,0,0-2.91.88,10,10,0,0,1-2.4.74c-2.73.42-4.48-.8-6.17-2a13.35,13.35,0,0,0-3.4-1.88c-3.47-1.16-6.62.28-9.66,1.67s-5.94,2.72-8.63.92c-1.72-1.14-2-2.78-2.33-4.23a7,7,0,0,0-1.9-4.07A10,10,0,0,0,134,3.58a9.64,9.64,0,0,0-5.18,10.1,9,9,0,0,0,2.82,4.85,1.31,1.31,0,0,1-1.78,1.93,11.55,11.55,0,0,1-3.62-6.27,12.17,12.17,0,0,1,6.59-13A12.59,12.59,0,0,1,147,3.61,9.5,9.5,0,0,1,149.64,9c.27,1.36.43,2,1.21,2.56,1.4.93,3.22.17,6.08-1.13C160.1,9,164.06,7.2,168.52,8.69a15.5,15.5,0,0,1,4,2.21c1.51,1,2.59,1.79,4.28,1.53a7.59,7.59,0,0,0,1.79-.57,14.21,14.21,0,0,1,3.51-1,17,17,0,0,1,5.95.13l.87.18.17.86a17.09,17.09,0,0,1,.12,6,14.49,14.49,0,0,1-1,3.51,7.88,7.88,0,0,0-.58,1.78c-.26,1.69.49,2.78,1.53,4.28a15.73,15.73,0,0,1,2.2,4.06C192.84,36,191,40,189.57,43.16c-1.31,2.85-2.07,4.67-1.14,6.07.52.79,1.2,1,2.56,1.22a9.47,9.47,0,0,1,5.41,2.62,12.62,12.62,0,0,1,2.36,14.19A12.35,12.35,0,0,1,187.91,74Z" fill="#00a29a"/>
    <circle cx="179.21" cy="179.37" r="4.18" fill="#00a29a"/>
    <circle cx="183.61" cy="137.63" r="4.18" fill="#00a29a"/>
    <circle cx="137.36" cy="183.88" r="4.18" fill="#00a29a"/>
    <path d="M138,200a11.81,11.81,0,0,1-5.29-1.24,12.2,12.2,0,0,1-6.56-13,11.69,11.69,0,0,1,3.64-6.27,1.32,1.32,0,0,1,1.78,1.94,9,9,0,0,0-2.83,4.84,9.62,9.62,0,0,0,5.15,10.11A10,10,0,0,0,145,194.54a6.94,6.94,0,0,0,1.9-4.06c.29-1.45.62-3.09,2.35-4.24,2.7-1.78,5.71-.39,8.63.95s6.17,2.85,9.65,1.69a13,13,0,0,0,3.4-1.86c1.7-1.17,3.45-2.38,6.18-2a9.91,9.91,0,0,1,2.39.74,11.57,11.57,0,0,0,2.92.89,14,14,0,0,0,4.14,0,14,14,0,0,0,0-4.14,11.8,11.8,0,0,0-.87-2.92,9.48,9.48,0,0,1-.74-2.39c-.42-2.73.8-4.48,2-6.18a13,13,0,0,0,1.88-3.39c1.17-3.47-.27-6.62-1.66-9.66s-2.71-5.94-.91-8.63c1.15-1.72,2.79-2.05,4.24-2.33a6.88,6.88,0,0,0,4.07-1.89,10,10,0,0,0,1.89-11.15,9.63,9.63,0,0,0-10.09-5.18,9,9,0,0,0-4.85,2.81,1.31,1.31,0,1,1-1.93-1.78,11.63,11.63,0,0,1,6.28-3.62,12.19,12.19,0,0,1,12.95,6.61,12.61,12.61,0,0,1-2.4,14.18,9.49,9.49,0,0,1-5.42,2.6c-1.36.27-2,.43-2.56,1.21-.93,1.4-.18,3.22,1.13,6.08,1.45,3.18,3.25,7.13,1.75,11.59a15.74,15.74,0,0,1-2.21,4.06c-1,1.49-1.79,2.58-1.53,4.27a7.16,7.16,0,0,0,.57,1.79,14.73,14.73,0,0,1,1,3.51,16.87,16.87,0,0,1-.14,6l-.17.86-.87.17a16.85,16.85,0,0,1-6,.11,14.24,14.24,0,0,1-3.5-1,7.63,7.63,0,0,0-1.79-.58c-1.69-.26-2.77.49-4.28,1.53a15.56,15.56,0,0,1-4.06,2.19c-4.46,1.48-8.41-.34-11.58-1.8-2.86-1.31-4.68-2.07-6.08-1.14-.78.52-.95,1.19-1.22,2.55a9.47,9.47,0,0,1-2.62,5.41A12.86,12.86,0,0,1,138,200Z" fill="#00a29a"/>
    <circle cx="20.77" cy="179.31" r="4.18" fill="#00a29a"/>
    <circle cx="62.53" cy="183.63" r="4.18" fill="#00a29a"/>
    <circle cx="16.19" cy="137.47" r="4.18" fill="#00a29a"/>
    <path d="M62,200a12.91,12.91,0,0,1-8.92-3.6A9.5,9.5,0,0,1,50.49,191c-.27-1.36-.44-2-1.22-2.55-1.4-.93-3.22-.18-6.07,1.13-3.18,1.45-7.13,3.27-11.59,1.78a15.57,15.57,0,0,1-4.06-2.21c-1.5-1-2.59-1.79-4.28-1.53a7,7,0,0,0-1.78.58,14.11,14.11,0,0,1-3.51,1,16.62,16.62,0,0,1-6-.12l-.86-.17-.18-.87a17,17,0,0,1-.12-5.95,14.21,14.21,0,0,1,1.05-3.51,7.59,7.59,0,0,0,.57-1.79c.26-1.69-.49-2.78-1.53-4.28a15.28,15.28,0,0,1-2.2-4.06c-1.49-4.46.32-8.41,1.78-11.58,1.3-2.86,2.06-4.68,1.13-6.08-.52-.78-1.2-.95-2.56-1.22A9.39,9.39,0,0,1,3.69,147,12.59,12.59,0,0,1,1.32,132.8a12.16,12.16,0,0,1,13-6.58,11.71,11.71,0,0,1,6.28,3.62,1.32,1.32,0,0,1-1.94,1.78,9,9,0,0,0-4.84-2.82A9.65,9.65,0,0,0,3.67,134a10.06,10.06,0,0,0,1.87,11.15A6.88,6.88,0,0,0,9.61,147c1.45.29,3.09.62,4.24,2.35,1.79,2.69.4,5.7-.93,8.62s-2.84,6.19-1.68,9.66a13.33,13.33,0,0,0,1.87,3.4c1.18,1.69,2.39,3.44,2,6.17a9.43,9.43,0,0,1-.75,2.4,11.66,11.66,0,0,0-.87,2.92,14,14,0,0,0,0,4.14,14,14,0,0,0,4.14,0,11.53,11.53,0,0,0,2.91-.88,9.7,9.7,0,0,1,2.4-.74c2.73-.43,4.48.79,6.18,2a13,13,0,0,0,3.39,1.87c3.48,1.17,6.62-.28,9.66-1.67s5.94-2.72,8.63-.94c1.73,1.15,2.05,2.79,2.34,4.24a7,7,0,0,0,1.9,4.07,10,10,0,0,0,11.14,1.87,9.62,9.62,0,0,0,5.17-10.1,9,9,0,0,0-2.82-4.85,1.31,1.31,0,1,1,1.78-1.93,11.67,11.67,0,0,1,3.62,6.27,12.18,12.18,0,0,1-6.57,13A11.77,11.77,0,0,1,62,200Z" fill="#00a29a"/>
    <path d="M113,93c8.18-5.88,15.85-11.43,16.56-12.15a7.27,7.27,0,1,0-10.28-10.29c-.72.71-6.28,8.37-12.17,16.55A14.71,14.71,0,0,1,113,93Z" fill="#00a29a"/>
    <path d="M107,112.91c5.87,8.19,11.42,15.86,12.14,16.57a7.27,7.27,0,1,0,10.3-10.27c-.72-.72-8.37-6.29-16.55-12.18A14.69,14.69,0,0,1,107,112.91Z" fill="#00a29a"/>
    <path d="M87.09,107c-8.19,5.87-15.86,11.41-16.58,12.13a7.28,7.28,0,1,0,10.27,10.31c.72-.72,6.29-8.37,12.19-16.54A14.77,14.77,0,0,1,87.09,107Z" fill="#00a29a"/>
    <path d="M80.33,61.12A18.44,18.44,0,0,1,98.72,78.67c0,.28,0,.57,0,.86l0,.65v5.09h2.63V80.84h0V79.53c0-.29,0-.58,0-.86a18.43,18.43,0,0,1,18.38-17.55,1.32,1.32,0,1,0,0-2.63A21.08,21.08,0,0,0,100,72.15a21.06,21.06,0,0,0-19.7-13.66,1.32,1.32,0,0,0,0,2.63Z" fill="#00a29a"/>
    <path d="M135.36,104.8a21,21,0,0,0-7.48-4.82,21.09,21.09,0,0,0,13.63-19.71A1.32,1.32,0,0,0,140.19,79h0a1.31,1.31,0,0,0-1.31,1.31,18.42,18.42,0,0,1-17.55,18.4l-.85,0-.67,0h-5.08v2.63h4.44v0h1.31l.86,0a18.38,18.38,0,0,1,17.55,18.38,1.32,1.32,0,0,0,1.32,1.31h0a1.31,1.31,0,0,0,1.31-1.32A20.91,20.91,0,0,0,135.36,104.8Z" fill="#00a29a"/>
    <path d="M119.73,138.84h0a18.43,18.43,0,0,1-18.38-17.54c0-.29,0-.57,0-.86l0-.65v-5.1H98.71v4.44h0v1.31c0,.29,0,.58,0,.86a18.43,18.43,0,0,1-18.38,17.55,1.32,1.32,0,0,0,0,2.63h0A21.06,21.06,0,0,0,100,127.81a21.06,21.06,0,0,0,19.69,13.66h0a1.32,1.32,0,1,0,0-2.63Z" fill="#00a29a"/>
    <path d="M79.57,101.32l.66,0h5.08V98.67H80.88v0H79.56l-.85,0A18.42,18.42,0,0,1,61.15,80.29,1.31,1.31,0,0,0,59.84,79h0a1.31,1.31,0,0,0-1.32,1.31A21.11,21.11,0,0,0,72.16,100a21.06,21.06,0,0,0-13.62,19.7A1.32,1.32,0,0,0,59.85,121h0a1.32,1.32,0,0,0,1.31-1.32A18.4,18.4,0,0,1,78.71,101.3,8.42,8.42,0,0,0,79.57,101.32Z" fill="#00a29a"/>
    <path d="M187.07,102.21c-3-3.48-8.6-1.92-11.29,1a32.76,32.76,0,0,0-6.56,9.33c-1,2.06-1.78,4.15-2.67,6.18a12,12,0,0,0-5.5-9.56,11.94,11.94,0,0,0,2.27,15.47c-7.88,12.19-14.89,17-29.77,8.52l-.06,0h0a.31.31,0,0,0-.32.07l0,0,0,0a.3.3,0,0,0,0,.4c8.38,15,3.51,21.91-8.74,29.71A11.93,11.93,0,0,0,108.86,161a11.92,11.92,0,0,0,9.52,5.56c-2,.87-4.13,1.65-6.2,2.63a32.52,32.52,0,0,0-9.37,6.49A10.15,10.15,0,0,0,99.87,181c0,.12,0,.24-.05.36a9.76,9.76,0,0,0-2.9-5.65,32.6,32.6,0,0,0-9.34-6.54c-2.06-1-4.15-1.78-6.18-2.67A11.87,11.87,0,0,0,91,161h0a12,12,0,0,0-15.47,2.29c-12.19-7.86-17-14.86-8.56-29.75a.64.64,0,0,1,0-.07h0a.38.38,0,0,0-.07-.33l0,0,0,0a.32.32,0,0,0-.4,0c-15,8.41-21.9,3.55-29.72-8.69a12,12,0,0,0,2.35-15.46,11.94,11.94,0,0,0-5.55,9.53c-.88-2-1.66-4.13-2.64-6.19a32.42,32.42,0,0,0-6.5-9.37A10.14,10.14,0,0,0,19,99.94l-.26,0A9.76,9.76,0,0,0,24.26,97a32.76,32.76,0,0,0,6.53-9.35c1-2.06,1.77-4.15,2.65-6.19A12,12,0,0,0,39,91a12,12,0,0,0-2.32-15.47c7.84-12.21,14.83-17.06,29.74-8.61l.07,0h0a.33.33,0,0,0,.33-.07l0,0s0,0,0,0a.33.33,0,0,0,.05-.41c-8.44-14.92-3.59-21.89,8.64-29.73A11.94,11.94,0,0,0,91,39a11.94,11.94,0,0,0-9.54-5.54c2-.88,4.13-1.66,6.19-2.64A32.78,32.78,0,0,0,97,24.33a10.27,10.27,0,0,0,2.9-5.26l.42,0a9.9,9.9,0,0,0,2.81,5.12,32.6,32.6,0,0,0,9.34,6.54c2.06,1,4.15,1.78,6.18,2.66a11.93,11.93,0,0,0-9.55,5.51,12,12,0,0,0,15.47-2.28c12.19,7.86,17,14.86,8.56,29.75a.64.64,0,0,0,0,.07h0a.33.33,0,0,0,.07.32l0,0,0,0a.32.32,0,0,0,.4,0c14.94-8.41,21.9-3.55,29.72,8.69A12,12,0,0,0,161,91.07a11.93,11.93,0,0,0,5.56-9.53c.87,2,1.65,4.13,2.63,6.19a32.61,32.61,0,0,0,6.5,9.37,10.17,10.17,0,0,0,5.39,2.93c3.26.57,6.86-1.26,7-4.82a4.15,4.15,0,0,0-1.84-4.1,4.28,4.28,0,0,0-4.24.46.29.29,0,0,0-.1.35.27.27,0,0,0,.37.12,4.21,4.21,0,0,1,2.41-.46c2.6.33,2.41,4,.92,5.36-2.37,2-6,.45-7.71-1.94-3.3-4-4.87-9-6.24-14-1.64-5.49-3.63-11-7.35-15.5-7.39-8.8-17.46-9.66-25.68-4.14a20.13,20.13,0,0,0,3.52-9.25c.66-6.29-2.83-12.49-7.53-16.43-4.46-3.74-10-5.75-15.46-7.42-5-1.39-9.93-3-13.94-6.3-2.38-1.75-3.92-5.35-1.91-7.72,1.38-1.49,5-1.66,5.36,1a4.27,4.27,0,0,1-.47,2.4c-.16.29.3.57.47.28,1.14-1.6,1.28-4.28-.61-5.43a5.33,5.33,0,0,0-5.94.45,5.87,5.87,0,0,0-2,4.85H100c0-2.9-1.79-5.71-4.92-5.86A4.14,4.14,0,0,0,91,13.75,4.28,4.28,0,0,0,91.46,18a.28.28,0,0,0,.36.1.28.28,0,0,0,.11-.37,4.21,4.21,0,0,1-.46-2.41c.32-2.6,4-2.42,5.36-.93,2,2.37.46,6-1.93,7.72-4,3.3-9,4.88-14,6.26C75.46,30,69.94,32,65.46,35.74c-8.78,7.41-9.62,17.47-4.09,25.69a19.92,19.92,0,0,0-9.26-3.5c-6.29-.66-12.48,2.84-16.41,7.55C32,70,30,75.47,28.31,81c-1.38,5-3,9.93-6.28,14-1.75,2.38-5.34,3.92-7.72,1.92-1.48-1.38-1.66-5,.94-5.36a4.21,4.21,0,0,1,2.41.46.27.27,0,0,0,.27-.47c-1.6-1.13-4.27-1.27-5.42.63A5.3,5.3,0,0,0,13,98a5.6,5.6,0,0,0,3.66,1.92,5.24,5.24,0,0,0-4.69,4.82,4.13,4.13,0,0,0,1.83,4.1A4.29,4.29,0,0,0,18,108.4a.27.27,0,0,0-.27-.47,4.23,4.23,0,0,1-2.41.46c-2.61-.32-2.41-4-.93-5.36,2.38-2,6-.45,7.72,1.94,3.3,4,4.87,9,6.24,14,1.64,5.48,3.63,11,7.35,15.49,7.39,8.8,17.46,9.66,25.68,4.14a20,20,0,0,0-3.52,9.25c-.66,6.29,2.83,12.49,7.53,16.43,4.46,3.74,10,5.75,15.46,7.41,5,1.4,9.93,3,13.94,6.3,2.39,1.76,3.92,5.36,1.91,7.73-1.38,1.48-5,1.65-5.36-.95a4.3,4.3,0,0,1,.47-2.41.27.27,0,0,0-.47-.27c-1.14,1.6-1.27,4.27.62,5.42a5.32,5.32,0,0,0,5.93-.45,5.66,5.66,0,0,0,1.94-3.76,5.25,5.25,0,0,0,4.83,4.8,4.14,4.14,0,0,0,4.1-1.82,4.29,4.29,0,0,0-.45-4.25.28.28,0,0,0-.36-.09.26.26,0,0,0-.11.36,4.29,4.29,0,0,1,.45,2.41c-.33,2.6-4,2.41-5.36.92-2-2.38-.44-6,2-7.72,4-3.29,9-4.85,14-6.22,5.49-1.63,11-3.61,15.51-7.33,8.81-7.38,9.68-17.44,4.17-25.67a20.19,20.19,0,0,0,9.25,3.53c6.29.67,12.49-2.81,16.44-7.5,3.74-4.46,5.76-10,7.44-15.46,1.4-5,3-9.92,6.31-13.93,1.76-2.38,5.37-3.91,7.73-1.89,1.49,1.38,1.65,5-.95,5.35a4.22,4.22,0,0,1-2.41-.47.27.27,0,0,0-.27.47c1.59,1.14,4.27,1.28,5.42-.61A5.34,5.34,0,0,0,187.07,102.21Z" fill="#00a29a"/>
  </g>
</svg>
