<svg xmlns="http://www.w3.org/2000/svg" width="100" height="100" viewBox="0 0 100 100">
  <g>
    <circle cx="50" cy="50" r="5.96" fill="#fcc800"/>
    <path d="M61.34,35.63C68.57,28.55,79.28,25,89.23,27a29.8,29.8,0,0,1-3.93,7.93,32.51,32.51,0,0,1-28,13.71c15.37,3.6,31.88-7.24,35.6-22.44a1.57,1.57,0,0,0-1.18-2,31.22,31.22,0,0,0-29.63,8.22,28.36,28.36,0,0,0-7.22,12.1A32.86,32.86,0,0,1,61.34,35.63Z" fill="#fcc800"/>
    <path d="M52.58,56.84a33.25,33.25,0,0,1,4.36,10.09c2.41,9.83,0,20.85-6.75,28.42a29.89,29.89,0,0,1-4.83-7.42,32.55,32.55,0,0,1,2.43-31.09C36.88,68.24,37.82,88,49,98.9a1.57,1.57,0,0,0,2.32,0,31.25,31.25,0,0,0,8-29.69A28.31,28.31,0,0,0,52.58,56.84Z" fill="#fcc800"/>
    <path d="M48,43.19a32.92,32.92,0,0,1-4.47-10C41,23.34,43.27,12.3,50,4.65A30,30,0,0,1,54.88,12,32.56,32.56,0,0,1,52.8,43.13c10.78-11.52,9.61-31.23-1.72-42a1.56,1.56,0,0,0-2.32,0A31.22,31.22,0,0,0,41.12,30.9,28.34,28.34,0,0,0,48,43.19Z" fill="#fcc800"/>
    <path d="M38.88,64.06c-7.31,7-18.05,10.44-28,8.35a29.86,29.86,0,0,1,4-7.9A32.56,32.56,0,0,1,43.07,51.1C27.74,47.34,11.12,58,7.24,73.17a1.56,1.56,0,0,0,1.16,2,31.2,31.2,0,0,0,29.7-7.91,28.25,28.25,0,0,0,7.35-12A32.81,32.81,0,0,1,38.88,64.06Z" fill="#fcc800"/>
    <path d="M29,48.4a28.42,28.42,0,0,0,14.1.12,33,33,0,0,1-10.94-1.1C22.42,44.75,14,37.3,10.64,27.7a29.79,29.79,0,0,1,8.84-.61,32.54,32.54,0,0,1,26,17.25C40.8,29.26,23.11,20.49,8.11,25A1.55,1.55,0,0,0,7,27,31.23,31.23,0,0,0,29,48.4Z" fill="#fcc800"/>
    <path d="M93,73.25A31.23,31.23,0,0,0,71.35,51.46a28.4,28.4,0,0,0-14.09-.37,33.23,33.23,0,0,1,10.92,1.29c9.72,2.84,18,10.43,21.2,20.09a29.8,29.8,0,0,1-8.84.46,32.55,32.55,0,0,1-25.68-17.7c4.39,15.16,21.93,24.24,37,20A1.56,1.56,0,0,0,93,73.25Z" fill="#fcc800"/>
    <path d="M50.12,57.25H50c-.38,4.53-1.73,20.53-1.73,21.39a1.83,1.83,0,0,0,3.65,0c0-.86-1.34-16.86-1.72-21.39Z" fill="#0b318f"/>
    <path d="M43.83,53.62l0-.09c-4.12,1.94-18.65,8.76-19.4,9.19a1.82,1.82,0,0,0,1.82,3.16c.75-.43,13.94-9.58,17.68-12.17Z" fill="#0b318f"/>
    <path d="M43.78,46.47l.06-.09C40.06,43.84,26.75,34.88,26,34.46a1.82,1.82,0,1,0-1.77,3.18c.75.42,15.37,7,19.52,8.92Z" fill="#0b318f"/>
    <path d="M50.12,42.75h.1c.38-4.53,1.72-20.53,1.72-21.39a1.83,1.83,0,0,0-3.65,0c0,.86,1.35,16.86,1.73,21.39Z" fill="#0b318f"/>
    <path d="M56.38,46.35s0,.06,0,.08c4.11-2,18.6-8.85,19.35-9.28A1.83,1.83,0,0,0,73.94,34c-.75.44-13.89,9.66-17.61,12.27A.41.41,0,0,1,56.38,46.35Z" fill="#0b318f"/>
    <path d="M56.39,53.64a.35.35,0,0,1,0,.08C60.07,56.33,73.23,65.51,74,65.94a1.82,1.82,0,1,0,1.83-3.15c-.75-.44-15.26-7.3-19.37-9.24Z" fill="#0b318f"/>
    <path d="M11.33,60.08a.64.64,0,0,1-.52-.25,39.94,39.94,0,0,0-3.1-3.53A39.16,39.16,0,0,0,.32,50.48a.65.65,0,0,1,0-1.12,39.16,39.16,0,0,0,7.39-5.82A39.94,39.94,0,0,0,10.81,40a.66.66,0,1,1,1,.8,39.9,39.9,0,0,1-3.21,3.65A40.17,40.17,0,0,1,1.9,49.92a40.17,40.17,0,0,1,6.74,5.46A41.14,41.14,0,0,1,11.85,59a.65.65,0,0,1-.12.92A.61.61,0,0,1,11.33,60.08Z" fill="#00a29a"/>
    <path d="M22.32,22.13a.58.58,0,0,1-.26-.06.65.65,0,0,1-.35-.86,38.13,38.13,0,0,0,1.59-4.42A39.44,39.44,0,0,0,24.81,7.5.64.64,0,0,1,25.14,7a.68.68,0,0,1,.65,0,38.57,38.57,0,0,0,8.67,3.64,38.38,38.38,0,0,0,4.59,1,.65.65,0,1,1-.2,1.29,39.06,39.06,0,0,1-4.75-1,40.57,40.57,0,0,1-8-3.26,40.12,40.12,0,0,1-1.5,8.55,38.85,38.85,0,0,1-1.64,4.57A.66.66,0,0,1,22.32,22.13Z" fill="#00a29a"/>
    <path d="M77.87,22.13a.66.66,0,0,1-.61-.42,41.38,41.38,0,0,1-1.51-4.61,40.22,40.22,0,0,1-1.26-8.59,40,40,0,0,1-8.13,3,39.06,39.06,0,0,1-4.78.9.65.65,0,0,1-.16-1.3A39.84,39.84,0,0,0,66,10.27a39.53,39.53,0,0,0,8.78-3.4.64.64,0,0,1,.64,0,.65.65,0,0,1,.32.56A39.1,39.1,0,0,0,77,16.76a40.93,40.93,0,0,0,1.46,4.47.65.65,0,0,1-.37.85A.69.69,0,0,1,77.87,22.13Z" fill="#00a29a"/>
    <path d="M88.67,60.08a.61.61,0,0,1-.4-.14.65.65,0,0,1-.12-.92,41.14,41.14,0,0,1,3.21-3.64,40.17,40.17,0,0,1,6.74-5.46,40.17,40.17,0,0,1-6.74-5.46,39.9,39.9,0,0,1-3.21-3.65.66.66,0,1,1,1-.8,39.94,39.94,0,0,0,3.1,3.53,38.84,38.84,0,0,0,7.39,5.82.65.65,0,0,1,0,1.12,39.16,39.16,0,0,0-7.39,5.82,38.56,38.56,0,0,0-3.1,3.53A.64.64,0,0,1,88.67,60.08Z" fill="#00a29a"/>
    <path d="M75,93.2a.61.61,0,0,1-.32-.08,39.24,39.24,0,0,0-8.74-3.47,38,38,0,0,0-4.61-.91.65.65,0,0,1-.56-.74.67.67,0,0,1,.74-.57,40.49,40.49,0,0,1,4.76.95,39.36,39.36,0,0,1,8.1,3.1,40.78,40.78,0,0,1,1.34-8.58,40.1,40.1,0,0,1,1.55-4.6.65.65,0,0,1,.86-.36.66.66,0,0,1,.36.85A38.93,38.93,0,0,0,77,83.25a38.54,38.54,0,0,0-1.33,9.31.66.66,0,0,1-.33.56A.72.72,0,0,1,75,93.2Z" fill="#00a29a"/>
    <path d="M25.16,93.21a.66.66,0,0,1-.33-.09.67.67,0,0,1-.33-.55,38.58,38.58,0,0,0-1.3-9.32,40.92,40.92,0,0,0-1.49-4.46.65.65,0,0,1,.36-.85.66.66,0,0,1,.86.36,39.51,39.51,0,0,1,1.53,4.61,39.5,39.5,0,0,1,1.32,8.57,39.77,39.77,0,0,1,12.88-4,.66.66,0,1,1,.17,1.3,39.1,39.1,0,0,0-13.36,4.36A.65.65,0,0,1,25.16,93.21Z" fill="#00a29a"/>
  </g>
</svg>
