<svg xmlns="http://www.w3.org/2000/svg" width="200" height="200" viewBox="0 0 200 200">
  <g>
    <path d="M76,42.75a58.21,58.21,0,0,1-7.39-.54,56.74,56.74,0,0,1-17.76-5.57,74,74,0,0,1-.66,17.87,74,74,0,0,1-2,8.72,63.48,63.48,0,0,1,13.88,3.7,64.52,64.52,0,0,1,22,14.53A57.69,57.69,0,0,1,75.6,56.19,56.45,56.45,0,0,1,76,42.75Z" fill="#00a29a"/>
    <path d="M151.87,62.76a55.84,55.84,0,0,1-1.6-7.23,57.11,57.11,0,0,1,.21-18.61,73.4,73.4,0,0,1-17.3,4.51,76.62,76.62,0,0,1-8.91.65,63,63,0,0,1,.45,14.35,64.34,64.34,0,0,1-7.58,25.26,57.84,57.84,0,0,1,21.74-15.46A56.36,56.36,0,0,1,151.87,62.76Z" fill="#00a29a"/>
    <path d="M156,139a56.7,56.7,0,0,1,24-9.71,73.8,73.8,0,0,1-9.89-14.9,74.66,74.66,0,0,1-3.5-8.21,63.29,63.29,0,0,1-13.43,5.09,64.36,64.36,0,0,1-26.35,1,57.75,57.75,0,0,1,21.68,15.54A56.42,56.42,0,0,1,156,139Z" fill="#00a29a"/>
    <path d="M84.44,167.51a56.91,56.91,0,0,1,16.76,19.73,73.35,73.35,0,0,1,17.73-20,63.09,63.09,0,0,1-9.05-11.16,64.35,64.35,0,0,1-9.27-24.69,57.79,57.79,0,0,1-7.93,25.48A55.86,55.86,0,0,1,84.44,167.51Z" fill="#00a29a"/>
    <path d="M35,109.13a55.51,55.51,0,0,1-2.7,6.9,57,57,0,0,1-10.56,15.33,73.69,73.69,0,0,1,16.88,5.91,73.28,73.28,0,0,1,7.75,4.43A63.27,63.27,0,0,1,54,129.53,64.37,64.37,0,0,1,74.36,112.8a57.83,57.83,0,0,1-26.67.7A55.75,55.75,0,0,1,35,109.13Z" fill="#00a29a"/>
    <circle cx="100.49" cy="103.77" r="11.9" fill="#00a29a"/>
    <g>
      <path d="M110.73,103.77h.19" fill="none" stroke="#fcc800" stroke-linecap="round" stroke-linejoin="round" stroke-width="2.83"/>
      <path d="M100.46,93.31A10.45,10.45,0,0,1,90.2,103.77a10.45,10.45,0,0,1,10.25,10.08v.37c0-.06,0-.12,0-.19s0,.13,0,.19v-.37a10.45,10.45,0,0,1,10.26-10.08A10.47,10.47,0,0,1,100.46,93.31Z" fill="none" stroke="#fcc800" stroke-linecap="round" stroke-linejoin="round" stroke-width="2.83"/>
    </g>
    <path d="M93.21,91.77l-.49-2c-3.66-14.86-5.3-27.55-5.3-29.1a13.21,13.21,0,1,1,26.41,0,147.88,147.88,0,0,1-5.57,29.13l-.52,1.82-1.4-.67a13.11,13.11,0,0,0-11.65.1Zm7.42-41.71A10.59,10.59,0,0,0,90.05,60.64,210.31,210.31,0,0,0,95,88a15.72,15.72,0,0,1,11-.07,147.33,147.33,0,0,0,5.15-27.3A10.59,10.59,0,0,0,100.63,50.06Z" fill="#0b318f"/>
    <path d="M100.63,88.81a14.12,14.12,0,0,1,3.7.5c1.73-10.55,3.42-21.11,3.42-22.17a7.13,7.13,0,1,0-14.25,0c0,1.06,1.69,11.62,3.42,22.17A14.19,14.19,0,0,1,100.63,88.81Z" fill="#0b318f"/>
    <path d="M122.48,47.25c.79,9.35-2.2,19.14-5.39,28.2a57,57,0,0,1-2.8,6.46,85.25,85.25,0,0,0-5.43,9.57l.44.33,0,0,.25.18A95.69,95.69,0,0,0,116.86,84a62.12,62.12,0,0,1,5.35-4.75c7.59-5.88,15.92-11.81,25-14,15.17-3.85,31.7-.18,44.89,8-11.56-11.91-30-18.48-46.48-14.42-8,1.88-15.12,6.3-21.13,11.75,3.29-7.45,5.26-15.66,4.51-23.86-1.34-16.93-13.43-32.37-28.4-39.56C112.61,17.1,121.34,31.62,122.48,47.25Z" fill="#eb6100"/>
    <path d="M163.61,112.76c15.63-6.64,26.44-23,28.52-39.48-5.6,14.51-16.61,27.39-31.07,33.42-6.95,2.92-14.53,3.78-22.5,3.84a81.58,81.58,0,0,1-11.81-.46l-1-.13a85.76,85.76,0,0,0-11-2.16l-.17.53.06,0-.09.31a92.59,92.59,0,0,0,10,4.44,60.88,60.88,0,0,1,6,3.46c8,5.33,16.26,11.34,21.25,19.28,8.48,13.16,10.26,30,6.65,45.11,7.62-14.74,8-34.33-1.11-48.65-4.29-6.93-10.72-12.28-17.76-16.24C147.74,116.8,156.11,116.05,163.61,112.76Z" fill="#eb6100"/>
    <path d="M117,162.13c-5-5.67-8.19-12.58-10.78-20.12a79.52,79.52,0,0,1-3.33-11.34c-.07-.32-.12-.65-.18-1a83.9,83.9,0,0,0-1.45-11.09h-.55v.07h-.32a92.71,92.71,0,0,0-1,10.79,78.05,78.05,0,0,1-3,12.66c-2.25,7.64-5.16,14.67-9.88,20.55C76.64,174.91,61.24,182,45.77,183.34c16.4,2.53,35.08-3.35,45.77-16.53,5.21-6.27,8.24-14.07,9.75-22,1.87,7.9,5.24,15.59,10.74,21.66,11.27,12.71,30.22,17.75,46.5,14.48C143,180.26,127.29,173.91,117,162.13Z" fill="#eb6100"/>
    <path d="M50.4,137.94C55,129.79,63,123.4,70.79,117.73a55.08,55.08,0,0,1,5.76-3.63,86.43,86.43,0,0,0,10.1-4.92l-.18-.53-.07,0-.11-.3a93.37,93.37,0,0,0-10.56,2.44,78.15,78.15,0,0,1-13,1.18c-8,.3-15.56-.23-22.63-2.82-14.7-5.39-26.27-17.75-32.5-32C10.46,93.54,22,109.38,37.87,115.33c7.61,2.94,16,3.33,24,2.25-6.89,4.28-13.12,9.92-17.12,17.07-8.46,14.72-7.22,34.29,1.06,48.69C41.49,168.39,42.5,151.48,50.4,137.94Z" fill="#eb6100"/>
    <path d="M52.16,67.14C61.36,69,70,74.5,77.81,80c4.91,3.51,8.9,7.87,13.37,12.07l.27-.22,0,0,.46-.32c-2.81-5.45-5.81-10.54-7.82-16.22C81,66.34,78,56.56,78.77,47.21c1.16-15.61,9.88-30.12,21.86-40-15,7.19-27,22.6-28.41,39.52-.79,8.6,1.4,17.22,5,25,.38.87.77,1.74,1.19,2.62-.75-.67-1.51-1.31-2.27-1.93C69.66,66.79,62,62.3,53.47,60.7,36.82,57.36,18.66,64.76,7.65,77.19,20.45,68.37,36.82,64,52.16,67.14Z" fill="#eb6100"/>
    <path d="M114.33,106.78l.2-1.56a13.05,13.05,0,0,0-.57-5.83,12.89,12.89,0,0,0-3.23-5.18l-1.19-1.16,1.78-1.11c12.93-8.2,24.43-13.79,25.9-14.28a13.21,13.21,0,1,1,8.4,25,148,148,0,0,1-29.39,4Zm-.65-13.23A15.61,15.61,0,0,1,117.26,104a146.5,146.5,0,0,0,27.52-3.79,10.58,10.58,0,1,0-6.72-20.06C136.74,80.59,125.84,85.93,113.68,93.55Z" fill="#0b318f"/>
    <path d="M114.71,99.14a14.27,14.27,0,0,1,.71,3.67c10.55-1.71,21.1-3.47,22.11-3.81A7.12,7.12,0,0,0,133,85.49c-1,.33-10.49,5.29-19.94,10.29A14.38,14.38,0,0,1,114.71,99.14Z" fill="#0b318f"/>
    <path d="M126.4,151.45a13.21,13.21,0,0,1-10.55-5.24,148.38,148.38,0,0,1-13.12-26.59l-.69-1.77,1.53-.31a13,13,0,0,0,9.23-7.11l.73-1.49,1.62,1.33c11.87,9.65,20.84,18.78,21.77,20a13.19,13.19,0,0,1-10.52,21.16Zm-20.8-31.71A147.81,147.81,0,0,0,118,144.63a10.58,10.58,0,0,0,16.88-12.76A214.07,214.07,0,0,0,114.37,113a15.65,15.65,0,0,1-8.77,6.71Z" fill="#0b318f"/>
    <path d="M109.4,115.78a14.37,14.37,0,0,1-3.25,1.83c5,9.47,10,18.91,10.63,19.76a7.13,7.13,0,1,0,11.38-8.6c-.65-.85-8.36-8.25-16.1-15.62A15.06,15.06,0,0,1,109.4,115.78Z" fill="#0b318f"/>
    <path d="M76,152.49a13.21,13.21,0,0,1-10.88-20.66,148.65,148.65,0,0,1,21.05-20.9l1.45-1.22.78,1.36a13.08,13.08,0,0,0,9.68,6.49l1.64.21-.75,2c-5.37,14.33-11.17,25.73-12,27A13.18,13.18,0,0,1,76,152.49Zm11-38.8A147.84,147.84,0,0,0,67.3,133.31a10.58,10.58,0,0,0,17.46,11.95,211.24,211.24,0,0,0,11.36-25.39A15.75,15.75,0,0,1,87,113.69Z" fill="#0b318f"/>
    <path d="M91.94,116a14.18,14.18,0,0,1-2.78-2.5C81.77,121.26,74.42,129,73.81,129.9a7.13,7.13,0,1,0,11.77,8c.61-.88,5.17-10.55,9.69-20.24A14.27,14.27,0,0,1,91.94,116Z" fill="#0b318f"/>
    <path d="M87,107.51l-2.09-.1c-15.31-.53-28-2.41-29.45-2.84a13.21,13.21,0,0,1,7.21-25.41A149,149,0,0,1,89.15,92.47l1.61,1-1,1.16a13.06,13.06,0,0,0-3.08,11.24ZM59,81.29A10.58,10.58,0,0,0,56.15,102c1.34.39,13.35,2.13,27.69,2.7a15.45,15.45,0,0,1,.53-5.69,15.7,15.7,0,0,1,2.41-5A147.36,147.36,0,0,0,61.92,81.69,10.62,10.62,0,0,0,59,81.29Z" fill="#0b318f"/>
    <path d="M86.14,99.56a14.08,14.08,0,0,1,1.49-3.43c-9.68-4.55-19.37-9.06-20.4-9.35a7.13,7.13,0,0,0-3.89,13.72c1,.29,11.65,1.54,22.27,2.75A14.3,14.3,0,0,1,86.14,99.56Z" fill="#0b318f"/>
    <path d="M34.21,0H1.32A1.31,1.31,0,0,0,0,1.32V34.21a9.54,9.54,0,1,0,9.54-9.53,1.31,1.31,0,1,0,0,2.62,6.91,6.91,0,1,1-6.91,6.91V2.63H34.21A6.91,6.91,0,1,1,27.3,9.54a1.31,1.31,0,0,0-2.62,0A9.54,9.54,0,1,0,34.21,0Z" fill="#0b318f"/>
    <path d="M198.68,0H165.79a9.54,9.54,0,1,0,9.53,9.53,1.31,1.31,0,1,0-2.62,0,6.91,6.91,0,1,1-6.91-6.91h31.58V34.21a6.91,6.91,0,1,1-6.91-6.91,1.31,1.31,0,1,0,0-2.62A9.54,9.54,0,1,0,200,34.21V1.32A1.31,1.31,0,0,0,198.68,0Z" fill="#0b318f"/>
    <path d="M190.46,156.25a9.54,9.54,0,1,0,0,19.07,1.31,1.31,0,1,0,0-2.62,6.91,6.91,0,1,1,6.91-6.91v31.58H165.79a6.91,6.91,0,1,1,6.91-6.91,1.31,1.31,0,1,0,2.62,0,9.54,9.54,0,1,0-9.53,9.53h32.89a1.31,1.31,0,0,0,1.32-1.31V165.79A9.55,9.55,0,0,0,190.46,156.25Z" fill="#0b318f"/>
    <path d="M34.21,180.92a9.54,9.54,0,0,0-9.53,9.54,1.31,1.31,0,0,0,2.62,0,6.91,6.91,0,1,1,6.91,6.91H2.63V165.79a6.91,6.91,0,1,1,6.91,6.91,1.31,1.31,0,1,0,0,2.62A9.54,9.54,0,1,0,0,165.79v32.89A1.31,1.31,0,0,0,1.32,200H34.21a9.54,9.54,0,1,0,0-19.07Z" fill="#0b318f"/>
  </g>
</svg>
