<svg xmlns="http://www.w3.org/2000/svg" width="100" height="100" viewBox="0 0 100 100">
  <g>
    <path d="M50,39.54a1.81,1.81,0,0,0-1.55.89,1.76,1.76,0,0,0-.18,1.21c.55,3,1,6.07,1.36,9.1.14,1.18.26,2.36.37,3.55.11-1.19.23-2.37.37-3.55.35-3,.81-6.09,1.36-9.1a1.76,1.76,0,0,0-.18-1.21A1.81,1.81,0,0,0,50,39.54Z" fill="#fcc800"/>
    <path d="M55.71,62.06l5-5.74a9,9,0,0,0,1.85-7,1,1,0,0,0-.41-.65,1,1,0,0,0-.74-.18,9.31,9.31,0,0,0-1.45.36l-1.89.63,1.26-1.54a8.94,8.94,0,0,0,1.9-7.36,1,1,0,0,0-1.17-.8,9.08,9.08,0,0,0-2.11.66l-1.87.86,1.16-1.7a8.83,8.83,0,0,0,.08-9.79,1,1,0,0,0-1.36-.29,8.78,8.78,0,0,0-.8.6l-.88.73-.07-1.14a9.64,9.64,0,0,0-4.25-7.48,9.69,9.69,0,0,0-4.22,7.5l-.06,1.13-.88-.72a7.24,7.24,0,0,0-.81-.59,1,1,0,0,0-.73-.14,1,1,0,0,0-.62.42,8.83,8.83,0,0,0,.12,9.8l1.16,1.69L42,40.45a8.76,8.76,0,0,0-2.11-.66,1,1,0,0,0-.76.16,1,1,0,0,0-.41.65,9,9,0,0,0,1.92,7.34L42,49.48l-1.9-.63a10.55,10.55,0,0,0-1.45-.35,1,1,0,0,0-.74.19,1,1,0,0,0-.4.65,9,9,0,0,0,1.88,7l5,5.73L48.7,66.6c.44.44.87.89,1.3,1.34.82-.86,1.65-1.71,2.51-2.54ZM50,59.34h0c-.87-4.35-1.1-5.15-1.76-9.5-.63-4.09-.62-4.27-1.36-8.35a3.7,3.7,0,0,1,.25-2.5,3.27,3.27,0,0,1,5.73,0,4,4,0,0,1,.27,2.59c-.74,4.08-.82,4.76-1.37,8.21C51.07,54.17,50.87,55,50,59.34Z" fill="#66b5e6"/>
    <path d="M36.89,53.36C33,50.1,29.23,46.66,25.45,43.3a76.91,76.91,0,0,1-8.33-8.12,10.33,10.33,0,0,1-2-3.94C14.2,26.78,16.41,21.4,21,20.05c6.24-1.79,12.89,3.89,10.06,10.29a7.46,7.46,0,0,1-2.55,3c1.87-2.84,2.06-7-.82-9.14-2.33-1.7-6.14-1.94-8,.51a7.69,7.69,0,0,0-1.49,5.84c.35,1.9,2,3.8,3.62,5.64C27,41.75,32.17,47.4,36.89,53.36Z" fill="#66b5e6"/>
    <path d="M63.08,53.33c4.7-6,9.88-11.64,15.06-17.17,1.64-1.85,3.26-3.75,3.61-5.65a7.7,7.7,0,0,0-1.51-5.84c-1.9-2.44-5.72-2.2-8-.48-2.88,2.13-2.68,6.3-.8,9.14a7.48,7.48,0,0,1-2.56-3C66,23.9,72.64,18.2,78.88,20c4.6,1.34,6.82,6.71,5.9,11.17a10.17,10.17,0,0,1-2,3.94,73.38,73.38,0,0,1-8.31,8.14c-3.77,3.38-7.48,6.83-11.41,10.1Z" fill="#66b5e6"/>
    <g>
      <path d="M37.13,57l-1.61-1.43c-4.07-3.4-13-10.82-13.67-11.2A3.22,3.22,0,0,0,18.61,50c.66.38,11.51,4.51,16.48,6.39Z" fill="#fcc800"/>
      <path d="M62.85,57l1.6-1.44c4.07-3.41,13-10.85,13.64-11.23a3.22,3.22,0,0,1,3.26,5.55c-.66.38-11.5,4.54-16.46,6.43Z" fill="#fcc800"/>
    </g>
    <path d="M50,73a52.51,52.51,0,0,0-8.29-7.42,37.2,37.2,0,0,0-9.45-5.31,38.07,38.07,0,0,0-6.91-1.76,19.19,19.19,0,0,0-15.77,5.2c-1.34,1.26-2.44,3-4.08,4.05C3.7,69,1.3,68.18,0,66.64c4.63,2.78,5.56-1.26,8-4.33A19,19,0,0,1,21.81,55a21.3,21.3,0,0,1,7.88,1.36,33.42,33.42,0,0,1,13.07,8A40.83,40.83,0,0,1,50,73Z" fill="#66b5e6"/>
    <path d="M15.44,61.32c-2.76,2.38-6.07,7.27-5.56,10.93.35,2.92,4.86,6.82,7.48,4.17,2.25-2.09.69-5.07-1.93-6a4.6,4.6,0,0,1,4.91,3.48,5.55,5.55,0,0,1-3.32,6c-2.83,1.18-6-.37-7.89-2.34a8.19,8.19,0,0,1-1-10.2,14.18,14.18,0,0,1,3.18-3.76,10.43,10.43,0,0,1,4.17-2.32Z" fill="#66b5e6"/>
    <path d="M43.15,68.18C39,66.3,32.05,65.06,30,70.22c-.58,1.55-1.31,4,.51,4.8,2.36,1.07,3.69-1.73,2.87-3.93a3.9,3.9,0,0,1,1,4.26c-1.07,2.81-5.15,3.09-7.13.94a4.66,4.66,0,0,1-1.15-2.72,8.13,8.13,0,0,1,2.75-6.66c4.26-3.36,10.35-1.46,14.29,1.27Z" fill="#66b5e6"/>
    <path d="M50,73a41,41,0,0,1,7.21-8.73,33.38,33.38,0,0,1,13.06-8,21.27,21.27,0,0,1,7.87-1.38A19,19,0,0,1,92,62.2c2.4,3.07,3.34,7.1,8,4.31-1.3,1.55-3.69,2.4-5.5,1.16-1.63-1.07-2.75-2.78-4.09-4a19.2,19.2,0,0,0-15.78-5.16,34.54,34.54,0,0,0-16.35,7.11A52.93,52.93,0,0,0,50,73Z" fill="#66b5e6"/>
    <path d="M84.55,61.23c4.4,1.2,9,6.39,8.68,11.22a8.85,8.85,0,0,1-7.14,7.72c-3.54.79-7.18-2.74-6.41-6.3a4.58,4.58,0,0,1,4.89-3.5c-2.61.9-4.17,3.88-1.91,6,2.63,2.65,7.13-1.26,7.48-4.18.49-3.67-2.83-8.54-5.59-10.92Z" fill="#66b5e6"/>
    <path d="M56.85,68.16c3.93-2.73,10-4.65,14.29-1.3a8.11,8.11,0,0,1,2.77,6.65,4.66,4.66,0,0,1-1.15,2.72c-2,2.16-6.05,1.89-7.13-.92a3.9,3.9,0,0,1,1-4.26c-.81,2.2.52,5,2.89,3.92,1.81-.77,1.08-3.25.48-4.8-2.06-5.16-9-3.9-13.15-2Z" fill="#66b5e6"/>
  </g>
</svg>
