<svg xmlns="http://www.w3.org/2000/svg" width="100" height="100" viewBox="0 0 100 100">
  <g>
    <path d="M29.23,35.26a8,8,0,0,1-12.7-3.32A9.21,9.21,0,0,1,19.9,21.47a12.38,12.38,0,0,1,6.6-2.06c7.23-.43,12.7,6.23,13.71,12.9,1,5.62-.82,11.37-3.41,16.26a30,30,0,0,0,1.45-11.94A15.5,15.5,0,0,0,35,27a11.28,11.28,0,0,0-10.22-4.24,7.15,7.15,0,0,0-6.6,6.89,6.74,6.74,0,0,0,3.53,6,8,8,0,0,0,7.56-.3Z" fill="#0b318f"/>
    <path d="M70.77,35.26a8,8,0,0,0,7.56.3,6.74,6.74,0,0,0,3.53-6,7.13,7.13,0,0,0-6.6-6.89A11.28,11.28,0,0,0,65,27a15.5,15.5,0,0,0-3.29,9.68A30,30,0,0,0,63.2,48.57c-2.59-4.89-4.45-10.64-3.41-16.26,1-6.67,6.49-13.33,13.72-12.9a12.38,12.38,0,0,1,6.59,2.06,9.21,9.21,0,0,1,3.37,10.47,8,8,0,0,1-12.7,3.32Z" fill="#0b318f"/>
    <path d="M1.16,28.75h0a15,15,0,0,1,15-15h0a15,15,0,0,1-15,15Z" fill="#0b318f"/>
    <path d="M50,27.47h0A15,15,0,0,1,50,6.22h0a15,15,0,0,1,0,21.25Z" fill="#0b318f"/>
    <path d="M37.53,15h0a15,15,0,0,1-15-15h0a15,15,0,0,1,15,15Z" fill="#0b318f"/>
    <path d="M98.84,28.75h0a15,15,0,0,0-15-15h0a15,15,0,0,0,15,15Z" fill="#0b318f"/>
    <path d="M62.47,15h0a15,15,0,0,0,15-15h0a15,15,0,0,0-15,15Z" fill="#0b318f"/>
    <path d="M50,90a19,19,0,0,1,2.35-8.83,18.5,18.5,0,0,1-2.36.15,18.17,18.17,0,0,1-2.34-.15A20.18,20.18,0,0,1,50,90Z" fill="#eb6100"/>
    <path d="M46.13,96.93A5.06,5.06,0,0,1,45.05,93a1,1,0,0,0-.07-.62A1.05,1.05,0,0,0,43.46,92c-1.09.47-2.53,1-3.61.5-.05,0-.11-.14-.19-.36-.45-2.27.61-4.88,1.38-7.09.12-.29.44-1.09.57-1.37s.14-.31.2-.48v0c.13-.29.29-.66.41-1s.43-.85.67-1.31a1.64,1.64,0,1,0-3-1.45,24.33,24.33,0,0,0-1,2.51l-.13.62a1.23,1.23,0,0,1,.09-.54l0,0c-.21.51-.48,1.39-.67,1.91-.8,2.8-2.54,8,.05,10.36,1.48,1,3.32.74,4.92.13a7.14,7.14,0,0,0,2.16,3.15A12.79,12.79,0,0,0,49.66,100,12.08,12.08,0,0,1,46.13,96.93Z" fill="#eb6100"/>
    <path d="M61.78,86.1c-.25-1-.6-2.09-.94-3.08-.08-.23-.24-.66-.33-.89l0,0a1.24,1.24,0,0,1,.1.54,14.1,14.1,0,0,0-1.14-3.13,1.64,1.64,0,1,0-3,1.45c.24.46.47.88.66,1.31s.28.7.42,1v-.06a.38.38,0,0,0,0,.1c.22.48.53,1.27.73,1.76.78,2.22,1.84,4.82,1.38,7.09a.83.83,0,0,1-.18.36c-1.08.45-2.53,0-3.61-.5a1,1,0,0,0-1.59,1c.5,3.06-2.17,5.48-4.62,7,2.32-.76,4.76-2.09,6-4.36a6.42,6.42,0,0,0,.48-1.1c2.16.79,5,.94,5.88-1.51S62.29,88.32,61.78,86.1Z" fill="#eb6100"/>
    <path d="M23.32,74.87a18.9,18.9,0,0,1,5.06-1.67,19.1,19.1,0,0,1,3.85-.29,21,21,0,0,1-1.21-2,19.62,19.62,0,0,1-.94-2.15,20.92,20.92,0,0,1-2.45,2.91A20.43,20.43,0,0,1,23.32,74.87Z" fill="#eb6100"/>
    <path d="M18.46,72.13a1.09,1.09,0,0,0,.51-.35,1,1,0,0,0-.33-1.54c-.9-.75-2.05-1.86-2.09-3a3.17,3.17,0,0,1,1.54-1.09,21.65,21.65,0,0,1,5.62-1.23c.32,0,1.18-.12,1.48-.13l.52,0h0c.31,0,.71,0,1.06-.08s.95,0,1.47,0a1.65,1.65,0,1,0-.07-3.29,13.68,13.68,0,0,0-3.29.42,1.17,1.17,0,0,1,.52-.16c-.57,0-1.48.2-2.06.28-2.86.57-8.29,1.42-9.18,4.79-.24,1.79.86,3.29,2.13,4.44a7.26,7.26,0,0,0-1.8,3.36,12.61,12.61,0,0,0-.07,4.93,12.09,12.09,0,0,1,1.11-4.56A5,5,0,0,1,18.46,72.13Z" fill="#eb6100"/>
    <path d="M34.45,76.76c-.3.42-.57.82-.86,1.19s-.49.57-.69.82l0,0c-.12.13-.23.27-.33.4s-.76.89-1,1.13C30,82,28.21,84.11,26,84.75a1.13,1.13,0,0,1-.37,0h0l-.06,0a5.57,5.57,0,0,1-1.16-3.59,1,1,0,0,0-1.64-.75c-2.49,1.85-5.86.59-8.31-.9,1.74,1.71,4,3.27,6.64,3.36a6,6,0,0,0,1.19-.09c.29,2.29,1.46,4.88,4,4.54s4.28-2,6-3.46c.78-.69,1.58-1.49,2.3-2.25l.64-.7,0,0a1.27,1.27,0,0,1-.43.33,14,14,0,0,0,2.25-2.44A1.64,1.64,0,1,0,34.45,76.76Z" fill="#eb6100"/>
    <path d="M76.68,74.87a18.9,18.9,0,0,0-5.06-1.67,19.1,19.1,0,0,0-3.85-.29,21,21,0,0,0,1.21-2,19.62,19.62,0,0,0,.94-2.15,20.92,20.92,0,0,0,2.45,2.91A20.43,20.43,0,0,0,76.68,74.87Z" fill="#eb6100"/>
    <path d="M83.76,71.14c1.69-1.56,3.12-4,1.35-5.92s-4.1-2.33-6.3-2.89c-1-.24-2.13-.43-3.17-.58l-.94-.12h-.06a1.17,1.17,0,0,1,.52.16,13.68,13.68,0,0,0-3.29-.42,1.65,1.65,0,1,0-.07,3.29c.52,0,1,0,1.47,0s.75.07,1.06.08h0l.52,0c.31,0,1.16.1,1.48.13,2.32.32,5.11.57,6.93,2a.89.89,0,0,1,.24.33c-.12,1.23-1.29,2.33-2.26,3.1a1,1,0,0,0,.34,1.77c3,1,3.88,4.44,4.08,7.3.39-2.41.33-5.18-1.1-7.36A6.71,6.71,0,0,0,83.76,71.14Z" fill="#eb6100"/>
    <path d="M77.29,80.37a1,1,0,0,0-.58-.22,1,1,0,0,0-1.07,1.16c-.09,1.17-.32,2.76-1.25,3.45a3.12,3.12,0,0,1-1.77-.62,21.61,21.61,0,0,1-4.26-3.87c-.21-.24-.78-.89-1-1.13s-.21-.27-.33-.4l0,0c-.2-.25-.45-.56-.69-.82s-.56-.77-.86-1.19a1.64,1.64,0,1,0-2.64,2,25.4,25.4,0,0,0,1.76,2l.49.4a1.27,1.27,0,0,1-.43-.33l0,0c.36.42,1,1.07,1.39,1.47,2.1,2,6,5.94,9.22,4.71,1.59-.84,2.18-2.61,2.37-4.31a7.08,7.08,0,0,0,3.79-.48,12.66,12.66,0,0,0,4.06-2.79,12,12,0,0,1-4.36,1.73A5,5,0,0,1,77.29,80.37Z" fill="#eb6100"/>
    <path d="M63.59,62.41a21.57,21.57,0,0,0-1-6.32c-2-6.35-6.06-8.38-10-15.69A41,41,0,0,1,50,34.79a41,41,0,0,1-2.53,5.61c-4,7.31-8,9.34-10,15.69a21.57,21.57,0,0,0-1,6.32h0a13.59,13.59,0,0,0,27.18,0Z" fill="#0b318f"/>
  </g>
</svg>
